<svg width="300" height="353" viewBox="0 0 300 353" fill="none" xmlns="http://www.w3.org/2000/svg">
<g clip-path="url(#clip0_506_3546)">
<path fill-rule="evenodd" clip-rule="evenodd" d="M155.935 75.2443C162.411 79.1475 168.774 81.0333 171.76 80.2635C179.25 78.333 179.938 50.9351 174.143 40.1339C168.349 29.3328 138.558 24.625 137.057 46.0255C136.536 53.4529 139.654 60.0814 144.262 65.4901L136 104H160L155.935 75.2443Z" fill="#B28B67"/>
<path fill-rule="evenodd" clip-rule="evenodd" d="M176.409 44.9836C176.171 43.5836 175.59 42.0288 175.122 40.7043C174.517 38.9967 173.603 37.4571 172.596 36.0061C170.701 33.2744 168.428 30.8075 165.918 28.7601C161.333 25.0202 155.497 22.8631 149.757 23.5636C146.86 23.9173 144.047 25.0226 141.653 26.8624C139.489 28.5246 137.409 30.9716 134.608 31.1474C131.56 31.3385 128.766 28.6485 126.322 26.9871C123.566 25.1141 120.634 23.7493 117.413 23.2188C112.017 22.3304 106.948 24.1534 103.229 28.5805C99.2722 33.2916 96.3955 40.2003 98.9943 46.4425C99.4773 47.6028 100.099 48.581 100.991 49.3918C101.809 50.1353 103.058 50.9263 103.39 52.1142C103.742 53.3769 102.69 55.006 102.281 56.1454C101.697 57.7778 101.217 59.4913 101.388 61.2656C101.668 64.1795 103.499 66.9612 105.433 68.8765C107.4 70.8254 109.822 71.943 112.409 72.4582C114.136 72.8022 115.901 72.992 117.657 72.8628C118.528 72.7988 119.297 72.5567 120.141 72.3642C120.962 72.1769 121.421 72.395 122.118 72.8453C125.354 74.9373 128.833 75.7467 132.57 75.4356C135.724 75.1729 139.358 74.4087 141.931 72.248C144.788 69.8482 144.731 66.5391 144.059 63.0035C144.771 63.3565 146.742 63.5751 145.564 62.1681C145.098 61.6108 144.216 61.384 143.618 61.0563C142.921 60.6747 142.213 60.1814 141.672 59.5589C139.487 57.0454 141.694 51.93 144.44 51.0871C148.521 49.8347 149.434 55.6055 152.347 57.0982C154.022 57.9565 155.774 56.7834 157.029 55.5855C158.71 53.9809 159.855 51.8551 160.844 49.6918C161.659 47.9103 162.417 46.1038 163.248 44.3311C163.635 43.5033 164.978 41.1632 164.304 40.2272C167.226 39.6444 170.482 40.859 172.999 42.4517C174.039 43.1101 174.832 43.8361 175.387 44.9985C175.506 45.2475 175.765 45.9879 176.09 46.0183C176.695 46.0748 176.469 45.3354 176.409 44.9836" fill="#4D4848"/>
<path fill-rule="evenodd" clip-rule="evenodd" d="M126 349C168.526 349 203 316.093 203 275.5C203 234.907 168.526 202 126 202C83.4741 202 49 234.907 49 275.5C49 316.093 83.4741 349 126 349Z" fill="#FFE9E0"/>
<path fill-rule="evenodd" clip-rule="evenodd" d="M212.323 253.567C203.642 271.978 190.076 316.672 190.076 316.672L201.593 321.934C201.593 321.934 230.814 274.952 248.672 242.836C247.84 250.066 246.993 258.206 246.207 266.763C244.346 287.033 246.206 330.827 247.207 343.477C247.836 351.428 258.639 349.762 259.648 343.457C259.819 342.389 260.515 338.639 261.553 333.045C266.646 305.613 279.976 233.818 280 216.238C280.009 209.165 266.19 202.81 257.953 207.756C252.295 201.719 241.587 198.24 235.436 208.212C231.525 214.552 222.233 232.55 212.323 253.567Z" fill="#B28B67"/>
<path fill-rule="evenodd" clip-rule="evenodd" d="M190.9 300.125L230.427 206.487C239.896 191.255 266.446 209.587 263.217 218.422C255.885 238.479 218.599 303.414 216.415 309.39L190.9 300.125Z" fill="#4D4848"/>
<path fill-rule="evenodd" clip-rule="evenodd" d="M191.664 311.185C190.971 310.241 189.63 310.017 188.734 310.771C187.099 312.146 184.748 314.264 183.899 315.734C182.547 318.076 180.733 323.021 180.733 323.021C183.45 324.59 229.578 351.222 229.578 351.222C229.578 351.222 235.116 346.027 231.304 343.156C227.491 340.286 225.012 338.315 225.012 338.315L208.152 315.087C207.821 314.631 207.179 314.538 206.733 314.882L203.23 317.579C203.23 317.579 198.409 317.158 196.035 315.788C194.589 314.953 192.824 312.767 191.664 311.185Z" fill="#E4E4E4"/>
<path fill-rule="evenodd" clip-rule="evenodd" d="M247.45 337.284C246.378 336.813 245.104 337.29 244.705 338.391C243.977 340.398 243 343.409 243 345.106C243 347.811 243.901 353 243.901 353C247.039 353 300.303 353 300.303 353C300.303 353 302.502 345.732 297.765 345.152C293.028 344.573 289.895 344.106 289.895 344.106L263.68 332.419C263.165 332.189 262.563 332.43 262.348 332.951L260.663 337.039C260.663 337.039 256.278 339.085 253.537 339.085C251.868 339.085 249.246 338.074 247.45 337.284Z" fill="#E4E4E4"/>
<path fill-rule="evenodd" clip-rule="evenodd" d="M282.77 223.433C282.77 250 270.154 311.97 270.146 317.82L243 317.841C243 317.841 248.96 234.898 247.227 234.004C245.493 233.111 176.176 240.925 155.386 240.925C125.408 240.925 113.006 222.02 112 187H171.386C183.478 188.294 246.549 201.015 269.972 205.388C280 207.261 282.77 216.115 282.77 223.433Z" fill="#4D4848"/>
<path fill-rule="evenodd" clip-rule="evenodd" d="M256.235 143.704L220 159.617L231.57 174.439L258.707 153.633C272.262 151.143 278.549 149.004 277.566 147.216C276.738 145.709 275.197 145.624 273.778 145.545C272.672 145.484 271.64 145.427 271.076 144.705C269.789 143.056 272.966 137.961 276.188 133.255C279.41 128.549 276.39 128.719 274.623 129.282C268.711 132.572 262.582 137.379 256.235 143.704ZM94 168.066L73.5083 164C59.6109 200.63 51.3256 220.702 48.6523 224.218C46.692 226.796 34.6026 233.437 26.4198 236.984C23.1354 238.407 23.8406 241.183 24.8039 242.071C30.8802 247.672 36.5292 245.709 42.6783 243.572C44.4585 242.953 46.2806 242.32 48.1672 241.851C53.0502 240.639 54.5361 243.15 55.9404 245.523C57.1837 247.624 58.363 249.616 61.7793 248.821C61.6239 248.151 61.433 247.4 61.227 246.589C59.8952 241.349 57.9312 233.62 60.845 229.13C62.3404 226.826 73.3921 206.471 94 168.066Z" fill="#B28B67"/>
<path fill-rule="evenodd" clip-rule="evenodd" d="M149.695 87.3321L158.342 85.8489C177.177 104.119 184.862 148.012 197.414 153.823C209.281 159.316 226.104 154 246.1 146.823L252.224 160.505C234.055 180.161 195.349 196.767 179.66 187.287C154.577 172.13 148.786 117.994 149.695 87.3321Z" fill="#F4713B"/>
<path fill-rule="evenodd" clip-rule="evenodd" d="M112 196C112 196 164.008 196 188.511 196C192.008 196 191.349 190.952 190.843 188.404C185.011 159.004 162.241 127.312 162.241 85.4607L140.172 82C121.917 111.358 115.605 147.505 112 196Z" fill="#F9F6F3"/>
<path fill-rule="evenodd" clip-rule="evenodd" d="M139 82H138.748C89.2466 112.504 59.3306 159.791 49 223.859L65.0374 227C75.6609 214.623 88.7714 194.368 104.369 166.233C99.5834 183.181 96.0896 200.563 95 217H163.872C177.205 183.305 147.486 82 147.486 82H142.731H139Z" fill="#F4713B"/>
</g>
<defs>
<clipPath id="clip0_506_3546">
<rect width="300" height="353" fill="white"/>
</clipPath>
</defs>
</svg>
