<svg width="72" height="72" viewBox="0 0 72 72" fill="none" xmlns="http://www.w3.org/2000/svg">
<g clip-path="url(#clip0_521_3649)">
<rect width="72" height="72" rx="36" fill="#F9F6F3"/>
<path d="M42.25 26C42.25 23.8125 41 21.7812 39.125 20.6094C37.1719 19.5156 34.75 19.5156 32.875 20.6094C30.9219 21.7812 29.75 23.8125 29.75 26C29.75 28.2656 30.9219 30.2969 32.875 31.4688C34.75 32.5625 37.1719 32.5625 39.125 31.4688C41 30.2969 42.25 28.2656 42.25 26ZM26 26C26 22.4844 27.875 19.2031 31 17.4062C34.0469 15.6094 37.875 15.6094 41 17.4062C44.0469 19.2031 46 22.4844 46 26C46 29.5938 44.0469 32.875 41 34.6719C37.875 36.4688 34.0469 36.4688 31 34.6719C27.875 32.875 26 29.5938 26 26ZM22.3281 52.25H49.5938C48.8906 47.3281 44.6719 43.5 39.5156 43.5H32.4062C27.25 43.5 23.0312 47.3281 22.3281 52.25ZM18.5 53.7344C18.5 46 24.6719 39.75 32.4062 39.75H39.5156C47.25 39.75 53.5 46 53.5 53.7344C53.5 54.9844 52.4062 56 51.1562 56H20.7656C19.5156 56 18.5 54.9844 18.5 53.7344Z" fill="#616161"/>
</g>
<rect x="0.5" y="0.5" width="71" height="71" rx="35.5" stroke="#BDBDBD"/>
<defs>
<clipPath id="clip0_521_3649">
<rect width="72" height="72" rx="36" fill="white"/>
</clipPath>
</defs>
</svg>
