<svg width="584" height="583" viewBox="0 0 584 583" fill="none" xmlns="http://www.w3.org/2000/svg">
<path d="M456.697 79.3862C506.186 114.419 553.299 149.101 559.238 190.089C565.572 230.727 530.732 277.671 517.271 335.825C503.811 393.629 511.333 462.993 479.264 507.835C447.196 552.677 375.536 573.346 303.481 572.996C231.821 572.996 160.161 551.976 120.571 509.236C80.9796 466.847 73.4574 402.037 51.6824 341.78C29.9074 281.524 -6.51628 225.472 1.00599 175.025C8.52826 124.578 59.6005 79.7366 117.403 47.1562C175.206 14.5759 239.343 -6.09331 297.542 1.61387C355.345 8.97071 407.209 44.3536 456.697 79.3862Z" fill="#FAA83E"/>
<path d="M480.697 89.3862C530.186 124.419 577.299 159.101 583.238 200.089C589.572 240.727 554.732 287.671 541.271 345.825C527.811 403.629 535.333 472.993 503.264 517.835C471.196 562.677 399.536 583.346 327.481 582.996C255.821 582.996 184.161 561.976 144.571 519.236C104.98 476.847 97.4574 412.037 75.6824 351.78C53.9074 291.524 17.4837 235.472 25.006 185.025C32.5283 134.578 83.6005 89.7366 141.403 57.1562C199.206 24.5759 263.343 3.90669 321.542 11.6139C379.345 18.9707 431.209 54.3536 480.697 89.3862Z" fill="#F7913D"/>
</svg>
