<svg width="104" height="32" viewBox="0 0 104 32" fill="none" xmlns="http://www.w3.org/2000/svg">
<path d="M15.809 19.4401C16.1978 19.4363 16.5865 19.4326 17.0038 19.4352C17.0323 19.4416 17.0557 19.4398 17.0557 19.4398C17.0662 19.4379 17.0766 19.436 17.1028 19.4596C17.1186 20.1508 17.1158 20.8167 17.1213 21.4825C17.1223 21.6006 17.158 21.7185 17.1777 21.8364C17.1892 21.922 17.193 22.0094 17.2134 22.0927C17.3545 22.6685 17.5035 23.2424 17.6391 23.8195C17.6679 23.9419 17.6751 24.0791 17.653 24.2025C17.3102 26.1159 16.9592 28.0278 16.6155 29.941C16.5787 30.1457 16.5634 30.3562 16.5589 30.5644C16.5492 31.009 16.5533 31.454 16.5373 31.9287C16.5111 31.9669 16.5007 31.9768 16.4917 31.9882C16.2797 31.9905 16.0677 31.9929 15.8317 31.9676C15.808 27.7734 15.8085 23.6067 15.809 19.4401Z" fill="#F57D3C"/>
<path d="M11.4532 29.6932C11.1842 29.6932 10.9153 29.6932 10.6248 29.6932C10.6052 29.5823 10.5795 29.4825 10.5708 29.3813C10.4408 27.869 10.3143 26.3563 10.1844 24.844C10.0642 23.4446 9.94146 22.0455 9.8187 20.6464C9.79355 20.3596 9.76597 20.073 9.73458 19.7869C9.71887 19.6437 9.73824 19.5153 9.81112 19.3858C10.3332 18.4578 10.8497 17.5266 11.3939 16.6023C11.4309 16.7285 11.4516 16.8489 11.4517 16.9693C11.4534 21.2106 11.4531 25.4519 11.4532 29.6932Z" fill="#EF4B37"/>
<path d="M11.4776 29.6968C11.4532 25.4517 11.4535 21.2104 11.4518 16.9691C11.4517 16.8487 11.431 16.7283 11.407 16.5899C11.5096 16.351 11.6252 16.13 11.7408 15.9089C11.7625 15.9115 11.7843 15.9141 11.8061 15.9167C12.0987 17.0605 12.3882 18.2051 12.6631 19.3996C12.6616 22.8615 12.6607 26.2772 12.6598 29.6928C12.2738 29.6954 11.8879 29.698 11.4776 29.6968Z" fill="#EF5638"/>
<path d="M19.511 18.612C19.6862 17.8944 19.861 17.1768 20.0369 16.4594C20.0814 16.2777 20.129 16.0968 20.1752 15.9155C20.1946 15.9113 20.2141 15.9071 20.2336 15.9028C20.4359 16.2723 20.6383 16.6417 20.8224 17.0386C20.694 17.1646 20.7407 17.2956 20.7406 17.4116C20.738 21.5053 20.7384 25.599 20.7384 29.6927C20.3699 29.6956 20.0014 29.6984 19.6086 29.6722C19.5844 27.2689 19.5844 24.8946 19.5844 22.5203C19.5844 21.3331 19.585 20.1459 19.5833 18.9588C19.5831 18.8397 19.6133 18.7111 19.511 18.612Z" fill="#F99E3F"/>
<path d="M15.7848 19.4344C15.8084 23.6069 15.8079 27.7735 15.8075 31.9639C15.6958 31.9877 15.584 31.9877 15.4544 31.9877C15.4439 31.9117 15.4288 31.8455 15.4269 31.7789C15.4227 31.6392 15.4185 31.499 15.4265 31.3597C15.4714 30.5771 15.351 29.8127 15.2058 29.0468C14.8969 27.4174 14.6074 25.7843 14.3153 24.1517C14.2977 24.0533 14.3124 23.9433 14.3362 23.8444C14.4669 23.3012 14.6054 22.7599 14.7402 22.2176C14.7673 22.1089 14.7904 21.9992 14.8208 21.8659C14.606 21.806 14.4079 21.7509 14.1945 21.6595C14.1804 20.8956 14.1816 20.1678 14.1828 19.4401C14.7088 19.4362 15.2347 19.4324 15.7848 19.4344Z" fill="#F3713B"/>
<path d="M20.7621 29.6971C20.7382 25.599 20.7378 21.5053 20.7404 17.4116C20.7405 17.2956 20.6938 17.1646 20.8222 17.0574C21.2423 17.753 21.6362 18.4621 22.0501 19.1594C22.209 19.427 22.2622 19.6848 22.2292 20C22.1139 21.1023 22.0348 22.2085 21.9387 23.3129C21.8434 24.4087 21.743 25.5039 21.6472 26.5996C21.5688 27.4953 21.4944 28.3913 21.4171 29.2871C21.406 29.4163 21.3884 29.5449 21.3707 29.7015C21.1658 29.7015 20.9759 29.7015 20.7621 29.6971Z" fill="#F9A73F"/>
<path d="M10.7672 13.448C10.3218 13.364 9.87662 13.2784 9.43073 13.1968C9.25742 13.165 9.16287 13.0439 9.08093 12.9064C8.84558 12.5117 8.71412 12.0794 8.61994 11.633C8.5484 11.2939 8.56274 10.9643 8.64947 10.6251C8.96494 9.39146 9.26673 8.15427 9.56532 6.91639C9.6129 6.71913 9.69706 6.57243 9.867 6.454C10.2176 6.20968 10.5547 5.94607 10.9131 5.70776C10.9287 6.34839 10.9253 6.97168 10.9309 7.59489C10.9322 7.74024 10.9643 7.88532 10.9682 8.0421C10.5629 8.21812 10.1852 8.40243 9.90781 8.73503C10.1112 9.01262 10.5305 9.41525 10.702 9.5044C11.1818 9.18267 11.3033 9.12575 11.6123 9.10047C11.6306 9.24856 11.6401 9.37651 11.6665 9.50084C11.6833 9.57994 11.7254 9.65368 11.738 9.73845C11.3125 9.87976 11.0138 10.1243 10.8978 10.5532C10.832 10.7963 10.8602 11.0379 10.9002 11.2838C10.7451 11.3513 10.7727 11.4763 10.7721 11.586C10.7688 12.2067 10.7685 12.8273 10.7672 13.448Z" fill="#EF4C37"/>
<path d="M19.5013 18.6289C19.6131 18.7112 19.5829 18.8398 19.5831 18.9589C19.5848 20.146 19.5841 21.3332 19.5841 22.5204C19.5841 24.8947 19.5841 27.269 19.5841 29.6681C19.0102 29.716 18.4369 29.7068 17.8384 29.6967C17.8553 29.5669 17.8634 29.4726 17.8802 29.38C18.1949 27.6435 18.5124 25.9076 18.8225 24.1703C18.8447 24.0462 18.8336 23.9079 18.8045 23.7841C18.6421 23.0953 18.4694 22.409 18.3143 21.6838C18.3449 21.5449 18.3746 21.4442 18.3753 21.3433C18.3803 20.7091 18.3789 20.0749 18.3795 19.4407C18.6796 19.4304 18.9797 19.4201 19.2919 19.4093C19.3612 19.1446 19.4265 18.8951 19.5013 18.6289Z" fill="#F7933E"/>
<path d="M19.5327 13.4109C19.1579 13.2269 18.7836 13.0417 18.4079 12.8597C18.3213 12.8177 18.2706 12.7633 18.2745 12.66C18.3142 11.5955 18.0117 10.5751 17.8678 9.53415C17.8215 9.19911 17.7578 8.86649 17.6985 8.51178C17.6117 8.51178 17.5454 8.51178 17.457 8.48591C17.4344 7.91532 17.4303 7.37058 17.4364 6.82594C17.4377 6.70789 17.4761 6.59027 17.4974 6.47244C17.6795 6.58453 17.8529 6.71592 18.0459 6.80425C18.3474 6.94222 18.6418 6.82836 18.7938 6.52921C18.9847 6.15324 19.1169 5.75476 19.1643 5.3353C19.2014 5.00776 19.2106 4.67708 19.2333 4.33228C19.4105 4.38975 19.5336 4.52617 19.6612 4.66098C19.6267 4.78465 19.5875 4.88246 19.587 4.98046C19.5825 5.93952 19.5845 6.89861 19.5629 7.86264C19.257 7.92019 18.9578 7.91107 18.6746 8.05754C18.7965 8.42117 18.9111 8.76261 19.0267 9.10711C19.513 9.0181 19.9684 8.95279 20.4225 9.11043C20.405 9.32731 20.3895 9.52319 20.3584 9.72858C20.3098 9.74825 20.2764 9.75736 20.2437 9.76873C19.4745 10.0367 19.1973 10.8131 19.6215 11.5085C19.6479 11.5518 19.6672 11.5995 19.6712 11.6537C19.6298 11.7592 19.592 11.8554 19.5868 11.9533C19.5611 12.4388 19.6324 12.9279 19.5327 13.4109Z" fill="#F58D3D"/>
<path d="M20.374 9.71902C20.3896 9.52313 20.4052 9.32724 20.4411 9.11114C20.733 9.22967 21.0045 9.36842 21.3206 9.5299C21.5571 9.29427 21.8264 9.0319 22.1028 8.74362C21.9822 8.63863 21.8933 8.54208 21.7867 8.47249C21.5768 8.33543 21.3571 8.21332 21.156 8.06783C21.1839 7.95691 21.2081 7.86327 21.2088 7.76946C21.2126 7.25366 21.2072 6.73777 21.213 6.22201C21.2145 6.09274 21.2455 5.96381 21.263 5.83472C21.5853 6.07189 21.9044 6.31358 22.2315 6.54379C22.3467 6.62484 22.3686 6.74037 22.3977 6.85721C22.6317 7.79817 22.864 8.73957 23.0968 9.68086C23.1765 10.0031 23.2466 10.328 23.3382 10.6469C23.4273 10.9575 23.4335 11.2643 23.3699 11.579C23.2777 12.0358 23.142 12.4756 22.9078 12.8819C22.7967 13.0745 22.6505 13.1929 22.417 13.2266C22.0284 13.2826 21.6443 13.3697 21.2354 13.4186C21.2121 12.8667 21.2118 12.3399 21.2239 11.8001C21.2752 11.7524 21.316 11.7195 21.3528 11.6827C21.9847 11.0499 21.7193 10.0086 20.8611 9.77468C20.7053 9.7322 20.5367 9.73638 20.374 9.71902Z" fill="#F8A63F"/>
<path d="M14.1588 19.4342C14.1817 20.1678 14.1805 20.8956 14.1785 21.6485C14.0342 21.6494 13.8906 21.625 13.7346 21.5985C13.7043 21.6904 13.6755 21.7621 13.6569 21.8364C13.4953 22.4797 13.3302 23.1222 13.1792 23.7679C13.1466 23.9074 13.141 24.0638 13.1662 24.2047C13.4759 25.9399 13.794 27.6736 14.1085 29.4079C14.1237 29.4913 14.1263 29.5769 14.1386 29.6989C13.6456 29.7096 13.177 29.7046 12.6841 29.6967C12.6606 26.2773 12.6615 22.8616 12.6635 19.4202C12.8704 19.4037 13.0761 19.4168 13.2819 19.4211C13.5661 19.427 13.8504 19.4263 14.1588 19.4342Z" fill="#F26039"/>
<path d="M11.7563 9.72983C11.7256 9.65369 11.6835 9.57996 11.6667 9.50086C11.6402 9.37652 11.6308 9.24857 11.6332 9.09288C12.0832 8.96385 12.5115 9.02802 12.9596 9.10424C13.0766 8.75038 13.1896 8.40885 13.3143 8.0317C13.0388 7.97195 12.7968 7.91948 12.5549 7.84249C12.5549 7.15711 12.555 6.49624 12.5548 5.83538C12.5548 5.69565 12.5472 5.55398 12.6685 5.4502C12.735 5.55218 12.7992 5.65583 12.8686 5.75577C12.9782 5.91341 13.1071 6.04181 13.2825 6.13898C13.6524 6.34394 13.9739 6.61458 14.1984 6.9805C14.354 7.2342 14.4341 7.50369 14.3185 7.8027C14.2229 8.04965 14.3091 8.26308 14.4991 8.48203C14.3215 8.47434 14.2689 8.56044 14.2472 8.69366C14.0727 9.76134 13.8872 10.8273 13.7204 11.8961C13.6844 12.1265 13.7017 12.3669 13.7106 12.6021C13.7161 12.7469 13.6591 12.824 13.5325 12.8837C13.1852 13.0474 12.8428 13.2215 12.4706 13.3748C12.4276 13.2486 12.4015 13.1393 12.3995 13.0295C12.393 12.669 12.3952 12.3083 12.4073 11.9364C12.489 11.8866 12.5608 11.8531 12.6254 11.809C13.2146 11.407 13.3052 10.5833 12.8114 10.0716C12.5233 9.7729 12.1611 9.6799 11.7563 9.72983Z" fill="#F16439"/>
<path d="M17.4855 6.46015C17.4762 6.59009 17.4378 6.70772 17.4365 6.82576C17.4303 7.3704 17.4345 7.91515 17.4355 8.48546C17.1641 8.56541 16.8921 8.61976 16.5856 8.68099C16.7023 9.59323 16.8935 10.486 17.019 11.4213C16.3318 11.4497 15.6659 11.4307 14.9558 11.4341C15.1082 10.5013 15.255 9.60273 15.4043 8.68895C15.2645 8.65216 15.149 8.62174 15.0028 8.58325C15.973 8.03392 16.8075 7.38326 17.1763 6.25854C17.2896 6.33078 17.3815 6.38941 17.4855 6.46015Z" fill="#F37A3B"/>
<path d="M23.2568 31.9878C22.9619 31.9878 22.667 31.9878 22.3347 31.9878C22.4364 30.5692 22.5758 29.1687 22.6909 27.7665C22.8063 26.3624 22.9377 24.9597 23.1132 23.5342C23.178 23.6291 23.2429 23.7241 23.3028 23.8573C23.284 24.016 23.2581 24.1364 23.258 24.2568C23.2558 26.8338 23.2566 29.4108 23.2568 31.9878Z" fill="#EF5638"/>
<path d="M14.2881 16.0063C14.2859 16.3249 14.2864 16.6434 14.28 16.9618C14.2775 17.0872 14.3162 17.161 14.4751 17.1799C14.4968 17.5644 14.497 17.9206 14.4972 18.2769C14.2364 18.2824 13.9756 18.2883 13.7148 18.2931C13.6241 18.2948 13.5672 18.2526 13.5489 18.161C13.5422 18.127 13.5297 18.0941 13.5213 18.0603C13.2428 16.9452 12.9645 15.8301 12.6866 14.7149C12.6803 14.6899 12.6788 14.6637 12.6753 14.6397C12.8128 14.5039 13.3689 14.2129 13.6828 14.1177C13.7115 14.483 13.8046 14.8103 14.266 14.883C14.2867 15.2759 14.2874 15.6411 14.2881 16.0063Z" fill="#ED5238"/>
<path d="M12.6644 5.4306C12.547 5.55393 12.5546 5.6956 12.5547 5.83533C12.5548 6.49619 12.5547 7.15705 12.5302 7.84437C11.9884 7.83362 11.4809 7.8902 10.9822 8.03049C10.9643 7.88528 10.9323 7.74021 10.9309 7.59485C10.9253 6.97165 10.9287 6.34835 10.929 5.70145C11.4331 5.29334 11.9371 4.90887 12.4443 4.52197C12.5202 4.8343 12.5904 5.12268 12.6644 5.4306Z" fill="#F15A38"/>
<path d="M17.6975 14.8643C18.1497 14.8244 18.2832 14.5198 18.2921 14.0811C18.6497 14.2587 18.9751 14.4204 19.3193 14.5914C19.2971 14.6939 19.2799 14.7862 19.2572 14.8771C18.9967 15.9192 18.7355 16.9612 18.4742 18.0032C18.4636 18.0455 18.4462 18.0867 18.4399 18.1295C18.4229 18.2449 18.3585 18.2941 18.2429 18.2913C18.0595 18.2867 17.876 18.2877 17.6685 18.2587C17.6441 17.874 17.6438 17.517 17.6436 17.1599C17.6632 17.0878 17.6984 17.016 17.6997 16.9435C17.7049 16.6471 17.6998 16.3504 17.6963 16.0048C17.6953 15.5919 17.6964 15.2281 17.6975 14.8643Z" fill="#F99E3F"/>
<path d="M21.2511 5.82085C21.2453 5.96383 21.2142 6.09277 21.2128 6.22203C21.2069 6.7378 21.2123 7.25368 21.2085 7.76948C21.2078 7.86329 21.1836 7.95693 21.1363 8.06653C20.6126 7.89853 20.1029 7.84879 19.5845 7.85764C19.5844 6.89857 19.5824 5.93948 19.5869 4.98042C19.5874 4.88242 19.6266 4.78461 19.6659 4.67773C20.2025 5.04816 20.721 5.42756 21.2511 5.82085Z" fill="#F7993E"/>
<path d="M7.77515 27.3156C7.95199 27.1587 7.99504 26.9578 7.99543 26.7289C7.99671 25.9787 8.07569 25.2387 8.36064 24.5273C8.41163 24.6609 8.45927 24.7947 8.45954 24.9286C8.46429 27.2816 8.46326 29.6346 8.46348 31.9875C8.26965 31.9901 8.07582 31.9926 7.85795 31.9676C7.83371 30.5534 7.83533 29.1666 7.83076 27.7799C7.83025 27.6251 7.79454 27.4703 7.77515 27.3156Z" fill="#F57F3C"/>
<path d="M11.0801 1.03373C11.3093 0.821079 11.5385 0.608433 11.7662 0.397217C11.9229 0.543838 12.6854 2.00978 12.9714 2.70549C12.4021 3.12918 11.8243 3.55918 11.2152 3.97805C11.1687 3.86549 11.141 3.76411 11.1405 3.66259C11.1367 2.94067 11.1418 2.21869 11.1358 1.4968C11.1345 1.3423 11.0995 1.18808 11.0801 1.03373Z" fill="#F7933E"/>
<path d="M8.48676 31.9915C8.46318 29.6347 8.46421 27.2818 8.45946 24.9288C8.45919 24.7949 8.41155 24.6611 8.37231 24.5125C8.45194 24.1393 8.64702 23.8365 8.88258 23.5439C8.97039 24.0737 9.01941 24.6007 9.03403 25.171C8.9911 25.4533 8.93948 25.6945 8.93872 25.9359C8.93236 27.9532 8.93534 29.9705 8.93551 31.9879C8.79371 31.9904 8.65191 31.9929 8.48676 31.9915Z" fill="#F7913D"/>
<path d="M23.2803 31.9914C23.2567 29.4107 23.256 26.8337 23.2581 24.2567C23.2582 24.1363 23.2841 24.0159 23.3072 23.8743C23.636 24.3398 23.787 24.8859 23.8609 25.4828C23.8243 25.5419 23.7934 25.5696 23.7908 25.5998C23.7673 25.8685 23.7321 26.1377 23.7314 26.4068C23.7265 28.267 23.7291 30.1273 23.7293 31.9876C23.5874 31.9901 23.4455 31.9926 23.2803 31.9914Z" fill="#F3683A"/>
<path d="M4.25586 27.9924C4.40669 27.8352 4.56053 27.6807 4.7074 27.5199C4.82182 27.3946 4.95898 27.4323 5.09238 27.44C5.15554 27.6299 5.17298 31.6354 5.10886 31.9958C4.86659 31.9958 4.61715 31.9958 4.3434 31.9681C4.3189 30.7609 4.32076 29.5813 4.3158 28.4017C4.31522 28.2652 4.27676 28.1288 4.25586 27.9924Z" fill="#F5A03F"/>
<path d="M7.09998 31.9879C6.83959 31.9879 6.5792 31.9879 6.29281 31.9879C6.28552 31.894 6.27343 31.81 6.27333 31.726C6.27204 30.6619 6.27605 29.5977 6.26882 28.5335C6.26767 28.364 6.31993 28.2567 6.46517 28.1724C6.65341 28.063 6.83141 27.936 7.0352 27.8328C7.07075 27.9785 7.09687 28.108 7.09722 28.2376C7.10062 29.4877 7.09968 30.7378 7.09998 31.9879Z" fill="#ED5238"/>
<path d="M24.939 27.8469C25.1763 27.9881 25.4164 28.1248 25.6481 28.2746C25.687 28.2997 25.7063 28.3809 25.7064 28.4363C25.7086 29.5874 25.7069 30.7384 25.7048 31.8895C25.7047 31.9139 25.6907 31.9382 25.6731 31.9955C25.4305 31.9955 25.1812 31.9955 24.9076 31.9678C24.8831 30.7034 24.8812 29.4667 24.8851 28.2301C24.8855 28.1023 24.9202 27.9746 24.939 27.8469Z" fill="#F5A03F"/>
<path d="M7.12412 31.9914C7.09976 30.7377 7.1007 29.4876 7.0973 28.2375C7.09695 28.1079 7.07083 27.9784 7.05249 27.8276C7.27936 27.6476 7.5104 27.4888 7.75832 27.3228C7.79458 27.4703 7.83029 27.6251 7.8308 27.7799C7.83537 29.1666 7.83375 30.5533 7.83411 31.9639C7.60557 31.9901 7.37688 31.9926 7.12412 31.9914Z" fill="#F3683A"/>
<path d="M7.34547 2.77848C7.25461 2.86906 7.16376 2.95964 7.07366 3.04947C6.91664 2.89954 5.6167 0.323354 5.54492 0.0274739C5.8205 -0.0201397 6.09671 0.0096517 6.37076 0.00482895C6.64982 -8.34787e-05 6.92907 0.00576949 7.23246 0.0345011C7.25653 0.874469 7.25531 1.68685 7.25761 2.49922C7.25789 2.59851 7.22226 2.71526 7.34547 2.77848Z" fill="#F15A38"/>
<path d="M27.5063 31.9875C27.2982 31.9875 27.09 31.9875 26.8862 31.9875C26.8237 31.775 26.8169 27.7053 26.8755 27.4562C27.0574 27.3984 27.2127 27.4276 27.3413 27.5838C27.4243 27.6846 27.5213 27.7738 27.6001 27.8927C27.4673 27.9955 27.5076 28.1197 27.5074 28.2269C27.505 29.4804 27.5061 30.734 27.5063 31.9875Z" fill="#EF4C37"/>
<path d="M11.0636 1.04077C11.0996 1.18805 11.1345 1.34227 11.1358 1.49677C11.1418 2.21866 11.1367 2.94064 11.1405 3.66257C11.141 3.76409 11.1687 3.86547 11.1991 3.98494C10.8886 4.24744 10.5628 4.49191 10.2166 4.72369C10.1781 4.56522 10.1453 4.41957 10.1441 4.27364C10.137 3.47327 10.1377 2.67282 10.1357 1.87241C10.4395 1.59755 10.7433 1.3227 11.0636 1.04077Z" fill="#F57F3C"/>
<path d="M18.3556 19.4348C18.379 20.075 18.3805 20.7092 18.3755 21.3434C18.3747 21.4443 18.345 21.545 18.3119 21.6628C18.2349 21.5578 18.1342 21.6063 18.0468 21.627C17.7702 21.6922 17.4951 21.7634 17.1986 21.8344C17.1581 21.7187 17.1224 21.6009 17.1214 21.4827C17.1158 20.8169 17.1187 20.1511 17.1185 19.463C17.5227 19.4367 17.9271 19.4328 18.3556 19.4348Z" fill="#F6873C"/>
<path d="M12.3939 11.9476C12.395 12.3082 12.3928 12.6689 12.3993 13.0294C12.4013 13.1392 12.4274 13.2485 12.4518 13.3804C12.3153 13.4805 12.1734 13.5673 12.022 13.632C11.9478 13.6637 11.8526 13.6739 11.773 13.6598C11.4479 13.6023 11.1251 13.5317 10.7844 13.4569C10.7685 12.8273 10.7687 12.2066 10.7721 11.5859C10.7727 11.4763 10.745 11.3513 10.9074 11.3013C11.0859 11.7281 11.4157 11.9201 11.8248 11.9782C12.0093 12.0044 12.2039 11.96 12.3939 11.9476Z" fill="#EF5638"/>
<path d="M23.7528 31.9915C23.729 30.1273 23.7264 28.2671 23.7313 26.4068C23.732 26.1377 23.7672 25.8686 23.7907 25.5998C23.7933 25.5697 23.8242 25.542 23.8595 25.5039C23.9136 25.8959 23.9787 26.2972 23.9779 26.6984C23.9773 27.0166 24.0685 27.2471 24.3404 27.4309C24.3086 27.5842 24.2574 27.7084 24.2569 27.8327C24.2516 29.2176 24.254 30.6026 24.2543 31.9876C24.095 31.9901 23.9357 31.9927 23.7528 31.9915Z" fill="#F37A3B"/>
<path d="M8.95967 31.9919C8.93555 29.9705 8.93256 27.9532 8.93893 25.9359C8.93968 25.6945 8.9913 25.4533 9.03163 25.1948C9.07373 25.4366 9.10968 25.695 9.13233 25.9546C9.24598 27.257 9.35583 28.5596 9.46764 29.8621C9.51982 30.47 9.57445 31.0776 9.62528 31.6855C9.63308 31.7787 9.62637 31.8731 9.62637 31.9959C9.3955 31.9959 9.18956 31.9959 8.95967 31.9919Z" fill="#F5A03F"/>
<path d="M24.2782 31.9914C24.2541 30.6026 24.2516 29.2177 24.257 27.8327C24.2575 27.7084 24.3087 27.5842 24.3509 27.4453C24.5536 27.5581 24.7416 27.6856 24.9343 27.83C24.9203 27.9747 24.8856 28.1023 24.8852 28.2301C24.8813 29.4668 24.8832 30.7035 24.8835 31.964C24.6898 31.9902 24.4959 31.9927 24.2782 31.9914Z" fill="#F58D3D"/>
<path d="M16.0827 4.77808C15.9998 5.01251 15.9974 5.24609 16.0454 5.49223C16.1472 6.01337 15.7983 6.70498 15.423 6.85977C15.3102 6.65021 15.1965 6.43911 15.0791 6.18843C15.092 5.98439 15.1218 5.82002 15.123 5.65547C15.1279 4.92116 15.1247 4.1868 15.1244 3.45246C15.3883 3.44959 15.6522 3.44672 15.9404 3.47378C15.9647 3.8422 15.964 4.18071 15.9654 4.5192C15.9659 4.62172 15.9488 4.73486 16.0827 4.77808Z" fill="#F3713B"/>
<path d="M21.2113 11.8131C21.2116 12.3399 21.212 12.8667 21.2131 13.4192C20.8681 13.5205 20.5229 13.5982 20.1762 13.669C20.1208 13.6803 20.0528 13.6746 20.0014 13.6521C19.8519 13.5867 19.7078 13.5089 19.5471 13.4234C19.6324 12.9278 19.5611 12.4387 19.5868 11.9532C19.592 11.8553 19.6298 11.7591 19.6816 11.6682C19.8034 11.7344 19.8922 11.8022 19.9896 11.8535C20.4032 12.0711 20.8111 12.0395 21.2113 11.8131Z" fill="#F7993E"/>
<path d="M7.35768 2.76481C7.22235 2.71531 7.25798 2.59856 7.2577 2.49927C7.2554 1.6869 7.25662 0.874519 7.25684 0.0386672C7.62572 0.0124026 7.99452 0.00961297 8.38745 0.0346369C8.41129 0.504709 8.40593 0.94706 8.41394 1.38917C8.41623 1.51584 8.45716 1.64181 8.48038 1.76811C8.11019 2.09577 7.74 2.42343 7.35768 2.76481Z" fill="#F4743B"/>
<path d="M4.24031 28.0015C4.27678 28.129 4.31525 28.2653 4.31582 28.4019C4.32079 29.5814 4.31893 30.761 4.31923 31.9644C4.09073 31.9906 3.8621 31.993 3.60922 31.9679C3.58514 30.8107 3.58531 29.681 3.58548 28.5513C3.79857 28.371 4.01165 28.1907 4.24031 28.0015Z" fill="#F58D3D"/>
<path d="M15.1003 3.44819C15.1246 4.18676 15.1278 4.92112 15.1228 5.65542C15.1217 5.81998 15.0919 5.98434 15.0732 6.17112C14.7669 5.80831 14.4112 5.48539 13.9941 5.21974C13.6044 4.9715 13.5329 4.67461 13.7737 4.28461C13.9406 4.01418 14.1648 3.77754 14.3765 3.53737C14.4259 3.48134 14.5268 3.45263 14.607 3.44568C14.7623 3.43222 14.9198 3.44314 15.1003 3.44819Z" fill="#EE5939"/>
<path d="M28.1931 28.4817C28.3825 28.5293 28.5691 28.6109 28.7978 28.5447C28.841 28.6823 28.8673 28.8026 28.8677 28.9229C28.8712 29.9445 28.8701 30.9662 28.8703 31.9878C28.6416 31.9902 28.4129 31.9927 28.16 31.9676C28.1356 30.8959 28.1338 29.8518 28.1379 28.8078C28.1384 28.699 28.1739 28.5904 28.1931 28.4817Z" fill="#F3713B"/>
<path d="M28.8927 31.9913C28.8699 30.9659 28.8711 29.9443 28.8675 28.9226C28.8671 28.8023 28.8408 28.6821 28.8171 28.5405C29.0433 28.2982 29.2788 28.0772 29.5314 27.8735C29.5495 28.659 29.5506 29.4273 29.5513 30.1955C29.5514 30.3448 29.5427 30.4965 29.6847 30.5985C29.5529 31.0551 29.421 31.5116 29.2814 31.995C29.1522 31.995 29.0338 31.995 28.8927 31.9913Z" fill="#F6873C"/>
<path d="M20.2797 0.479736C20.565 0.728765 20.8503 0.977793 21.1236 1.25264C21.0921 1.37706 21.0563 1.47554 21.0557 1.57426C21.0498 2.45299 21.0501 3.33175 21.0485 4.2105C20.7751 4.01024 20.5016 3.80998 20.2229 3.57339C20.2338 3.39927 20.2627 3.2616 20.264 3.12367C20.2726 2.24239 20.2752 1.36105 20.2797 0.479736Z" fill="#F16439"/>
<path d="M25.1431 2.67411C25.0872 2.79815 25.0314 2.92219 24.9566 3.08801C24.6458 2.80982 24.3638 2.55747 24.0886 2.27314C24.113 2.14091 24.1451 2.04075 24.1458 1.94036C24.1508 1.2987 24.149 0.656987 24.1494 0.0152919C24.4304 0.012403 24.7113 0.00951413 25.0165 0.0343772C25.0404 0.834863 25.0388 1.6076 25.0417 2.38032C25.0421 2.48599 24.9998 2.61441 25.1431 2.67411Z" fill="#F6873C"/>
<path d="M28.1874 28.4648C28.1738 28.5903 28.1383 28.6989 28.1378 28.8077C28.1337 29.8517 28.1355 30.8958 28.1358 31.9637C27.942 31.99 27.748 31.9926 27.5301 31.9914C27.5061 30.7341 27.5049 29.4805 27.5074 28.227C27.5076 28.1199 27.4673 27.9956 27.6084 27.9087C27.813 28.0828 27.9974 28.2654 28.1874 28.4648Z" fill="#F26039"/>
<path d="M22.7424 2.66821C23.2404 3.10664 23.7386 3.54496 24.2358 3.98423C24.2472 3.99425 24.2489 4.01517 24.2614 4.04712C24.2415 4.07363 24.2199 4.11071 24.1906 4.1401C23.7708 4.56079 23.3481 4.97849 22.9311 5.40183C22.837 5.49734 22.7553 5.54331 22.6406 5.39158C22.6474 5.19219 22.6759 5.02903 22.6773 4.86565C22.6828 4.2323 22.6769 3.59886 22.6824 2.96552C22.6833 2.86625 22.7215 2.76731 22.7424 2.66821Z" fill="#F7993E"/>
<path d="M10.1192 1.87964C10.1375 2.67269 10.1369 3.47313 10.1439 4.27351C10.1452 4.41944 10.1779 4.56509 10.2016 4.73539C9.93822 4.96085 9.66935 5.16179 9.37661 5.35198C9.33587 5.22228 9.3053 5.10343 9.30442 4.98437C9.29961 4.33393 9.30267 3.68344 9.30157 3.03297C9.30137 2.91334 9.32163 2.7856 9.20264 2.70043C9.50268 2.42929 9.80273 2.15814 10.1192 1.87964Z" fill="#F3683A"/>
<path d="M22.7335 2.65301C22.7214 2.76742 22.6832 2.86636 22.6823 2.96563C22.6768 3.59897 22.6827 4.23241 22.6773 4.86576C22.6759 5.02914 22.6474 5.1923 22.6299 5.37735C22.356 5.19814 22.0834 4.99714 21.8015 4.76048C21.8081 4.56107 21.8365 4.39742 21.8378 4.23355C21.8431 3.57224 21.8369 2.91083 21.8433 2.24954C21.8443 2.14231 21.8874 2.03548 21.9111 1.92847C22.1823 2.16488 22.4535 2.40129 22.7335 2.65301Z" fill="#F6873C"/>
<path d="M9.18849 2.70825C9.32166 2.78577 9.3014 2.91351 9.3016 3.03314C9.3027 3.68361 9.29964 4.3341 9.30445 4.98453C9.30533 5.1036 9.3359 5.22245 9.36268 5.36447C9.31931 5.43006 9.26602 5.47259 9.2183 5.51067C8.72396 5.0036 8.24086 4.50806 7.73364 3.98776C8.19811 3.57772 8.68621 3.14682 9.18849 2.70825Z" fill="#F15A38"/>
<path d="M21.9014 1.91349C21.8873 2.03542 21.8442 2.14225 21.8431 2.24948C21.8368 2.91077 21.843 3.57218 21.8377 4.23349C21.8364 4.39736 21.808 4.56101 21.7907 4.74645C21.5491 4.59146 21.3087 4.41478 21.0584 4.22438C21.0499 3.3319 21.0496 2.45314 21.0555 1.57442C21.0562 1.47569 21.092 1.37721 21.1288 1.26904C21.3946 1.47251 21.6432 1.68554 21.9014 1.91349Z" fill="#F4743B"/>
<path d="M5.27327 2.19727C5.31687 2.26061 5.36831 2.31997 5.40282 2.38792C5.64299 2.86084 5.87463 3.33818 6.12058 3.80804C6.19243 3.94528 6.19832 4.05521 6.12537 4.19447C5.88331 4.65655 5.65516 5.12589 5.41939 5.59128C5.38868 5.6519 5.34453 5.70572 5.27047 5.7597C5.20958 5.70458 5.17217 5.65453 5.16309 5.59979C5.15045 5.52352 5.15858 5.44374 5.15857 5.36546C5.15847 4.42605 5.15792 3.48665 5.1592 2.54724C5.15938 2.41975 5.13134 2.27993 5.27327 2.19727Z" fill="#F28A3D"/>
<path d="M20.2704 0.465901C20.2752 1.36104 20.2726 2.24238 20.264 3.12365C20.2627 3.26159 20.2338 3.39925 20.2126 3.55967C19.808 3.29033 19.4085 2.99836 19.0015 2.70094C19.0921 2.51616 19.1677 2.35992 19.2452 2.20461C19.5101 1.67333 19.7756 1.1423 20.0414 0.611432C20.0687 0.556905 20.09 0.493998 20.1323 0.454497C20.1556 0.43271 20.2169 0.451556 20.2704 0.465901Z" fill="#ED5238"/>
<path d="M3.56663 28.5508C3.58539 29.6809 3.58522 30.8105 3.58524 31.964C3.39141 31.9903 3.19739 31.9928 2.97936 31.9677C2.95519 31.0066 2.95112 30.0731 2.95757 29.1397C2.95924 28.8971 2.99377 28.6548 3.01321 28.4124C3.16171 28.5732 3.35242 28.5706 3.56663 28.5508Z" fill="#F37A3B"/>
<path d="M25.3547 9.70161C25.007 9.70161 24.6592 9.70161 24.2806 9.70161C24.1441 9.15298 24.0083 8.60763 23.8611 8.01592C24.37 8.01565 24.8379 8.01539 25.3302 8.04401C25.3545 8.6158 25.3546 9.1587 25.3547 9.70161Z" fill="#EF5638"/>
<path d="M26.5859 2.39849C26.7717 2.01583 26.9574 1.63316 27.1432 1.25049C27.1596 1.25336 27.176 1.25623 27.1925 1.2591C27.2105 1.35064 27.2286 1.44218 27.2288 1.56571C27.1868 1.69564 27.142 1.79348 27.1417 1.8915C27.1369 3.1299 27.1367 4.36833 27.1415 5.60673C27.142 5.72523 27.184 5.84356 27.2067 5.96197C27.1334 6.07513 27.0601 6.1883 26.9618 6.34017C26.7984 6.10565 26.7085 5.87898 26.613 5.62538C26.6374 5.51346 26.6639 5.43766 26.6642 5.36178C26.6671 4.46246 26.6683 3.56311 26.6625 2.66382C26.662 2.57522 26.6126 2.48693 26.5859 2.39849Z" fill="#F57D3C"/>
<path d="M25.1554 2.66026C24.9997 2.61441 25.042 2.48599 25.0416 2.38032C25.0387 1.6076 25.0403 0.834864 25.0406 0.0386334C25.503 0.0151367 25.9653 0.0151367 26.4621 0.0151367C26.4181 0.124049 26.3863 0.220812 26.3415 0.311071C26.0109 0.976286 25.6778 1.64032 25.345 2.30442C25.2874 2.41918 25.2269 2.53245 25.1554 2.66026Z" fill="#F7993E"/>
<path d="M3.00467 28.398C2.99358 28.655 2.95905 28.8973 2.95737 29.1398C2.95093 30.0733 2.95499 31.0068 2.95529 31.9641C2.87918 31.9878 2.80291 31.9878 2.70205 31.9878C2.56834 31.5339 2.43645 31.0862 2.31763 30.6006C2.34632 30.4611 2.3748 30.3596 2.37549 30.2578C2.37972 29.6376 2.37241 29.0173 2.3809 28.3972C2.38337 28.2162 2.42483 28.0359 2.44843 27.8552C2.63106 28.0313 2.81369 28.2074 3.00467 28.398Z" fill="#F3683A"/>
<path d="M5.27142 2.17785C5.13149 2.27995 5.15952 2.41977 5.15935 2.54726C5.15806 3.48667 5.15862 4.42607 5.15872 5.36548C5.15873 5.44376 5.1506 5.52354 5.16324 5.59981C5.17231 5.65455 5.20973 5.7046 5.2539 5.76525C5.26302 5.97236 5.15406 6.12732 5.0471 6.30768C4.86258 6.16712 4.76716 5.97309 4.64864 5.77907C4.68577 5.67023 4.73439 5.59086 4.73478 5.51125C4.73982 4.45682 4.73792 3.40236 4.73833 2.34791C4.73837 2.24866 4.72835 2.15524 4.63306 2.0967C4.68157 1.81771 4.73009 1.53872 4.77861 1.25973C4.79946 1.25689 4.82031 1.25406 4.84116 1.25122C4.98391 1.55362 5.12667 1.85602 5.27142 2.17785Z" fill="#F3713B"/>
<path d="M27.2203 5.9496C27.1839 5.84344 27.1419 5.7251 27.1415 5.60661C27.1366 4.36821 27.1368 3.12977 27.1416 1.89137C27.142 1.79336 27.1867 1.69551 27.2272 1.58521C27.3035 1.84483 27.3672 2.11611 27.423 2.389C27.5867 3.18972 27.7454 3.99148 27.9108 4.79184C27.941 4.93796 27.9272 5.05788 27.8272 5.17854C27.6224 5.42562 27.4309 5.68376 27.2203 5.9496Z" fill="#F7933E"/>
<path d="M14.5214 18.2821C14.4972 17.9206 14.497 17.5644 14.4971 17.1841C15.0404 17.1574 15.5835 17.1549 16.1508 17.1805C16.175 17.5643 16.175 17.9201 16.175 18.2758C15.6318 18.2796 15.0886 18.2834 14.5214 18.2821Z" fill="#F3713B"/>
<path d="M8.49647 1.7591C8.45701 1.64169 8.41609 1.51571 8.41379 1.38904C8.40578 0.946933 8.41114 0.504582 8.41162 0.0388519C9.07362 0.0153809 9.73544 0.0153809 10.4353 0.0153809C10.3783 0.0830548 10.3431 0.137333 10.2964 0.178289C9.72585 0.677682 9.15352 1.17499 8.58221 1.67347C8.55638 1.696 8.53576 1.7245 8.49647 1.7591Z" fill="#F7913D"/>
<path d="M25.3791 9.70488C25.3547 9.1586 25.3546 8.61569 25.3545 8.04803C25.7232 8.02041 26.0919 8.01754 26.4848 8.0439C26.5091 8.58183 26.5092 9.09054 26.5093 9.59925C26.2466 9.71197 25.9683 9.7113 25.6902 9.71126C25.5946 9.71125 25.499 9.70932 25.3791 9.70488Z" fill="#F4743B"/>
<path d="M26.5292 9.59876C26.5092 9.09052 26.5091 8.58181 26.509 8.04839C27.098 8.02368 27.6869 8.02368 28.279 8.02368C28.1632 8.64471 27.3626 9.3661 26.5292 9.59876Z" fill="#F7933E"/>
<path d="M29.6929 30.5817C29.5428 30.4965 29.5515 30.3449 29.5514 30.1955C29.5507 29.4273 29.5496 28.6591 29.5474 27.8651C29.5736 27.806 29.5988 27.7706 29.6288 27.7396C29.9601 27.3969 30.0977 27.3578 30.62 27.4671C30.6006 27.5502 30.5856 27.634 30.5613 27.7151C30.3671 28.3646 30.1713 29.0136 29.9755 29.6626C29.8846 29.9635 29.7925 30.264 29.6929 30.5817Z" fill="#F7993E"/>
<path d="M24.1249 0.0112425C24.1488 0.657168 24.1507 1.29888 24.1457 1.94054C24.1449 2.04093 24.1128 2.14109 24.0781 2.25868C23.7641 2.01572 23.4674 1.75543 23.1658 1.45885C23.1751 1.31077 23.1998 1.19916 23.2015 1.08718C23.2072 0.729805 23.2044 0.372298 23.2049 0.0148437C23.5034 0.0122335 23.802 0.00962233 24.1249 0.0112425Z" fill="#F3713B"/>
<path d="M2.44184 27.8413C2.4249 28.0356 2.38343 28.216 2.38096 28.397C2.37248 29.0171 2.37978 29.6374 2.37556 30.2576C2.37486 30.3594 2.34639 30.4609 2.3144 30.58C2.10083 29.9557 1.90284 29.3142 1.70672 28.6722C1.61244 28.3635 1.52031 28.0542 1.43018 27.7444C1.40421 27.6551 1.38859 27.5629 1.36011 27.4357C1.59263 27.4357 1.79144 27.4294 1.98934 27.44C2.04164 27.4428 2.0979 27.4906 2.14056 27.5304C2.24251 27.6255 2.33744 27.728 2.44184 27.8413Z" fill="#EF5638"/>
<path d="M16.199 18.2813C16.175 17.9201 16.1749 17.5643 16.1751 17.1845C16.6485 17.1575 17.1218 17.1545 17.6194 17.1558C17.644 17.5171 17.6443 17.8741 17.6452 18.2535C17.1716 18.2795 16.6973 18.2832 16.199 18.2813Z" fill="#F6873C"/>
<path d="M16.9086 3.45257C17.0131 3.44808 17.1194 3.45433 17.2217 3.43696C17.4665 3.3954 17.615 3.5202 17.7415 3.70601C18.0929 4.22224 18.1857 4.77365 17.98 5.41385C17.6162 5.1682 17.2717 4.9356 16.9174 4.66404C16.9079 4.23426 16.9082 3.84341 16.9086 3.45257Z" fill="#F5A03F"/>
<path d="M12.1878 31.9883C11.7366 31.9883 11.2855 31.9883 10.8037 31.9883C10.7713 31.6134 10.7403 31.2538 10.7063 30.8605C11.2048 30.839 11.6723 30.8494 12.1636 30.8797C12.1878 31.2677 12.1878 31.628 12.1878 31.9883Z" fill="#EE5939"/>
<path d="M6.94141 8.02368C7.32141 8.02368 7.70142 8.02368 8.1182 8.02368C7.97683 8.59665 7.8425 9.14107 7.70247 9.70863C7.45533 9.70863 7.22278 9.70863 6.96593 9.68061C6.94155 9.10962 6.94148 8.56665 6.94141 8.02368Z" fill="#F99E3F"/>
<path d="M26.575 2.41187C26.6126 2.48669 26.6619 2.57498 26.6625 2.66358C26.6682 3.56288 26.667 4.46222 26.6641 5.36154C26.6639 5.43742 26.6373 5.51322 26.6077 5.60662C26.3364 5.12092 26.082 4.61685 25.8229 4.11517C25.7764 4.0251 25.7959 3.95095 25.837 3.86974C26.0803 3.38878 26.3219 2.90698 26.575 2.41187Z" fill="#F26039"/>
<path d="M5.99805 9.69871C5.67379 9.69544 5.374 9.5964 5.06801 9.42818C5.05337 8.93562 5.05329 8.47955 5.05322 8.02349C5.36922 8.02067 5.68522 8.01784 6.02547 8.04406C6.0497 8.47879 6.05395 8.88454 6.04733 9.2901C6.0451 9.42654 6.01527 9.56252 5.99805 9.69871Z" fill="#F3713B"/>
<path d="M4.62321 2.11401C4.72827 2.15523 4.73829 2.24866 4.73825 2.3479C4.73784 3.40235 4.73974 4.45682 4.7347 5.51125C4.73432 5.59085 4.68569 5.67023 4.64244 5.76214C4.45491 5.55492 4.28673 5.33344 4.11288 5.11649C4.0376 5.02255 4.04807 4.92226 4.06897 4.81874C4.24993 3.92283 4.43182 3.02711 4.62321 2.11401Z" fill="#EE5939"/>
<path d="M6.02228 9.70298C6.01535 9.56231 6.04519 9.42633 6.04741 9.2899C6.05403 8.88433 6.04979 8.47858 6.04979 8.04818C6.33095 8.02039 6.6121 8.01733 6.91742 8.01888C6.94165 8.56647 6.94172 9.10944 6.94187 9.6768C6.64345 9.70328 6.34494 9.70537 6.02228 9.70298Z" fill="#F6873C"/>
<path d="M20.0062 30.8608C20.4147 30.8608 20.8232 30.8608 21.2583 30.8608C21.2712 31.2462 21.2126 31.611 21.1726 31.9946C20.7854 31.9946 20.4199 31.9946 20.0297 31.9673C20.0055 31.5802 20.0058 31.2205 20.0062 30.8608Z" fill="#F7993E"/>
<path d="M31.5452 2.88257C31.6825 2.88257 31.8199 2.88257 31.9733 2.88257C31.9733 3.92622 31.9733 4.95217 31.9733 6.04005C31.8154 5.88132 31.6911 5.75649 31.5571 5.59266C31.5465 4.6633 31.5459 3.77294 31.5452 2.88257Z" fill="#F7993E"/>
<path d="M18.9035 31.9882C18.5143 31.9882 18.1252 31.9882 17.719 31.9882C17.719 31.6094 17.719 31.2557 17.719 30.8633C18.0964 30.8344 18.476 30.8517 18.879 30.8797C18.9032 31.2676 18.9034 31.6279 18.9035 31.9882Z" fill="#ED5238"/>
<path d="M14.3127 16.0055C14.2875 15.6412 14.2868 15.276 14.2861 14.8875C14.6513 14.8643 15.0165 14.8643 15.3774 14.8643C15.4382 15.0647 15.4475 15.6768 15.3913 15.9976C15.0453 15.9999 14.6912 16.0023 14.3127 16.0055Z" fill="#F16439"/>
<path d="M17.6733 14.8599C17.6966 15.2281 17.6954 15.5919 17.6937 15.9807C17.3277 16.0057 16.9623 16.0057 16.5641 16.0057C16.5507 15.6166 16.5546 15.2552 16.5616 14.8555C16.94 14.8555 17.2945 14.8555 17.6733 14.8599Z" fill="#F28A3D"/>
<path d="M12.2123 31.9919C12.1879 31.6282 12.1879 31.2679 12.188 30.8841C12.5567 30.8577 12.9252 30.8548 13.3178 30.8796C13.3419 31.2678 13.3419 31.6281 13.342 31.9884C12.9735 31.9907 12.6051 31.993 12.2123 31.9919Z" fill="#F57F3C"/>
<path d="M23.1805 0.0105132C23.2044 0.372134 23.2072 0.729641 23.2016 1.08701C23.1998 1.19899 23.1751 1.31061 23.1568 1.44365C22.6379 1.01185 22.123 0.558986 21.6093 0.104889C21.5925 0.0900972 21.5869 0.0628016 21.5583 0.00634766C22.106 0.00634766 22.6311 0.00634767 23.1805 0.0105132Z" fill="#EE5939"/>
<path d="M29.5527 6.85597C29.0591 6.85597 28.5655 6.85597 28.043 6.85597C28.0759 6.78625 28.0921 6.73064 28.1244 6.68679C28.3303 6.40687 28.5428 6.13173 28.7463 5.8501C28.8148 5.75538 28.8943 5.71516 29.0094 5.71985C29.1742 5.72657 29.3395 5.72338 29.5284 5.75204C29.5524 6.13843 29.5525 6.4972 29.5527 6.85597Z" fill="#F16439"/>
<path d="M18.9277 31.9916C18.9033 31.6279 18.9032 31.2677 18.9033 30.8839C19.2548 30.8577 19.606 30.8549 19.9817 30.8566C20.0057 31.2207 20.0054 31.5804 20.0054 31.9638C19.6545 31.9901 19.3032 31.9926 18.9277 31.9916Z" fill="#F37A3B"/>
<path d="M5.02897 8.01923C5.05337 8.47938 5.05344 8.93544 5.05364 9.416C4.43336 9.1785 4.00301 8.72268 3.71394 8.12386C3.70412 8.10352 3.71269 8.07429 3.71269 8.01514C4.14419 8.01514 4.57442 8.01514 5.02897 8.01923Z" fill="#EF5638"/>
<path d="M29.577 6.85967C29.5526 6.49733 29.5524 6.13855 29.5525 5.75627C29.8695 5.6691 30.1226 5.75052 30.3358 6.01159C30.5171 6.23365 30.7405 6.42125 30.944 6.62537C31.0037 6.68526 31.059 6.74951 31.141 6.83847C30.8576 6.89637 30.6079 6.86241 30.361 6.86715C30.1079 6.87201 29.8545 6.86504 29.577 6.85967Z" fill="#F28A3D"/>
<path d="M16.8843 3.44778C16.9081 3.84344 16.9078 4.23429 16.9069 4.65022C16.6243 4.53787 16.3602 4.56672 16.0981 4.76895C15.9487 4.73486 15.9657 4.62172 15.9653 4.5192C15.9639 4.1807 15.9646 3.8422 15.9644 3.47844C16.2629 3.44977 16.5615 3.44636 16.8843 3.44778Z" fill="#F6873C"/>
<path d="M13.3663 31.9919C13.342 31.628 13.3419 31.2677 13.3421 30.8838C13.5866 30.8563 13.8311 30.8476 14.0755 30.85C14.25 30.8517 14.2765 30.8773 14.2804 31.0459C14.2862 31.2991 14.2864 31.5527 14.28 31.8059C14.2758 31.9733 14.25 31.9957 14.072 31.9987C13.8449 32.0026 13.6177 31.997 13.3663 31.9919Z" fill="#F5A03F"/>
<path d="M0.332055 2.88217C0.439326 2.8793 0.546597 2.87644 0.676459 2.90269C0.699056 3.60374 0.696683 4.27569 0.70164 4.94758C0.702381 5.04805 0.737521 5.14826 0.756751 5.2486C0.65657 5.36276 0.556392 5.47691 0.423555 5.59098C0.371233 5.49201 0.335079 5.39323 0.334514 5.29425C0.329927 4.49024 0.332005 3.6862 0.332055 2.88217Z" fill="#F3713B"/>
<path d="M16.28 12.5916C16.5485 12.5916 16.8169 12.5916 17.1216 12.5916C17.1392 12.9586 17.1293 13.3181 17.1255 13.713C16.8455 13.713 16.5879 13.713 16.3059 13.6856C16.2811 13.3027 16.2805 12.9471 16.28 12.5916Z" fill="#F7993E"/>
<path d="M0.308722 2.87817C0.331945 3.68621 0.329867 4.49025 0.334454 5.29426C0.335019 5.39324 0.371172 5.49202 0.408301 5.6C0.308621 5.73231 0.191477 5.85552 0.0618224 5.99189C-0.00970174 5.76567 -0.0221105 3.20202 0.0401108 2.88756C0.117448 2.88334 0.201448 2.87876 0.308722 2.87817Z" fill="#ED5238"/>
<path d="M0.773711 5.24341C0.737515 5.14849 0.702375 5.04827 0.701633 4.9478C0.696677 4.27591 0.699049 3.60397 0.699083 2.90731C0.828613 2.88257 0.958105 2.88257 1.11832 2.88257C1.12413 2.97856 1.1342 3.07047 1.13451 3.16241C1.13614 3.64062 1.12313 4.11927 1.14042 4.59686C1.14909 4.83637 1.08661 5.01993 0.893076 5.15869C0.858014 5.18383 0.824765 5.2115 0.773711 5.24341Z" fill="#F7993E"/>
<path d="M31.5225 2.87836C31.5459 3.7731 31.5466 4.66346 31.548 5.57764C31.4324 5.48882 31.3161 5.37619 31.1899 5.22478C31.1794 4.41818 31.1788 3.65035 31.1782 2.88251C31.2855 2.87967 31.3927 2.87683 31.5225 2.87836Z" fill="#F4743B"/>
<path d="M16.2558 12.5873C16.2805 12.947 16.281 13.3026 16.2827 13.6797C16.0373 13.7053 15.7906 13.7094 15.5194 13.6861C15.4945 13.3029 15.4942 12.9471 15.4939 12.5913C15.7398 12.5886 15.9857 12.5859 16.2558 12.5873Z" fill="#F4743B"/>
<path d="M2.79911 5.73321C3.02938 5.68013 3.19246 5.75114 3.32322 5.95947C3.4708 6.1946 3.65434 6.40707 3.82038 6.63077C3.86512 6.69105 3.90314 6.75633 3.97268 6.86291C3.56851 6.86291 3.20803 6.86291 2.82304 6.83573C2.79872 6.4501 2.79891 6.09165 2.79911 5.73321Z" fill="#F7933E"/>
<path d="M2.11522 6.8563C1.70881 6.8563 1.3024 6.8563 0.857178 6.8563C0.904928 6.78637 0.926448 6.74196 0.959302 6.70876C1.24768 6.4174 1.53874 6.1287 1.8274 5.83761C1.89721 5.76721 1.96741 5.70485 2.09585 5.75206C2.11515 6.13839 2.11518 6.49734 2.11522 6.8563Z" fill="#EE5939"/>
<path d="M2.13945 6.85991C2.11526 6.49741 2.11522 6.13846 2.11523 5.75598C2.32717 5.72984 2.53906 5.72722 2.77503 5.72893C2.79893 6.09169 2.79874 6.45014 2.79884 6.83208C2.58729 6.85819 2.37544 6.86082 2.13945 6.85991Z" fill="#F37A3B"/>
<path d="M15.4697 12.5876C15.4942 12.9472 15.4945 13.303 15.496 13.6803C15.2908 13.7393 15.0856 13.7388 14.8684 13.6953C14.8684 13.3304 14.8684 12.977 14.8684 12.5847C15.0697 12.5843 15.2576 12.584 15.4697 12.5876Z" fill="#ED5238"/>
<path d="M31.155 2.87842C31.1789 3.65029 31.1795 4.41812 31.1809 5.20969C31.0988 5.15673 31.0088 5.08608 30.9355 5.00101C30.8934 4.95201 30.8549 4.8798 30.8546 4.81784C30.8517 4.19839 30.8569 3.57889 30.8609 2.95941C30.861 2.94391 30.8745 2.9285 30.8937 2.8874C30.964 2.88356 31.0479 2.87897 31.155 2.87842Z" fill="#ED5238"/>
<path d="M16.5044 31.988C16.5008 31.9769 16.5112 31.967 16.5322 31.9529C16.5433 31.9668 16.5351 31.9803 16.5044 31.988Z" fill="#F3713B"/>
<path d="M17.0479 19.4369C17.0557 19.4399 17.0322 19.4416 17.0284 19.4408C17.0246 19.4399 17.0401 19.4338 17.0479 19.4369Z" fill="#F6873C"/>
<path d="M14.5708 8.52434C14.5698 8.52291 14.5718 8.52578 14.5708 8.52434V8.52434Z" fill="#F16439"/>
<path d="M12.4071 11.9364C12.2039 11.9601 12.0093 12.0045 11.8248 11.9783C11.4157 11.9202 11.0859 11.7282 10.9261 11.2955C10.8602 11.0379 10.832 10.7963 10.8978 10.5533C11.0138 10.1244 11.3125 9.87983 11.738 9.73852C12.1609 9.67996 12.5231 9.77297 12.8112 10.0716C13.305 10.5834 13.2144 11.407 12.6252 11.809C12.5606 11.8531 12.4888 11.8867 12.4071 11.9364Z" fill="#504848"/>
<path d="M10.9683 8.0422C11.481 7.89033 11.9885 7.83375 12.5304 7.86902C12.7968 7.91956 13.0388 7.97203 13.3143 8.03178C13.1895 8.40893 13.0766 8.75046 12.9596 9.10432C12.5114 9.02809 12.0831 8.96393 11.6316 9.07128C11.3034 9.12584 11.1819 9.18276 10.7022 9.5045C10.5306 9.41535 10.1113 9.01271 9.90796 8.73512C10.1854 8.40253 10.5631 8.21821 10.9683 8.0422Z" fill="#504848"/>
<path d="M21.2237 11.8001C20.8111 12.0395 20.4032 12.0711 19.9896 11.8535C19.8922 11.8022 19.8034 11.7345 19.7002 11.6597C19.6672 11.5995 19.6479 11.5518 19.6215 11.5085C19.1973 10.813 19.4745 10.0366 20.2437 9.76867C20.2763 9.75729 20.3098 9.74818 20.3584 9.72852C20.5366 9.73638 20.7051 9.7322 20.861 9.77467C21.7192 10.0086 21.9846 11.0498 21.3526 11.6827C21.3158 11.7195 21.2751 11.7524 21.2237 11.8001Z" fill="#504848"/>
<path d="M19.5629 7.86252C20.103 7.84871 20.6127 7.89845 21.1219 8.08365C21.357 8.21326 21.5767 8.33537 21.7866 8.47244C21.8931 8.54202 21.9821 8.63858 22.1027 8.74357C21.8263 9.03184 21.557 9.29421 21.3205 9.52985C21.0044 9.36836 20.7328 9.22962 20.4428 9.0901C19.9684 8.95267 19.513 9.01798 19.0267 9.10699C18.9111 8.76249 18.7966 8.42105 18.6746 8.05742C18.9578 7.91095 19.257 7.92007 19.5629 7.86252Z" fill="#504848"/>
<path d="M87.0933 6.48409C88.4018 9.56268 89.7024 12.6257 91.0025 15.689C91.035 15.7655 91.0684 15.8428 91.09 15.9228C91.1792 16.2548 90.9128 16.6335 90.5701 16.6644C90.5099 16.6698 90.4488 16.6679 90.3881 16.6679C86.6696 16.668 82.9511 16.667 79.2325 16.6703C78.9852 16.6706 78.7879 16.5999 78.648 16.3902C78.5392 16.227 78.5112 16.054 78.5876 15.8717C78.7722 15.4313 78.9551 14.9901 79.1485 14.5536C79.2423 14.3418 79.4258 14.2387 79.6523 14.215C79.7274 14.2071 79.8039 14.2123 79.8798 14.2123C82.3614 14.2122 84.8429 14.2122 87.3245 14.2122C87.4148 14.2122 87.5051 14.2122 87.6311 14.2122C86.699 11.9833 85.7773 9.77956 84.8367 7.53031C84.7773 7.66085 84.739 7.73938 84.7053 7.81985C84.0054 9.49087 83.3061 11.1621 82.6066 12.8333C82.4306 13.2537 82.3 13.3422 81.8518 13.3429C81.4724 13.3436 81.0929 13.3431 80.7135 13.3431C80.6831 13.3431 80.6528 13.3436 80.6224 13.3428C80.0926 13.3297 79.8303 12.93 80.0311 12.4344C80.1563 12.1253 80.2902 11.8197 80.4211 11.513C81.4207 9.17032 82.4208 6.82789 83.4195 4.48488C83.4827 4.33679 83.54 4.17834 83.6897 4.10361C83.8007 4.04824 83.9319 4.00918 84.0551 4.00661C84.5633 3.99603 85.072 4.00757 85.5803 4.00011C85.8925 3.99553 86.0957 4.13083 86.2154 4.41685C86.5022 5.10209 86.795 5.78481 87.0933 6.48409Z" fill="#4D4848"/>
<path d="M96.9647 5.96427C96.9647 5.5544 96.9646 5.1673 96.9648 4.7802C96.9648 4.72708 96.963 4.67376 96.9668 4.62086C96.9938 4.24077 97.234 4.00993 97.6174 4.00308C97.8981 3.99806 98.179 4.00188 98.4599 4.00187C99.8792 4.00185 101.299 4.00183 102.718 4.00194C102.794 4.00194 102.87 3.9994 102.946 4.00422C103.264 4.02452 103.506 4.2551 103.515 4.57468C103.527 5.01454 103.528 5.45522 103.516 5.89508C103.506 6.23662 103.257 6.46742 102.907 6.47091C102.3 6.47694 101.693 6.47285 101.085 6.47293C100.638 6.473 100.19 6.47295 99.7419 6.47295C99.6682 6.47295 99.5945 6.47295 99.4983 6.47295C99.4983 6.58636 99.4983 6.67544 99.4983 6.76453C99.4983 9.8082 99.4983 12.8519 99.4983 15.8955C99.4983 15.9638 99.494 16.0324 99.4988 16.1004C99.525 16.4711 99.2096 16.7937 98.8342 16.7719C98.4258 16.7482 98.0148 16.7692 97.605 16.7657C97.2338 16.7625 96.9942 16.5348 96.9671 16.1654C96.9616 16.0899 96.9648 16.0137 96.9648 15.9378C96.9647 12.6209 96.9647 9.30396 96.9647 5.96427Z" fill="#4D4848"/>
<path d="M52.1377 7.01234C51.0949 7.73945 50.5846 8.74553 50.488 9.9787C50.4265 10.7628 50.5195 11.5242 50.8597 12.2417C51.3534 13.283 52.1521 13.9626 53.2731 14.2533C53.3171 14.2647 53.3611 14.2763 53.4047 14.289C53.7012 14.3758 53.8601 14.5762 53.8639 14.8873C53.8689 15.297 53.8695 15.7067 53.864 16.1163C53.8583 16.5441 53.5247 16.8196 53.1041 16.7426C52.4967 16.6315 51.9105 16.4478 51.3664 16.1548C49.8104 15.317 48.7506 14.0617 48.2451 12.3615C47.9377 11.3273 47.9096 10.2711 48.0686 9.20718C48.2373 8.07803 48.6792 7.07093 49.4108 6.19326C50.3906 5.01774 51.6264 4.27972 53.1403 4.02028C53.5533 3.94949 53.8558 4.19786 53.8633 4.62354C53.8706 5.04067 53.8691 5.45808 53.8638 5.87527C53.8599 6.18129 53.6996 6.38856 53.3998 6.46984C52.9581 6.58958 52.5338 6.74641 52.1377 7.01234Z" fill="#4D4848"/>
<path d="M72.9985 16.0788C72.4187 16.3935 71.8163 16.5941 71.1847 16.7049C70.7204 16.7863 70.411 16.5265 70.4056 16.0572C70.4011 15.6701 70.4022 15.2829 70.4054 14.8958C70.4084 14.5307 70.5586 14.3303 70.9157 14.2451C71.5485 14.0943 72.1159 13.823 72.5905 13.3728C73.2009 12.794 73.5695 12.0816 73.708 11.2576C73.8378 10.486 73.8371 9.71045 73.5847 8.96131C73.1545 7.68447 72.3074 6.83361 70.9785 6.502C70.5582 6.39713 70.4068 6.21075 70.4049 5.7817C70.4033 5.42494 70.4044 5.06817 70.4047 4.71141C70.4048 4.65832 70.4038 4.60481 70.4097 4.55221C70.4513 4.18265 70.7492 3.94729 71.1135 4.01893C73.6139 4.51052 75.2497 5.98601 76.0041 8.40792C76.4058 9.69734 76.3893 11.017 76.0196 12.3155C75.5451 13.9818 74.5075 15.2131 72.9985 16.0788Z" fill="#4D4848"/>
<path d="M68.0126 13.9577C68.2996 14.0586 68.5693 14.1588 68.8443 14.2416C69.1954 14.3473 69.3461 14.5314 69.3487 14.8989C69.3514 15.2782 69.3395 15.6579 69.352 16.0368C69.3676 16.5083 69.0319 16.7896 68.5471 16.7026C67.0997 16.4429 65.9175 15.7258 64.9673 14.6149C64.1015 13.6027 63.6312 12.4259 63.5114 11.1023C63.4058 9.93487 63.5144 8.79237 63.9896 7.71523C64.8591 5.7442 66.3414 4.50019 68.4664 4.05323C68.5479 4.0361 68.6298 4.01704 68.7124 4.01082C69.0472 3.98562 69.3244 4.19709 69.3387 4.52847C69.359 4.99793 69.3563 5.46922 69.3416 5.93905C69.3326 6.22581 69.1511 6.40885 68.8443 6.47932C68.2803 6.6089 67.7693 6.84327 67.3268 7.21981C66.6228 7.81887 66.192 8.57739 66.0418 9.48606C65.9116 10.2741 65.9377 11.0591 66.1922 11.824C66.508 12.7733 67.0969 13.4949 68.0126 13.9577Z" fill="#4D4848"/>
<path d="M99.5029 21.1547C98.653 21.1547 97.8259 21.1548 96.9988 21.1544C96.923 21.1544 96.8466 21.1566 96.7714 21.1486C96.5761 21.1279 96.4242 20.9917 96.4151 20.7973C96.4017 20.5096 96.4025 20.2205 96.4139 19.9326C96.4219 19.7299 96.5755 19.5828 96.7769 19.5559C96.8367 19.548 96.8981 19.5511 96.9587 19.5511C98.0742 19.5508 99.1897 19.549 100.305 19.552C100.692 19.553 101.076 19.5845 101.453 19.6911C102.506 19.9891 103.237 20.8684 103.338 21.9567C103.389 22.5036 103.34 23.0324 103.099 23.5324C102.862 24.0255 102.473 24.3628 101.984 24.5928C101.917 24.6244 101.849 24.6546 101.77 24.691C101.816 24.7672 101.854 24.8315 101.894 24.8936C102.387 25.6498 102.879 26.4064 103.375 27.1608C103.482 27.3249 103.578 27.4847 103.471 27.686C103.365 27.8857 103.18 27.9057 102.983 27.9049C102.725 27.9038 102.467 27.8993 102.21 27.9062C101.99 27.9121 101.84 27.8229 101.724 27.6352C101.231 26.843 100.73 26.056 100.232 25.2673C100.179 25.1841 100.125 25.1019 100.067 25.0125C99.4091 25.0125 98.7503 25.0125 98.0627 25.0125C98.0596 25.0927 98.054 25.1724 98.054 25.2521C98.0533 25.9654 98.0415 26.679 98.0585 27.3919C98.0671 27.7496 97.8597 27.9175 97.5482 27.9061C97.336 27.8983 97.1233 27.9073 96.9108 27.904C96.5523 27.8985 96.4095 27.7581 96.4091 27.4072C96.4079 26.2386 96.4162 25.07 96.4036 23.9015C96.4003 23.5906 96.5977 23.3961 96.9045 23.3998C98.0198 23.4132 99.1354 23.4108 100.251 23.4002C100.498 23.3978 100.751 23.3623 100.99 23.2979C101.389 23.1902 101.686 22.8683 101.706 22.4315C101.729 21.9189 101.537 21.5165 101.116 21.3214C100.954 21.2465 100.771 21.193 100.595 21.1797C100.24 21.1532 99.8821 21.161 99.5029 21.1547Z" fill="#4D4848"/>
<path d="M54.913 9.38033C56.6275 9.38033 58.3195 9.38027 60.0114 9.38053C60.0948 9.38054 60.1789 9.37711 60.2615 9.38601C60.5524 9.41732 60.7683 9.62976 60.7905 9.92141C61.0506 13.3462 58.8407 16.045 55.9584 16.6855C55.8623 16.7068 55.7664 16.7301 55.6693 16.7458C55.2684 16.8109 54.9458 16.5759 54.9276 16.172C54.9075 15.7253 54.9127 15.2767 54.9274 14.8296C54.9363 14.5567 55.1091 14.3714 55.3747 14.2919C55.5199 14.2484 55.6677 14.213 55.8107 14.1635C56.8974 13.7878 57.6261 13.0426 58.049 11.9845C58.0707 11.9301 58.081 11.8711 58.103 11.7906C58.0035 11.7906 57.9221 11.7907 57.8406 11.7907C56.7708 11.7906 55.701 11.7913 54.6313 11.7895C54.5336 11.7893 54.4329 11.7853 54.339 11.7616C54.0807 11.6965 53.9151 11.506 53.9088 11.2416C53.8983 10.8019 53.8963 10.3614 53.9088 9.92176C53.917 9.62913 54.1576 9.40476 54.4581 9.38432C54.6016 9.37456 54.7463 9.38114 54.913 9.38033Z" fill="#4D4848"/>
<path d="M53.1673 21.3893C53.5605 20.8575 53.9498 20.3429 54.3241 19.8176C54.4625 19.6233 54.6309 19.5414 54.8633 19.5488C55.1287 19.5572 55.3947 19.5471 55.6603 19.5519C55.9564 19.5572 56.106 19.7054 56.1213 19.9992C56.1244 20.0598 56.1223 20.1207 56.1223 20.1814C56.1223 22.5498 56.1223 24.9182 56.1222 27.2866C56.1222 27.3549 56.1248 27.4235 56.1197 27.4915C56.1009 27.7382 55.9656 27.8871 55.7163 27.8992C55.4362 27.9128 55.1543 27.9128 54.8742 27.8993C54.6223 27.887 54.4905 27.7418 54.4717 27.4919C54.4666 27.424 54.4696 27.3554 54.4696 27.2871C54.4695 25.7688 54.4695 24.2506 54.4695 22.7324C54.4695 22.6517 54.4695 22.5709 54.4695 22.4318C54.3813 22.5365 54.3282 22.5953 54.2797 22.6577C53.6834 23.4247 53.0879 24.1922 52.492 24.9594C52.4547 25.0073 52.4196 25.0576 52.3775 25.1008C52.1857 25.2975 51.9172 25.2867 51.7463 25.0692C51.5587 24.8306 51.3794 24.5855 51.1964 24.3433C50.176 22.9931 49.1555 21.6429 48.1351 20.2927C48.1305 20.2867 48.1262 20.2804 48.1214 20.2746C48.0047 20.1325 47.9268 19.9796 48.0172 19.7952C48.1135 19.5986 48.2877 19.5467 48.4918 19.5499C48.7347 19.5537 48.9779 19.5584 49.2205 19.5486C49.4536 19.5391 49.6193 19.6239 49.7613 19.8144C50.4599 20.7513 51.1687 21.6807 51.8741 22.6126C51.9334 22.691 51.9937 22.7686 52.0718 22.8704C52.4399 22.3728 52.7987 21.8876 53.1673 21.3893Z" fill="#4D4848"/>
<path d="M69.705 20.1843C70.8993 21.8075 72.0839 23.4177 73.2685 25.0278C73.2842 25.0239 73.2999 25.0201 73.3155 25.0162C73.3155 24.9368 73.3155 24.8573 73.3155 24.7779C73.3155 23.2377 73.3155 21.6976 73.3156 20.1574C73.3156 20.0891 73.3125 20.0206 73.3172 19.9526C73.3334 19.7215 73.4756 19.5651 73.7058 19.5557C73.9936 19.544 74.2827 19.5438 74.5704 19.5558C74.8015 19.5654 74.9442 19.7231 74.959 19.9521C74.9624 20.005 74.9605 20.0583 74.9605 20.1114C74.9606 22.5241 74.9606 24.9368 74.9605 27.3494C74.9605 27.395 74.9617 27.4406 74.9598 27.486C74.9497 27.7176 74.8344 27.8765 74.6101 27.8886C74.2476 27.9081 73.8831 27.8986 73.5196 27.8908C73.3605 27.8874 73.2676 27.7691 73.1805 27.6494C72.6044 26.8585 72.0265 26.069 71.4496 25.2786C70.2468 23.6305 69.0442 21.9822 67.8418 20.3339C67.7971 20.2726 67.7491 20.2128 67.7129 20.1467C67.5723 19.8899 67.7078 19.6089 67.9977 19.5622C68.0942 19.5467 68.1943 19.552 68.2927 19.5514C68.5203 19.5502 68.748 19.5513 68.9756 19.5512C69.1539 19.551 69.2975 19.6102 69.3998 19.7674C69.4906 19.907 69.5963 20.037 69.705 20.1843Z" fill="#4D4848"/>
<path d="M79.6882 22.0426C79.6882 21.3674 79.6998 20.7146 79.6833 20.0625C79.6752 19.7386 79.8731 19.5442 80.1981 19.5471C81.3057 19.5569 82.4135 19.5573 83.5211 19.5469C83.8449 19.5439 84.0442 19.7589 84.0219 20.052C84.0053 20.2708 84.0205 20.4918 84.0182 20.7118C84.0146 21.0416 83.8734 21.1842 83.5498 21.1847C82.905 21.1857 82.2601 21.185 81.6152 21.185C81.5406 21.185 81.466 21.185 81.3607 21.185C81.3607 21.2912 81.3607 21.3793 81.3607 21.4675C81.3607 23.4401 81.3544 25.4127 81.3653 27.3853C81.3679 27.8544 81.1977 28.0227 80.7415 27.9977C80.5599 27.9877 80.3773 27.9921 80.1953 27.9968C79.8485 28.0059 79.6816 27.8058 79.6834 27.4824C79.6934 25.6768 79.6882 23.8711 79.6882 22.0426Z" fill="#4D4848"/>
<path d="M90.1843 20.49C90.1843 20.3315 90.183 20.1949 90.1847 20.0584C90.1895 19.6544 90.364 19.5105 90.7653 19.5885C91.5447 19.7398 92.2264 20.0841 92.7945 20.6415C93.5512 21.3842 93.9638 22.2877 94.0466 23.3445C94.1087 24.1371 94.0252 24.9091 93.6769 25.6298C93.0747 26.8758 92.0994 27.6612 90.7336 27.9408C90.393 28.0105 90.1937 27.8481 90.1856 27.4947C90.1802 27.2596 90.1819 27.0243 90.1854 26.7892C90.1899 26.4888 90.2664 26.3879 90.5655 26.3104C91.146 26.1599 91.6165 25.854 91.9598 25.3569C92.2817 24.8906 92.4072 24.3681 92.4153 23.8103C92.4255 23.1037 92.253 22.4604 91.7698 21.9213C91.468 21.5844 91.1024 21.3533 90.6679 21.2301C90.6096 21.2136 90.5509 21.1983 90.4919 21.1844C90.3044 21.1401 90.2104 21.0139 90.192 20.8301C90.1815 20.7248 90.1864 20.618 90.1843 20.49Z" fill="#4D4848"/>
<path d="M86.9065 26.896C86.0468 26.0696 85.6378 25.066 85.6098 23.8975C85.5888 23.0207 85.767 22.1944 86.2371 21.4451C86.861 20.4505 87.7451 19.8239 88.9001 19.5893C88.9667 19.5757 89.0354 19.5655 89.1031 19.5659C89.3154 19.5673 89.4729 19.7008 89.4806 19.9112C89.492 20.2217 89.4907 20.5332 89.4796 20.8437C89.4737 21.0087 89.3752 21.124 89.2139 21.1767C89.1707 21.1908 89.1265 21.2018 89.0827 21.2139C88.0684 21.4919 87.4977 22.1783 87.3043 23.1876C87.191 23.7791 87.238 24.3684 87.4793 24.9273C87.7797 25.6229 88.2953 26.0817 89.0302 26.2856C89.0886 26.3018 89.1483 26.3143 89.2052 26.3347C89.3793 26.397 89.4832 26.5156 89.4846 26.7068C89.4866 26.9874 89.4909 27.2682 89.484 27.5486C89.4768 27.8371 89.2655 28.0022 88.9765 27.9492C88.3399 27.8325 87.7574 27.5897 87.2457 27.1886C87.1325 27.0998 87.0271 27.0012 86.9065 26.896Z" fill="#4D4848"/>
<path d="M59.9148 6.97412C60.0141 7.16333 60.1139 7.33417 60.1947 7.51352C60.3737 7.91045 60.1138 8.35447 59.6799 8.36932C59.1872 8.38619 58.6934 8.37961 58.2003 8.37C57.9824 8.36576 57.8151 8.24957 57.6947 8.06537C57.4858 7.74565 57.2363 7.46245 56.9375 7.22217C56.5174 6.88431 56.048 6.64664 55.527 6.50996C55.4756 6.4965 55.4243 6.48283 55.3736 6.46735C55.1015 6.38435 54.9323 6.19004 54.925 5.90426C54.9136 5.46443 54.9079 5.02342 54.9273 4.58411C54.9454 4.17183 55.2577 3.94862 55.666 4.02478C57.5174 4.37012 58.9286 5.352 59.9148 6.97412Z" fill="#4D4848"/>
<path d="M63.475 21.1774C62.1485 21.1774 60.8447 21.1774 59.541 21.1774C59.4803 21.1774 59.4196 21.1788 59.3591 21.1768C59.1122 21.1686 58.9558 21.0374 58.9419 20.7898C58.9262 20.5103 58.9269 20.2287 58.9405 19.949C58.9522 19.7088 59.1131 19.568 59.3559 19.5519C59.4087 19.5484 59.462 19.5506 59.515 19.5506C61.2508 19.5506 62.9866 19.5505 64.7224 19.5507C64.7906 19.5507 64.8595 19.547 64.9269 19.5547C65.1451 19.5798 65.2887 19.7243 65.2957 19.9453C65.3044 20.2254 65.3053 20.5063 65.2954 20.7864C65.2867 21.0303 65.1325 21.1735 64.8849 21.1758C64.4225 21.1803 63.9601 21.1773 63.475 21.1774Z" fill="#4D4848"/>
<path d="M60.6057 26.301C61.9712 26.301 63.3139 26.301 64.6566 26.301C64.7248 26.301 64.7932 26.2992 64.8614 26.3019C65.1467 26.3129 65.2927 26.4571 65.2979 26.7414C65.3024 26.9916 65.3026 27.2421 65.2978 27.4924C65.2926 27.7686 65.1506 27.9135 64.8758 27.9202C64.6256 27.9262 64.3752 27.9219 64.1249 27.9219C62.5925 27.9219 61.0602 27.9219 59.5279 27.9218C59.4596 27.9218 59.391 27.9244 59.3231 27.919C59.1127 27.9023 58.9574 27.7734 58.9454 27.5637C58.9285 27.2689 58.9274 26.9719 58.9441 26.6772C58.9575 26.44 59.1224 26.3066 59.3768 26.3029C59.7788 26.2972 60.1809 26.3011 60.6057 26.301Z" fill="#4D4848"/>
<path d="M63.6573 24.5517C62.2772 24.5517 60.9198 24.5517 59.5625 24.5517C59.5019 24.5517 59.4412 24.5527 59.3805 24.5513C59.0995 24.5447 58.946 24.4001 58.9369 24.1153C58.9287 23.8577 58.9283 23.5994 58.9373 23.3419C58.9469 23.0652 59.108 22.9147 59.3894 22.9129C59.8975 22.9095 60.4055 22.9118 60.9136 22.9117C62.0207 22.9117 63.1277 22.9117 64.2348 22.9119C64.303 22.9119 64.372 22.9078 64.4393 22.916C64.6388 22.9402 64.7911 23.0928 64.7973 23.294C64.8062 23.5819 64.8065 23.8704 64.798 24.1583C64.791 24.3941 64.6286 24.5443 64.3852 24.5501C64.1503 24.5556 63.9151 24.5515 63.6573 24.5517Z" fill="#4D4848"/>
<path d="M95.4535 4.02167C95.7741 4.13599 95.9101 4.35617 95.9087 4.67185C95.9071 5.05078 95.8981 5.43009 95.9113 5.80857C95.924 6.17503 95.6378 6.4919 95.2455 6.47779C94.6929 6.45791 94.1386 6.45792 93.5861 6.478C93.2233 6.49119 92.9313 6.18032 92.9389 5.83765C92.9477 5.43616 92.9361 5.03426 92.9424 4.63268C92.9484 4.25141 93.1933 4.00471 93.5718 4.00382C94.1929 4.00236 94.8142 4.01124 95.4535 4.02167Z" fill="#4D4848"/>
<path d="M68.5292 27.9046C68.3631 27.9042 68.2186 27.9113 68.0751 27.9018C67.8005 27.8835 67.6605 27.7372 67.6592 27.4632C67.656 26.7959 67.6558 26.1285 67.6594 25.4612C67.6609 25.1816 67.7994 25.0366 68.0751 25.0283C68.3479 25.02 68.6213 25.0195 68.894 25.0291C69.1525 25.0381 69.299 25.189 69.3009 25.4507C69.306 26.1256 69.3055 26.8005 69.3011 27.4754C69.2995 27.7223 69.1592 27.8721 68.9148 27.8979C68.7947 27.9106 68.6725 27.903 68.5292 27.9046Z" fill="#4D4848"/>
<path d="M49.6254 27.4441C49.5908 27.7631 49.466 27.8925 49.1796 27.9023C48.922 27.911 48.6635 27.9124 48.406 27.9017C48.1217 27.8899 47.9827 27.738 47.9815 27.4491C47.9787 26.7892 47.9783 26.1292 47.9816 25.4692C47.9831 25.1767 48.1213 25.0354 48.4122 25.0275C48.6623 25.0207 48.9129 25.0224 49.1631 25.0269C49.479 25.0325 49.6229 25.1749 49.6245 25.4891C49.6277 26.1339 49.6254 26.7787 49.6254 27.4441Z" fill="#4D4848"/>
<path d="M78.9054 21.0274C78.8068 21.1503 78.6933 21.1887 78.5542 21.1867C78.1828 21.1814 77.8112 21.1872 77.4398 21.1841C77.2028 21.1821 77.046 21.0502 77.0343 20.8158C77.0195 20.5209 77.0198 20.2244 77.0334 19.9295C77.0436 19.711 77.1982 19.5613 77.4188 19.5556C77.8127 19.5453 78.2073 19.5462 78.6012 19.557C78.7958 19.5624 78.957 19.6865 78.9674 19.8694C78.987 20.2154 78.9695 20.5637 78.9631 20.911C78.9625 20.9452 78.9324 20.9789 78.9054 21.0274Z" fill="#4D4848"/>
</svg>
