<svg width="232" height="100" viewBox="0 0 232 100" fill="none" xmlns="http://www.w3.org/2000/svg">
<g id="Logo Text">
<path id="Vector" d="M163 10.3504C168.452 23.1778 173.871 35.9405 179.288 48.704C179.424 49.0231 179.563 49.345 179.653 49.6784C180.024 51.0617 178.914 52.6394 177.487 52.7683C177.236 52.791 176.981 52.7829 176.728 52.7829C161.234 52.7835 145.741 52.7791 130.247 52.7931C129.216 52.794 128.394 52.4998 127.811 51.626C127.358 50.9459 127.241 50.2251 127.56 49.4654C128.329 47.6305 129.091 45.7921 129.897 43.9733C130.288 43.0907 131.052 42.6614 131.996 42.5623C132.309 42.5295 132.628 42.5512 132.944 42.5512C143.284 42.5509 153.623 42.5509 163.963 42.5509C164.34 42.5509 164.716 42.5509 165.241 42.5509C161.357 33.2638 157.517 24.0815 153.597 14.7096C153.35 15.2536 153.19 15.5808 153.05 15.916C150.134 22.8786 147.22 29.8422 144.305 36.8054C143.572 38.557 143.028 38.9258 141.16 38.9289C139.579 38.9316 137.998 38.9295 136.417 38.9295C136.291 38.9295 136.164 38.9315 136.038 38.9284C133.83 38.8739 132.737 37.2082 133.574 35.1432C134.096 33.8555 134.654 32.5822 135.199 31.304C139.364 21.543 143.531 11.7829 147.693 2.02035C147.956 1.40329 148.194 0.743096 148.818 0.431725C149.281 0.200998 149.828 0.0382297 150.341 0.0275499C152.458 -0.0165476 154.578 0.0315462 156.696 0.000468175C157.997 -0.0186095 158.843 0.545114 159.342 1.73686C160.537 4.59206 161.757 7.43673 163 10.3504Z" fill="#F4713B"/>
<path id="Vector_2" d="M204.13 8.18475C204.13 6.47694 204.13 4.86403 204.131 3.25111C204.131 3.02977 204.124 2.80761 204.139 2.58722C204.252 1.00349 205.253 0.0416504 206.85 0.0131091C208.02 -0.00778703 209.19 0.00810515 210.36 0.00809357C216.274 0.00798929 222.188 0.00791979 228.102 0.00834841C228.419 0.00837156 228.736 -0.00222713 229.051 0.0178699C230.376 0.102439 231.388 1.06322 231.424 2.39478C231.474 4.22755 231.476 6.06372 231.426 7.89644C231.387 9.31955 230.35 10.2812 228.89 10.2957C226.36 10.3209 223.83 10.3038 221.3 10.3042C219.434 10.3044 217.568 10.3042 215.702 10.3042C215.395 10.3042 215.088 10.3042 214.687 10.3042C214.687 10.7768 214.687 11.148 214.687 11.5192C214.687 24.2011 214.687 36.8831 214.687 49.565C214.687 49.8496 214.669 50.1355 214.689 50.4187C214.798 51.963 213.484 53.3072 211.92 53.2166C210.218 53.1179 208.506 53.2054 206.798 53.1907C205.252 53.1774 204.253 52.2287 204.141 50.6895C204.118 50.3748 204.131 50.0573 204.131 49.7411C204.13 35.9206 204.13 22.1001 204.13 8.18475Z" fill="#F4713B"/>
<path id="Vector_3" d="M17.3512 12.5515C13.0063 15.5811 10.88 19.7731 10.4774 24.9113C10.2214 28.1786 10.6088 31.3509 12.0262 34.3405C14.0832 38.679 17.4111 41.5108 22.0823 42.7221C22.2656 42.7697 22.4488 42.8178 22.6305 42.871C23.8657 43.2327 24.5281 44.0674 24.5439 45.364C24.5646 47.0707 24.5669 48.7781 24.5442 50.4848C24.5205 52.2673 23.1307 53.415 21.3778 53.0943C18.8471 52.6313 16.4048 51.8659 14.1375 50.645C7.65428 47.1541 3.2382 41.9237 1.13228 34.8398C-0.148848 30.5303 -0.265836 26.1299 0.39656 21.6967C1.09953 16.9919 2.94076 12.7956 5.98907 9.13866C10.0718 4.24067 15.221 1.16557 21.5287 0.0845716C23.2498 -0.210385 24.5101 0.824489 24.5412 2.59816C24.5717 4.3362 24.5653 6.07541 24.5433 7.81371C24.5273 9.08878 23.8594 9.95243 22.6102 10.2911C20.7697 10.79 19.0018 11.4434 17.3512 12.5515Z" fill="#F4713B"/>
<path id="Vector_4" d="M104.271 50.3288C101.855 51.6402 99.3456 52.4758 96.7139 52.9374C94.7792 53.2767 93.4903 52.1944 93.4676 50.2388C93.4489 48.6259 93.4533 47.0127 93.4667 45.3997C93.4794 43.8784 94.1052 43.0432 95.593 42.6885C98.2297 42.0601 100.594 40.9296 102.572 39.0539C105.115 36.6421 106.651 33.6738 107.228 30.2404C107.768 27.0254 107.765 23.794 106.714 20.6726C104.921 15.3524 101.392 11.8071 95.8548 10.4255C94.1036 9.98848 93.4728 9.21191 93.4647 7.4242C93.4579 5.93771 93.4624 4.45117 93.464 2.96464C93.4643 2.74344 93.4601 2.52048 93.4847 2.30134C93.6579 0.761508 94.8991 -0.219168 96.4174 0.0793216C106.836 2.12759 113.651 8.27549 116.795 18.3668C118.468 23.7394 118.4 29.2381 116.859 34.6485C114.882 41.5911 110.559 46.7216 104.271 50.3288Z" fill="#F4713B"/>
<path id="Vector_5" d="M83.4967 41.4902C84.6924 41.9104 85.8163 42.3281 86.9621 42.6731C88.4252 43.1136 89.0531 43.8806 89.064 45.4116C89.0752 46.9921 89.0254 48.5742 89.0776 50.1532C89.1427 52.1175 87.7438 53.2898 85.7239 52.9273C79.6929 51.845 74.7671 48.8573 70.8078 44.2285C67.2005 40.0111 65.2408 35.1075 64.7417 29.5928C64.3015 24.7282 64.7543 19.9678 66.7342 15.4798C70.3572 7.26713 76.5334 2.08375 85.3877 0.221416C85.7269 0.150063 86.0684 0.0706136 86.4126 0.0447134C87.8074 -0.0602774 88.9626 0.820851 89.0222 2.20158C89.1066 4.15767 89.0956 6.1214 89.0341 8.079C88.9966 9.27382 88.2403 10.0365 86.9622 10.3301C84.6122 10.87 82.4829 11.8466 80.6391 13.4155C77.7058 15.9116 75.9109 19.0721 75.2851 22.8582C74.7424 26.1417 74.8514 29.4127 75.9116 32.5995C77.2276 36.5552 79.6812 39.5617 83.4967 41.4902Z" fill="#F4713B"/>
<path id="Vector_6" d="M214.707 71.4779C211.165 71.4779 207.719 71.4784 204.273 71.4769C203.957 71.4768 203.639 71.486 203.325 71.4527C202.511 71.3663 201.879 70.7988 201.841 69.9888C201.785 68.7901 201.788 67.5854 201.836 66.3861C201.869 65.5414 202.509 64.9284 203.348 64.8164C203.597 64.7832 203.853 64.7963 204.106 64.7963C208.754 64.7953 213.402 64.7875 218.049 64.8C219.663 64.8043 221.262 64.9354 222.831 65.3795C227.219 66.6213 230.266 70.2852 230.687 74.8195C230.899 77.0984 230.693 79.3016 229.69 81.3851C228.701 83.4399 227.083 84.845 225.045 85.8033C224.765 85.9349 224.483 86.0609 224.151 86.2124C224.346 86.5301 224.502 86.7978 224.67 87.0568C226.724 90.2074 228.775 93.3602 230.839 96.5036C231.288 97.187 231.688 97.853 231.242 98.6916C230.799 99.5238 230.027 99.6072 229.209 99.6038C228.134 99.5995 227.058 99.5806 225.984 99.6094C225.069 99.634 224.446 99.2622 223.959 98.4801C221.907 95.1792 219.819 91.9003 217.744 88.614C217.525 88.2674 217.299 87.9249 217.059 87.5524C214.316 87.5524 211.571 87.5524 208.706 87.5524C208.693 87.8862 208.67 88.2184 208.669 88.5507C208.666 91.5227 208.618 94.496 208.688 97.4664C208.724 98.9569 207.86 99.6562 206.562 99.6087C205.678 99.5764 204.791 99.6138 203.906 99.6003C202.412 99.5774 201.818 98.9921 201.816 97.5302C201.811 92.6611 201.845 87.7916 201.793 82.923C201.779 81.6276 202.602 80.8171 203.88 80.8325C208.527 80.8883 213.175 80.8785 217.823 80.8341C218.853 80.8243 219.908 80.6764 220.902 80.4079C222.564 79.9591 223.802 78.6182 223.886 76.798C223.983 74.662 223.182 72.9854 221.427 72.1727C220.753 71.8606 219.992 71.6374 219.255 71.5823C217.776 71.4716 216.287 71.5043 214.707 71.4779Z" fill="#F4713B"/>
<path id="Vector_7" d="M28.9156 22.4179C36.0595 22.4179 43.1092 22.4177 50.1589 22.4187C50.5065 22.4188 50.8568 22.4045 51.2011 22.4416C52.4132 22.572 53.3128 23.4572 53.4051 24.6724C54.4887 38.9425 45.2811 50.1874 33.2715 52.8559C32.871 52.9449 32.4712 53.0418 32.0666 53.1075C30.3965 53.3787 29.0521 52.3996 28.9763 50.7166C28.8925 48.8555 28.9145 46.9862 28.9756 45.1232C29.0128 43.9863 29.7326 43.214 30.8393 42.8827C31.4441 42.7017 32.06 42.5539 32.6559 42.3479C37.1838 40.7824 40.2202 37.6773 41.982 33.2688C42.0726 33.042 42.1153 32.796 42.2073 32.4609C41.7926 32.4609 41.4533 32.4609 41.114 32.4609C36.6565 32.4609 32.1991 32.4637 27.7416 32.4559C27.3348 32.4552 26.9151 32.4387 26.5239 32.34C25.4477 32.0686 24.7576 31.2747 24.7313 30.1734C24.6875 28.341 24.6793 26.5058 24.7312 24.6739C24.7657 23.4546 25.7682 22.5197 27.02 22.4346C27.6181 22.3939 28.2208 22.4213 28.9156 22.4179Z" fill="#F4713B"/>
<path id="Vector_8" d="M21.6418 72.4554C23.28 70.2393 24.9021 68.0953 26.4616 65.9067C27.0386 65.0969 27.74 64.7557 28.7083 64.7865C29.8143 64.8216 30.9224 64.7793 32.0291 64.7993C33.2632 64.8215 33.8862 65.4389 33.95 66.6634C33.9632 66.9158 33.9542 67.1694 33.9542 67.4224C33.9543 77.2908 33.9544 87.1591 33.954 97.0275C33.9539 97.3121 33.9648 97.5979 33.9433 97.8811C33.8651 98.9092 33.3013 99.5294 32.2628 99.5799C31.0954 99.6367 29.921 99.6367 28.7537 99.5801C27.7044 99.5292 27.1552 98.9239 27.0767 97.883C27.0554 97.5998 27.0681 97.3139 27.0681 97.0293C27.0677 90.7034 27.0678 84.3775 27.0678 78.0517C27.0678 77.7152 27.0678 77.3787 27.0678 76.7989C26.7001 77.2353 26.4789 77.4804 26.2768 77.7404C23.7923 80.936 21.3108 84.134 18.8278 87.3308C18.6728 87.5304 18.5264 87.7398 18.3507 87.9199C17.5518 88.7393 16.4332 88.6946 15.7208 87.7883C14.9392 86.7942 14.1924 85.7726 13.4298 84.7635C9.17807 79.1377 4.92615 73.512 0.674319 67.8863C0.655259 67.8611 0.637125 67.8351 0.617078 67.8106C0.13089 67.2187 -0.193526 66.5817 0.183011 65.8132C0.584488 64.9939 1.30992 64.7779 2.16059 64.7912C3.17248 64.807 4.18609 64.8263 5.19658 64.7855C6.16796 64.7463 6.85836 65.0996 7.45012 65.8933C10.361 69.7971 13.3144 73.6694 16.2534 77.5523C16.5006 77.879 16.7519 78.2025 17.0774 78.6266C18.6108 76.5531 20.1058 74.5315 21.6418 72.4554Z" fill="#F4713B"/>
<path id="Vector_9" d="M90.5488 67.4344C95.5249 74.1978 100.461 80.9067 105.397 87.6157C105.462 87.5995 105.527 87.5834 105.593 87.5673C105.593 87.2363 105.593 86.9054 105.593 86.5744C105.593 80.157 105.593 73.7397 105.593 67.3223C105.593 67.0378 105.58 66.7522 105.6 66.469C105.667 65.506 106.26 64.8544 107.219 64.8154C108.418 64.7667 109.622 64.7656 110.821 64.8155C111.784 64.8556 112.379 65.5126 112.44 66.467C112.455 66.6874 112.447 66.9094 112.447 67.1307C112.447 77.1835 112.447 87.2363 112.447 97.2892C112.447 97.4788 112.452 97.6688 112.444 97.8582C112.402 98.8232 111.921 99.4854 110.987 99.5356C109.476 99.6168 107.957 99.5774 106.443 99.5448C105.78 99.5305 105.393 99.0375 105.03 98.539C102.63 95.2436 100.222 91.9538 97.8181 88.6607C92.8062 81.7937 87.7955 74.9258 82.7853 68.0575C82.5992 67.8025 82.3991 67.5532 82.2483 67.2778C81.6624 66.2076 82.2273 65.0368 83.4351 64.8425C83.837 64.7778 84.2541 64.7997 84.6644 64.7974C85.6127 64.7921 86.5611 64.797 87.5095 64.7963C88.2523 64.7957 88.8508 65.0425 89.2769 65.6971C89.6556 66.2788 90.0957 66.8205 90.5488 67.4344Z" fill="#F4713B"/>
<path id="Vector_10" d="M132.145 75.1773C132.145 72.3638 132.193 69.6439 132.125 66.927C132.091 65.5774 132.915 64.7673 134.27 64.7793C138.885 64.8204 143.5 64.8218 148.115 64.7786C149.464 64.7659 150.295 65.6617 150.202 66.8832C150.133 67.7947 150.196 68.7158 150.186 69.6324C150.172 71.0066 149.583 71.6008 148.235 71.6029C145.548 71.6069 142.861 71.6041 140.174 71.6041C139.863 71.6041 139.552 71.6041 139.113 71.6041C139.113 72.0463 139.113 72.4137 139.113 72.7811C139.113 81.0002 139.087 89.2195 139.133 97.4384C139.144 99.3931 138.434 100.094 136.533 99.99C135.777 99.9485 135.016 99.9667 134.258 99.9865C132.813 100.024 132.117 99.1906 132.125 97.8432C132.167 90.3197 132.145 82.7959 132.145 75.1773Z" fill="#F4713B"/>
<path id="Vector_11" d="M175.879 68.7086C175.879 68.0481 175.873 67.4791 175.88 66.9102C175.9 65.2271 176.627 64.6275 178.3 64.9523C181.547 65.5828 184.388 67.0173 186.754 69.3401C189.908 72.4347 191.627 76.199 191.971 80.6026C192.23 83.9048 191.882 87.1218 190.431 90.1248C187.922 95.3164 183.858 98.5888 178.167 99.7536C176.748 100.044 175.918 99.3675 175.884 97.8949C175.862 96.9155 175.869 95.9351 175.883 94.9554C175.902 93.7037 176.221 93.2835 177.467 92.9604C179.886 92.3333 181.846 91.0588 183.277 88.9873C184.618 87.0444 185.141 84.8674 185.174 82.5433C185.217 79.5991 184.498 76.9189 182.485 74.6723C181.227 73.2687 179.704 72.3059 177.894 71.7926C177.651 71.7237 177.406 71.6599 177.16 71.6019C176.379 71.4175 175.988 70.8915 175.911 70.1259C175.867 69.6873 175.887 69.2422 175.879 68.7086Z" fill="#F4713B"/>
<path id="Vector_12" d="M162.221 95.4C158.639 91.9568 156.935 87.775 156.818 82.9062C156.731 79.2531 157.473 75.8099 159.432 72.6879C162.031 68.5437 165.715 65.9332 170.528 64.9554C170.805 64.899 171.091 64.8563 171.373 64.8581C172.258 64.8636 172.914 65.4202 172.946 66.2968C172.994 67.5905 172.989 68.8884 172.942 70.1822C172.918 70.8698 172.507 71.35 171.835 71.5697C171.655 71.6285 171.471 71.6744 171.289 71.7245C167.062 72.883 164.684 75.7431 163.879 79.9484C163.406 82.4128 163.602 84.8683 164.608 87.1972C165.859 90.0954 168.008 92.0073 171.07 92.8569C171.313 92.9244 171.562 92.9765 171.799 93.0613C172.524 93.3207 172.957 93.8149 172.963 94.6118C172.972 95.7809 172.99 96.9507 172.961 98.1192C172.931 99.3211 172.05 100.009 170.846 99.7883C168.194 99.302 165.766 98.2904 163.635 96.6192C163.163 96.2494 162.723 95.8385 162.221 95.4Z" fill="#F4713B"/>
<path id="Vector_13" d="M49.7558 12.3923C50.1699 13.1807 50.5855 13.8925 50.9224 14.6398C51.668 16.2937 50.5851 18.1438 48.7774 18.2057C46.7245 18.276 44.6667 18.2485 42.6121 18.2085C41.7045 18.1908 41.0073 17.7067 40.5058 16.9392C39.6352 15.607 38.5956 14.427 37.3506 13.4259C35.6 12.0181 33.6444 11.0278 31.4733 10.4583C31.2595 10.4023 31.0458 10.3453 30.8344 10.2808C29.7007 9.93495 28.9957 9.12531 28.965 7.9346C28.9177 6.10195 28.8939 4.2644 28.9746 2.43397C29.0503 0.716116 30.3514 -0.213929 32.0526 0.103395C39.767 1.54234 45.6468 5.63351 49.7558 12.3923Z" fill="#F4713B"/>
<path id="Vector_14" d="M64.5906 71.573C59.0634 71.573 53.6311 71.573 48.1988 71.5729C47.9462 71.5729 47.6933 71.5787 47.4409 71.5703C46.4121 71.5362 45.7606 70.9894 45.7026 69.9578C45.637 68.7932 45.64 67.62 45.6968 66.4546C45.7456 65.4537 46.4158 64.8669 47.4277 64.8001C47.6479 64.7856 47.8697 64.7947 48.0907 64.7947C55.3232 64.7945 62.5558 64.7944 69.7883 64.7951C70.0724 64.7951 70.3592 64.7794 70.6401 64.8117C71.5492 64.9163 72.1478 65.5183 72.1767 66.439C72.2133 67.6063 72.217 68.7769 72.1755 69.9439C72.1393 70.9602 71.4969 71.5565 70.4651 71.5664C68.5387 71.5849 66.612 71.5725 64.5906 71.573Z" fill="#F4713B"/>
<path id="Vector_15" d="M52.6344 92.9211C58.3238 92.9212 63.9184 92.9211 69.5129 92.9212C69.7974 92.9212 70.0822 92.9139 70.3663 92.9249C71.555 92.9708 72.1636 93.5715 72.1851 94.7562C72.204 95.7989 72.2047 96.8426 72.1848 97.8852C72.163 99.0363 71.5713 99.64 70.4266 99.6677C69.3841 99.693 68.3406 99.6748 67.2975 99.6749C60.9128 99.6751 54.5281 99.6751 48.1433 99.6746C47.8589 99.6746 47.5732 99.6856 47.2904 99.663C46.4133 99.5931 45.7665 99.0561 45.7164 98.1823C45.6459 96.9544 45.6415 95.7165 45.711 94.4886C45.7669 93.5006 46.4537 92.9445 47.514 92.9294C49.1889 92.9054 50.8643 92.9218 52.6344 92.9211Z" fill="#F4713B"/>
<path id="Vector_16" d="M65.3494 85.6316C59.599 85.6316 53.9435 85.6316 48.288 85.6316C48.0353 85.6316 47.7824 85.6358 47.5298 85.63C46.3588 85.6027 45.719 85 45.6813 83.8133C45.6472 82.7401 45.6455 81.664 45.6828 80.5911C45.723 79.4381 46.3944 78.811 47.5668 78.8033C49.6836 78.7893 51.8005 78.7987 53.9174 78.7986C58.5302 78.7985 63.1431 78.7984 67.756 78.7992C68.0402 78.7993 68.3275 78.7823 68.6081 78.8163C69.4391 78.917 70.0739 79.5529 70.0998 80.3913C70.1368 81.5907 70.1378 82.7929 70.1024 83.9924C70.0735 84.9751 69.3966 85.601 68.3825 85.625C67.4036 85.6481 66.4237 85.6311 65.3494 85.6316Z" fill="#F4713B"/>
<path id="Vector_17" d="M197.834 0.0905208C199.169 0.566872 199.736 1.48427 199.73 2.79962C199.723 4.37851 199.686 5.95896 199.741 7.53597C199.794 9.06285 198.601 10.3832 196.967 10.3244C194.664 10.2415 192.355 10.2416 190.053 10.3253C188.541 10.3802 187.324 9.0849 187.356 7.6571C187.393 5.98425 187.344 4.30965 187.371 2.63641C187.396 1.04779 188.416 0.0198511 189.993 0.0161561C192.581 0.010098 195.17 0.0470604 197.834 0.0905208Z" fill="#F4713B"/>
<path id="Vector_18" d="M85.6496 99.6029C84.9575 99.6011 84.3551 99.6306 83.7573 99.5909C82.6132 99.5149 82.03 98.9051 82.0245 97.7637C82.0111 94.9831 82.01 92.2024 82.0252 89.4218C82.0316 88.257 82.6086 87.6529 83.7574 87.6181C84.8938 87.5836 86.0332 87.5814 87.1693 87.6213C88.2465 87.6592 88.8569 88.2879 88.865 89.378C88.8859 92.1901 88.8841 95.0025 88.8656 97.8146C88.8589 98.8431 88.2745 99.4674 87.2563 99.5749C86.7559 99.6278 86.2465 99.5962 85.6496 99.6029Z" fill="#F4713B"/>
<path id="Vector_19" d="M6.88322 97.6836C6.73905 99.0126 6.2193 99.5521 5.02593 99.5926C3.95251 99.629 2.87542 99.6348 1.80259 99.5902C0.618014 99.5411 0.038682 98.9081 0.0336085 97.7045C0.0220165 94.9547 0.0204238 92.2047 0.0344019 89.4549C0.0405961 88.2359 0.616097 87.6475 1.82837 87.6145C2.87066 87.5861 3.91461 87.5932 4.95734 87.6117C6.27342 87.6351 6.87297 88.2285 6.87951 89.5378C6.89293 92.2244 6.88357 94.9112 6.88322 97.6836Z" fill="#F4713B"/>
<path id="Vector_20" d="M128.884 70.9477C128.473 71.4596 128 71.6196 127.42 71.6114C125.873 71.5894 124.324 71.6132 122.777 71.6003C121.789 71.5921 121.136 71.0425 121.087 70.0657C121.026 68.8373 121.027 67.6015 121.084 66.3728C121.126 65.4625 121.77 64.8389 122.689 64.8149C124.331 64.7719 125.975 64.7758 127.616 64.821C128.427 64.8433 129.099 65.3604 129.142 66.1224C129.224 67.5643 129.151 69.0154 129.124 70.4625C129.121 70.6051 128.996 70.7455 128.884 70.9477Z" fill="#F4713B"/>
</g>
</svg>
