<svg width="640" height="360" viewBox="0 0 640 360" fill="none" xmlns="http://www.w3.org/2000/svg">
<rect width="640" height="360" fill="#F9F6F3"/>
<path d="M368.75 133.438L398.75 178.438C400 180.938 400.312 183.75 399.062 186.25C397.812 188.75 395 190 392.5 190H347.5H332.5H307.5C304.375 190 301.875 188.438 300.625 185.938C299.375 183.438 299.688 180.312 301.562 177.812L321.562 152.812C322.812 151.25 325 150 327.5 150C329.688 150 331.875 151.25 333.125 152.812L338.75 159.688L356.25 133.438C357.5 131.25 360 130 362.5 130C365 130 367.188 131.25 368.75 133.438ZM240 140H280V160C274.375 160 270 164.688 270 170V230C270 235.625 274.375 240 280 240H320C325.312 240 330 235.625 330 230V210H380V240C380 251.25 370.938 260 360 260H240C228.75 260 220 251.25 220 240V160C220 149.062 228.75 140 240 140ZM242.5 160C239.688 160 237.5 162.5 237.5 165V170C237.5 172.812 239.688 175 242.5 175H247.5C250 175 252.5 172.812 252.5 170V165C252.5 162.5 250 160 247.5 160H242.5ZM242.5 192.5C239.688 192.5 237.5 195 237.5 197.5V202.5C237.5 205.312 239.688 207.5 242.5 207.5H247.5C250 207.5 252.5 205.312 252.5 202.5V197.5C252.5 195 250 192.5 247.5 192.5H242.5ZM242.5 225C239.688 225 237.5 227.5 237.5 230V235C237.5 237.812 239.688 240 242.5 240H247.5C250 240 252.5 237.812 252.5 235V230C252.5 227.5 250 225 247.5 225H242.5ZM347.5 230V235C347.5 237.812 349.688 240 352.5 240H357.5C360 240 362.5 237.812 362.5 235V230C362.5 227.5 360 225 357.5 225H352.5C349.688 225 347.5 227.5 347.5 230Z" fill="#4D4848"/>
<path opacity="0.4" d="M280 120C280 109.062 288.75 100 300 100H400C410.938 100 420 109.062 420 120V190C420 201.25 410.938 210 400 210H300C288.75 210 280 201.25 280 190V120ZM362.5 130C360 130 357.5 131.25 356.25 133.438L338.75 159.688L333.125 152.812C331.875 151.25 329.688 150 327.5 150C325 150 322.812 151.25 321.562 152.812L301.562 177.812C299.688 180.312 299.375 183.438 300.625 185.938C301.875 188.438 304.375 190 307.5 190H332.5H347.5H392.5C395 190 397.812 188.75 399.062 186.25C400.312 183.75 400 180.625 398.75 178.438L368.75 133.438C367.188 131.25 365 130 362.5 130ZM315 140C320.312 140 325 135.625 325 130C325 124.688 320.312 120 315 120C309.375 120 305 124.688 305 130C305 135.625 309.375 140 315 140Z" fill="#4D4848"/>
</svg>
