<svg width="24" height="24" viewBox="0 0 24 24" fill="none" xmlns="http://www.w3.org/2000/svg">
<path d="M19.0087 16.4731H10.2783C9.48381 16.4674 8.71429 16.1947 8.09351 15.6989C7.47272 15.203 7.03675 14.5128 6.8557 13.7391L5.4644 8.08349C5.33639 7.55835 5.32983 7.01093 5.44521 6.48287C5.56059 5.95481 5.79487 5.46001 6.13024 5.03611C6.4656 4.61221 6.89322 4.27037 7.38056 4.03659C7.86791 3.8028 8.40215 3.68324 8.94265 3.68697H20.4209C20.9614 3.68324 21.4957 3.8028 21.983 4.03659C22.4703 4.27037 22.898 4.61221 23.2333 5.03611C23.5687 5.46001 23.803 5.95481 23.9183 6.48287C24.0337 7.01093 24.0272 7.55835 23.8992 8.08349L22.5079 13.7531C22.32 14.5363 21.8712 15.2323 21.2353 15.7266C20.5993 16.221 19.8141 16.4842 19.0087 16.4731ZM8.90092 5.4261C8.62595 5.42694 8.35473 5.48999 8.10758 5.61051C7.86044 5.73104 7.64376 5.90592 7.47379 6.12207C7.30382 6.33821 7.18496 6.59001 7.12611 6.85861C7.06725 7.12721 7.06994 7.40564 7.13396 7.67306L8.52526 13.3426C8.61949 13.7399 8.84539 14.0937 9.16621 14.3463C9.48703 14.5989 9.88389 14.7355 10.2922 14.7339H19.0087C19.4171 14.7355 19.8139 14.5989 20.1347 14.3463C20.4556 14.0937 20.6815 13.7399 20.7757 13.3426L22.167 7.67306C22.2324 7.40553 22.2361 7.12663 22.1778 6.85746C22.1195 6.58829 22.0008 6.33591 21.8305 6.11942C21.6603 5.90293 21.443 5.728 21.1952 5.60789C20.9474 5.48777 20.6754 5.42561 20.4 5.4261H8.90092Z" fill="#535F6B"/>
<path d="M6.4779 9.56523C6.27924 9.56289 6.08737 9.49258 5.93422 9.36601C5.78107 9.23944 5.67589 9.06425 5.63616 8.86958L4.39095 3.46437C4.27596 2.97197 3.99727 2.53318 3.60046 2.21978C3.20366 1.90638 2.71224 1.73693 2.2066 1.73915H1.07269C0.842067 1.73915 0.620889 1.64754 0.457815 1.48446C0.29474 1.32139 0.203125 1.10021 0.203125 0.869589C0.203125 0.638966 0.29474 0.417789 0.457815 0.254714C0.620889 0.0916388 0.842067 2.42553e-05 1.07269 2.42553e-05H2.2066C3.10524 -0.00311502 3.9784 0.298558 4.68344 0.855769C5.38848 1.41298 5.88375 2.1928 6.08834 3.06785L7.3266 8.47306C7.3534 8.58409 7.35788 8.69933 7.33979 8.81211C7.3217 8.92488 7.28139 9.03294 7.22121 9.13001C7.16102 9.22708 7.08216 9.31124 6.98919 9.37759C6.89622 9.44394 6.79101 9.49117 6.67964 9.51654C6.61428 9.53976 6.54666 9.55608 6.4779 9.56523ZM10.4083 24C9.85799 24 9.32 23.8368 8.8624 23.531C8.4048 23.2253 8.04815 22.7907 7.83754 22.2823C7.62693 21.7738 7.57183 21.2143 7.67919 20.6745C7.78656 20.1348 8.05158 19.6389 8.44073 19.2498C8.82989 18.8606 9.3257 18.5956 9.86547 18.4883C10.4052 18.3809 10.9647 18.436 11.4732 18.6466C11.9816 18.8572 12.4162 19.2139 12.722 19.6715C13.0277 20.1291 13.1909 20.667 13.1909 21.2174C13.1909 21.9554 12.8978 22.6632 12.3759 23.185C11.8541 23.7068 11.1463 24 10.4083 24ZM10.4083 20.1461C10.1992 20.1461 9.99477 20.2081 9.82088 20.3243C9.64699 20.4405 9.51146 20.6056 9.43143 20.7988C9.3514 20.992 9.33046 21.2047 9.37126 21.4098C9.41206 21.6149 9.51277 21.8033 9.66065 21.9512C9.80852 22.099 9.99693 22.1998 10.202 22.2406C10.4072 22.2814 10.6198 22.2604 10.813 22.1804C11.0062 22.1003 11.1713 21.9648 11.2875 21.7909C11.4037 21.617 11.4657 21.4126 11.4657 21.2035C11.4657 20.923 11.3543 20.6541 11.156 20.4558C10.9577 20.2575 10.6888 20.1461 10.4083 20.1461ZM20.0222 24C19.4719 24 18.9339 23.8368 18.4763 23.531C18.0187 23.2253 17.6621 22.7907 17.4514 22.2823C17.2408 21.7738 17.1857 21.2143 17.2931 20.6745C17.4005 20.1348 17.6655 19.6389 18.0546 19.2498C18.4438 18.8606 18.9396 18.5956 19.4794 18.4883C20.0191 18.3809 20.5786 18.436 21.0871 18.6466C21.5955 18.8572 22.0301 19.2139 22.3359 19.6715C22.6416 20.1291 22.8048 20.667 22.8048 21.2174C22.8048 21.9554 22.5117 22.6632 21.9898 23.185C21.468 23.7068 20.7602 24 20.0222 24ZM20.0222 20.1461C19.8134 20.1475 19.6097 20.2106 19.4367 20.3277C19.2637 20.4447 19.1293 20.6103 19.0503 20.8036C18.9713 20.997 18.9514 21.2093 18.993 21.414C19.0346 21.6187 19.1358 21.8064 19.284 21.9536C19.4321 22.1008 19.6205 22.2008 19.8255 22.241C20.0304 22.2813 20.2426 22.2599 20.4354 22.1797C20.6282 22.0995 20.793 21.9639 20.9089 21.7902C21.0247 21.6165 21.0866 21.4123 21.0866 21.2035C21.0866 21.064 21.059 20.926 21.0054 20.7972C20.9519 20.6685 20.8734 20.5516 20.7744 20.4533C20.6755 20.355 20.5581 20.2773 20.429 20.2246C20.2999 20.1718 20.1617 20.1452 20.0222 20.1461Z" fill="#535F6B"/>
<path d="M20.0242 20.1462H8.4346C7.7169 20.1462 7.0286 19.8611 6.52111 19.3536C6.01362 18.8461 5.72852 18.1578 5.72852 17.4401C5.72852 16.7224 6.01362 16.0341 6.52111 15.5266C7.0286 15.0191 7.7169 14.734 8.4346 14.734H10.2781C10.5087 14.734 10.7299 14.8256 10.893 14.9887C11.056 15.1518 11.1476 15.373 11.1476 15.6036C11.1476 15.8342 11.056 16.0554 10.893 16.2184C10.7299 16.3815 10.5087 16.4731 10.2781 16.4731H8.4346C8.17815 16.4731 7.9322 16.575 7.75086 16.7564C7.56952 16.9377 7.46764 17.1836 7.46764 17.4401C7.46764 17.6965 7.56952 17.9425 7.75086 18.1238C7.9322 18.3052 8.17815 18.407 8.4346 18.407H20.0242C20.2548 18.407 20.476 18.4987 20.639 18.6617C20.8021 18.8248 20.8937 19.046 20.8937 19.2766C20.8937 19.5072 20.8021 19.7284 20.639 19.8915C20.476 20.0546 20.2548 20.1462 20.0242 20.1462Z" fill="#535F6B"/>
</svg>
