<svg width="26" height="26" viewBox="0 0 26 26" fill="none" xmlns="http://www.w3.org/2000/svg">
<path d="M19.1776 18.7484C16.4521 18.7856 13.822 17.7462 11.8583 15.8559C9.89464 13.9656 8.756 11.3771 8.68963 8.65235C8.69014 7.31542 8.96145 5.99243 9.48718 4.76319C10.0129 3.53394 10.7822 2.4239 11.7486 1.5C8.88362 1.78285 6.2236 3.11239 4.27785 5.23407C2.33209 7.35575 1.23732 10.1205 1.20312 12.999C1.27256 16.1109 2.57271 19.0685 4.81876 21.2239C7.06481 23.3792 10.0736 24.5565 13.1861 24.4979C15.5039 24.5182 17.778 23.8664 19.7332 22.6216C21.6884 21.3768 23.2409 19.5921 24.2031 17.4835C22.657 18.3108 20.9312 18.7451 19.1776 18.7484Z" stroke="#535F6B" stroke-width="2" stroke-linecap="round" stroke-linejoin="round"/>
</svg>
