<?xml version="1.0" encoding="UTF-8"?>
<!-- Generator: visioncortex VTracer 0.6.3 -->
<svg version="1.1" xmlns="http://www.w3.org/2000/svg" width="1280" height="1280">
<path d="M0 0 C1.34 -0 2.67 -0 4.01 -0 C6.79 -0 9.58 -0 12.36 0 C15.91 0.01 19.46 0 23.01 -0 C25.76 -0 28.51 -0 31.27 -0 C33.21 -0 35.14 -0 37.08 -0.01 C43.18 0.01 49.03 0.24 55.06 1.13 C56.48 1.23 57.91 1.3 59.34 1.34 C60.08 1.37 60.83 1.4 61.61 1.42 C62.39 1.45 63.18 1.48 64 1.51 C72.25 1.86 80.42 2.64 88.62 3.63 C90.25 3.83 90.25 3.83 91.92 4.03 C99.65 5 99.65 5 103.06 6.13 C104.95 6.29 106.85 6.41 108.75 6.51 C116.67 7.06 124.29 8.55 132.06 10.13 C133.81 10.49 135.56 10.84 137.31 11.2 C138.08 11.35 138.85 11.51 139.64 11.67 C142.44 12.2 145.24 12.63 148.06 13.07 C152.66 13.82 156.94 14.93 161.37 16.35 C164.53 17.27 167.71 17.92 170.93 18.57 C176.55 19.73 181.83 21.33 187.24 23.23 C190.74 24.35 194.23 24.99 197.84 25.64 C201.09 26.36 204 27.81 207.06 29.13 C210.16 29.95 213.26 30.68 216.39 31.39 C219.06 32.13 219.06 32.13 222.06 34.13 C223.59 34.57 225.13 34.96 226.68 35.32 C232.62 36.86 238.13 39.12 243.76 41.5 C248.83 43.65 253.93 45.57 259.15 47.31 C261.06 48.13 261.06 48.13 262.06 50.13 C262.9 50.26 263.75 50.39 264.62 50.53 C268.87 51.28 272.21 52.92 276.06 54.82 C277.57 55.55 279.08 56.28 280.59 57.01 C281.72 57.55 281.72 57.55 282.86 58.1 C286.06 59.6 289.3 60.96 292.56 62.32 C297.25 64.3 301.68 66.47 306.08 69.03 C308.98 70.65 311.98 71.89 315.06 73.13 C315.06 73.79 315.06 74.45 315.06 75.13 C315.57 75.24 316.09 75.34 316.62 75.45 C322.21 77.02 326.91 79.55 331.75 82.68 C337.65 86.4 343.74 89.83 349.81 93.26 C352.37 94.73 354.91 96.22 357.43 97.76 C358.1 98.16 358.77 98.57 359.46 98.98 C361.06 100.13 361.06 100.13 362.06 102.13 C362.84 102.26 363.63 102.38 364.43 102.51 C367.77 103.3 368.05 104.43 370.06 107.13 C371.68 108.09 373.3 109.04 374.96 109.93 C381.05 113.41 386.6 117.76 392.06 122.13 C394.57 123.7 397.12 125.17 399.68 126.63 C401.83 127.99 403.45 129.19 405.06 131.13 C405.06 131.79 405.06 132.45 405.06 133.13 C405.74 133.34 406.42 133.55 407.12 133.76 C410.97 135.56 414.14 138.03 417.06 141.13 C417.06 141.79 417.06 142.45 417.06 143.13 C417.8 143.22 418.54 143.3 419.31 143.39 C422.62 144.28 423.78 145.49 426.06 148.01 C428.88 151 431.46 153.11 435.06 155.13 C435.06 155.79 435.06 156.45 435.06 157.13 C435.9 157.48 435.9 157.48 436.76 157.84 C439.65 159.46 441.57 161.5 443.87 163.88 C446.87 166.96 449.86 169.9 453.18 172.63 C454.13 173.46 455.08 174.28 456.06 175.13 C456.06 175.79 456.06 176.45 456.06 177.13 C456.74 177.32 457.42 177.5 458.12 177.7 C462.27 179.72 464.92 182.8 468.06 186.13 C468.9 186.98 469.75 187.82 470.62 188.7 C471.43 189.5 472.23 190.3 473.06 191.13 C473.58 191.63 474.1 192.12 474.63 192.63 C477.45 195.36 479.34 197.59 481.06 201.13 C482.7 202.83 484.36 204.49 486.06 206.13 C488.5 208.52 490.94 210.92 493.37 213.32 C494.02 213.95 494.66 214.58 495.33 215.22 C496.24 216.13 496.24 216.13 497.17 217.05 C498 217.87 498 217.87 498.85 218.7 C500.06 220.13 500.06 220.13 500.06 222.13 C500.72 222.13 501.38 222.13 502.06 222.13 C503.29 223.57 503.29 223.57 504.68 225.57 C507.02 228.81 509.49 231.8 512.18 234.76 C515.17 238.06 517.61 241.42 520.06 245.13 C521.5 246.91 522.96 248.68 524.43 250.45 C527.84 254.55 530.9 258.73 533.79 263.21 C535.4 265.65 537.22 267.87 539.06 270.13 C539.99 271.35 540.9 272.58 541.81 273.82 C542.45 274.69 542.45 274.69 543.11 275.58 C544.06 277.13 544.06 277.13 544.06 279.13 C544.88 279.94 545.71 280.74 546.56 281.57 C549.06 284.13 549.06 284.13 549.06 287.13 C549.72 287.13 550.38 287.13 551.06 287.13 C551.47 288.02 551.88 288.91 552.31 289.82 C553.89 293.07 553.89 293.07 555.87 295.38 C558.44 298.61 560.45 302.01 562.53 305.57 C564.31 308.56 566.22 311.46 568.18 314.34 C569.06 316.13 569.06 316.13 569.06 320.13 C570.05 320.46 571.04 320.79 572.06 321.13 C573.18 322.73 573.18 322.73 574.21 324.77 C574.6 325.51 574.98 326.26 575.38 327.02 C575.96 328.19 575.96 328.19 576.56 329.38 C577.34 330.91 578.12 332.44 578.9 333.96 C579.27 334.68 579.64 335.41 580.02 336.15 C580.88 337.8 581.82 339.4 582.78 340.99 C584.06 343.13 584.06 343.13 585.06 346.13 C584.73 346.79 584.4 347.45 584.06 348.13 C584.93 348.4 584.93 348.4 585.82 348.67 C589.15 350.85 590.3 354.04 591.87 357.57 C592.36 358.59 592.36 358.59 592.85 359.63 C595.19 364.74 595.19 364.74 594.06 368.13 C594.72 368.13 595.38 368.13 596.06 368.13 C596.43 369.12 596.43 369.12 596.81 370.14 C598.67 374.6 600.92 378.86 603.14 383.16 C605.13 387.09 606.75 390.91 608.06 395.13 C608.55 396.29 609.05 397.44 609.56 398.63 C611.06 402.13 611.06 402.13 612.06 405.2 C613.01 408.2 613.01 408.2 614.56 411.13 C616.04 414.1 617.05 416.98 618.06 420.13 C618.55 421.45 619.05 422.76 619.56 424.07 C620.94 427.71 621.99 431.39 623.06 435.13 C623.55 436.47 624.05 437.8 624.56 439.13 C626.48 444.16 627.86 449.28 629.12 454.51 C629.68 457.92 629.68 457.92 631.06 459.13 C631.38 460.46 631.67 461.79 631.93 463.13 C632.63 466.44 633.5 469.57 634.62 472.76 C635.93 476.53 636.53 480.16 637.06 484.13 C637.52 485.47 637.52 485.47 637.99 486.84 C639.41 491.23 640.14 495.68 640.91 500.21 C641.65 504.34 642.68 508.18 644.06 512.13 C645.68 518.5 646.36 524.82 646.71 531.37 C647.08 534.27 647.97 536.44 649.06 539.13 C649.31 541 649.5 542.88 649.62 544.76 C649.83 547.84 650.08 550.18 651.06 553.13 C651.29 556.44 651.45 559.75 651.58 563.06 C651.73 566.21 651.98 568.93 653.06 571.9 C654.6 576.88 654.45 581.88 654.56 587.07 C654.6 589.18 654.65 591.3 654.71 593.41 C654.73 594.34 654.75 595.27 654.77 596.23 C654.97 599.23 654.97 599.23 656.06 602.38 C657.06 606.14 657.31 609.25 657.32 613.13 C657.32 613.8 657.32 614.46 657.33 615.14 C657.34 617.3 657.33 619.47 657.32 621.63 C657.33 623.15 657.33 624.66 657.33 626.18 C657.33 629.36 657.33 632.53 657.32 635.7 C657.31 639.75 657.31 643.8 657.33 647.85 C657.33 650.98 657.33 654.11 657.33 657.25 C657.32 658.74 657.33 660.23 657.33 661.72 C657.35 669.15 657.18 675.97 655.06 683.13 C654.74 686.11 654.74 686.11 654.71 688.95 C654.69 689.98 654.66 691.01 654.62 692.07 C654.58 694.2 654.54 696.33 654.49 698.46 C654.34 703.81 653.9 708.08 652.06 713.13 C651.7 717.01 651.56 720.88 651.4 724.77 C651.06 728.13 651.06 728.13 649.06 731.13 C648.92 734.41 649.06 737.63 649.18 740.91 C649.06 744.22 648.33 746.11 647.06 749.13 C646.65 751.54 646.3 753.96 646 756.38 C645.16 763.03 645.16 763.03 644.06 764.13 C643.85 765.96 643.69 767.8 643.56 769.63 C643.17 775.02 643.17 775.02 642.06 776.13 C641.69 777.62 641.36 779.13 641.06 780.63 C640.17 785.02 640.17 785.02 639.06 786.13 C639.08 787.25 639.1 788.36 639.12 789.51 C639.06 793.13 639.06 793.13 637.06 796.13 C636.68 798.12 636.68 798.12 636.56 800.2 C636.06 804.13 636.06 804.13 634.06 806.13 C633.71 808.07 633.71 808.07 633.62 810.26 C633.22 814.78 632.4 820.79 629.06 824.13 C629.1 825.46 629.1 825.46 629.14 826.8 C629.05 830.53 628.18 832.96 626.75 836.38 C624.52 841.9 622.7 847.42 621.06 853.13 C619.55 857.86 617.82 862.49 616.06 867.13 C615.4 867.13 614.74 867.13 614.06 867.13 C613.87 868.96 613.87 868.96 613.68 870.82 C613.27 874.2 612.51 877.03 611.06 880.13 C610.4 880.13 609.74 880.13 609.06 880.13 C608.96 881.35 608.85 882.57 608.75 883.82 C608.29 887.58 607.18 889.96 605.06 893.13 C604.36 895.32 604.36 895.32 604.06 897.13 C603.4 897.13 602.74 897.13 602.06 897.13 C601.83 898.25 601.6 899.36 601.37 900.51 C600.05 905.79 597.59 910.34 595.06 915.13 C594.22 916.8 593.39 918.46 592.56 920.13 C582.43 940.38 582.43 940.38 581.18 942.88 C580.26 944.73 579.35 946.59 578.43 948.45 C577.08 951.09 575.59 953.59 574.06 956.13 C572.26 959.25 570.47 962.37 568.68 965.49 C567.06 968.13 567.06 968.13 565.06 970.13 C564.39 971.8 563.72 973.47 563.06 975.13 C561.97 976.99 560.85 978.82 559.68 980.63 C559.1 981.55 558.51 982.47 557.91 983.41 C556.08 986.1 554.1 988.61 552.06 991.13 C551.05 992.79 550.05 994.46 549.06 996.13 C548.15 997.51 547.23 998.89 546.31 1000.26 C540.3 1008.97 540.3 1008.97 535.06 1018.13 C534.4 1018.13 533.74 1018.13 533.06 1018.13 C532.79 1018.71 532.51 1019.29 532.23 1019.89 C529.71 1024.72 526.26 1028.96 522.37 1032.76 C519.93 1035.02 519.93 1035.02 518.62 1038.01 C516.64 1041.97 514.01 1044.86 511.06 1048.13 C510.52 1048.76 509.98 1049.39 509.43 1050.04 C505.53 1054.59 501.41 1058.81 497.07 1062.96 C494.99 1065.21 493.56 1067.46 492.06 1070.13 C491.4 1071.12 490.74 1072.11 490.06 1073.13 C489.4 1073.13 488.74 1073.13 488.06 1073.13 C487.73 1074.12 487.4 1075.11 487.06 1076.13 C486.4 1076.13 485.74 1076.13 485.06 1076.13 C485.06 1076.79 485.06 1077.45 485.06 1078.13 C484.4 1078.13 483.74 1078.13 483.06 1078.13 C482.73 1079.12 482.4 1080.11 482.06 1081.13 C481.4 1081.13 480.74 1081.13 480.06 1081.13 C479.83 1081.69 479.59 1082.25 479.35 1082.82 C477.72 1085.73 475.7 1087.75 473.34 1090.12 C472.41 1091.05 471.48 1091.99 470.52 1092.95 C470.03 1093.43 469.55 1093.91 469.05 1094.41 C467.56 1095.88 466.08 1097.37 464.6 1098.86 C463.67 1099.79 462.74 1100.72 461.78 1101.68 C460.92 1102.53 460.06 1103.39 459.18 1104.27 C457.06 1106.13 457.06 1106.13 455.06 1106.13 C455.06 1106.79 455.06 1107.45 455.06 1108.13 C454.4 1108.13 453.74 1108.13 453.06 1108.13 C452.73 1109.12 452.4 1110.11 452.06 1111.13 C451.4 1111.13 450.74 1111.13 450.06 1111.13 C450.06 1111.79 450.06 1112.45 450.06 1113.13 C448.37 1114.61 448.37 1114.61 446.06 1116.32 C441.54 1119.74 437.29 1123.37 433.06 1127.13 C431.07 1128.88 429.08 1130.62 427.08 1132.36 C425.66 1133.6 424.25 1134.86 422.85 1136.13 C422.13 1136.77 421.42 1137.41 420.68 1138.07 C420.04 1138.66 419.39 1139.24 418.72 1139.85 C417.06 1141.13 417.06 1141.13 415.06 1141.13 C415.06 1141.79 415.06 1142.45 415.06 1143.13 C413.41 1144.32 413.41 1144.32 411.25 1145.57 C408.45 1147.2 406.31 1148.81 404.06 1151.13 C403.3 1151.59 402.53 1152.04 401.75 1152.51 C398.57 1154.43 395.9 1156.75 393.06 1159.13 C391.08 1160.49 389.08 1161.83 387.06 1163.13 C384.13 1165.05 381.29 1166.95 378.56 1169.13 C374.06 1172.73 369.3 1175.58 364.31 1178.45 C360.36 1180.73 356.58 1183.1 352.87 1185.76 C349.23 1188.36 345.56 1190.63 341.62 1192.74 C337.69 1194.88 333.81 1197.13 329.93 1199.37 C327.01 1201.04 324.08 1202.64 321.06 1204.13 C320.23 1204.65 319.41 1205.16 318.56 1205.7 C316.06 1207.13 316.06 1207.13 314.12 1207.57 C311.83 1208.08 311.83 1208.08 309.37 1209.94 C306.02 1212.16 302.59 1214 299 1215.76 C298.1 1216.21 298.1 1216.21 297.18 1216.66 C293.11 1218.68 288.99 1220.4 284.75 1222.01 C282.55 1222.93 280.49 1223.92 278.37 1225.01 C274.46 1226.99 270.46 1228.6 266.38 1230.19 C264.48 1230.96 262.64 1231.84 260.81 1232.76 C257.94 1234.19 255.1 1235.14 252.06 1236.13 C250.45 1236.82 248.84 1237.51 247.23 1238.21 C236.72 1242.65 225.99 1246.34 215.03 1249.48 C213.08 1249.96 213.08 1249.96 212.06 1251.13 C209.77 1251.41 207.48 1251.58 205.19 1251.75 C202.85 1251.96 202.85 1251.96 201.06 1254.13 C195.47 1256.11 189.95 1256.68 184.06 1257.13 C184.06 1257.79 184.06 1258.45 184.06 1259.13 C177.51 1261.42 170.95 1261.74 164.06 1262.13 C164.06 1262.79 164.06 1263.45 164.06 1264.13 C163.37 1264.27 162.68 1264.4 161.98 1264.54 C161.08 1264.71 160.17 1264.89 159.25 1265.07 C157.91 1265.33 157.91 1265.33 156.54 1265.6 C153.94 1266.11 153.94 1266.11 151.06 1267.13 C150.27 1267.11 149.49 1267.09 148.68 1267.07 C146.06 1266.97 146.06 1266.97 143.87 1268.07 C140.34 1269.4 137.01 1269.61 133.27 1269.89 C131.02 1270.01 131.02 1270.01 129.06 1271.13 C125.75 1271.41 122.44 1271.58 119.12 1271.75 C115.89 1271.92 115.89 1271.92 113.06 1274.13 C110.65 1274.38 108.23 1274.54 105.81 1274.63 C101.85 1274.79 98.44 1275.02 94.63 1276.13 C90.4 1277.32 86.49 1277.51 82.12 1277.63 C80.59 1277.68 79.06 1277.73 77.53 1277.79 C76.86 1277.81 76.2 1277.83 75.51 1277.85 C72.84 1278.09 72.84 1278.09 69.51 1279.13 C64.77 1280.33 60.23 1280.41 55.36 1280.39 C54.42 1280.4 53.49 1280.4 52.52 1280.4 C49.45 1280.41 46.38 1280.41 43.3 1280.4 C41.16 1280.4 39.01 1280.4 36.87 1280.4 C32.38 1280.41 27.89 1280.4 23.4 1280.39 C17.65 1280.38 11.91 1280.39 6.16 1280.4 C1.73 1280.41 -2.7 1280.41 -7.13 1280.4 C-9.25 1280.4 -11.36 1280.4 -13.48 1280.41 C-16.44 1280.41 -19.41 1280.4 -22.37 1280.39 C-23.24 1280.4 -24.11 1280.4 -25 1280.4 C-30.05 1280.37 -34.15 1279.7 -38.94 1278.13 C-41.34 1277.81 -41.34 1277.81 -43.57 1277.79 C-44.38 1277.76 -45.19 1277.73 -46.02 1277.7 C-47.68 1277.65 -49.34 1277.61 -51 1277.57 C-55.74 1277.39 -59.43 1276.68 -63.94 1275.13 C-67.34 1274.83 -70.7 1274.67 -74.11 1274.57 C-78.17 1274.39 -81.23 1273.73 -84.94 1272.13 C-87.54 1271.72 -87.54 1271.72 -90.13 1271.57 C-94.74 1271.23 -94.74 1271.23 -96.94 1270.13 C-99.7 1269.86 -102.45 1269.69 -105.21 1269.51 C-107.92 1269.14 -109.55 1268.37 -111.94 1267.13 C-113.12 1267.13 -114.29 1267.13 -115.5 1267.13 C-118.94 1267.13 -118.94 1267.13 -121.94 1265.13 C-124.12 1264.75 -124.12 1264.75 -126.44 1264.63 C-129.92 1264.4 -130.9 1264.16 -133.94 1262.13 C-136.19 1261.72 -136.19 1261.72 -138.57 1261.57 C-142.84 1261.23 -142.84 1261.23 -143.94 1260.13 C-145.27 1259.81 -146.6 1259.52 -147.94 1259.26 C-152 1258.4 -155.84 1257.21 -159.75 1255.86 C-163.73 1254.54 -167.81 1253.6 -171.9 1252.71 C-176.53 1251.66 -180.56 1250.01 -184.86 1248 C-187.04 1247 -187.04 1247 -189.94 1246.63 C-193.58 1246.03 -196.45 1244.6 -199.78 1243.04 C-202.04 1241.99 -202.04 1241.99 -205.07 1241.63 C-208.19 1241.09 -210.25 1239.84 -212.93 1238.19 C-216.7 1236.21 -220.84 1235.22 -224.94 1234.13 C-224.94 1233.47 -224.94 1232.81 -224.94 1232.13 C-226.12 1232.05 -227.29 1231.97 -228.5 1231.88 C-233.13 1231.32 -236.02 1229.62 -239.94 1227.13 C-242.6 1225.69 -244.98 1224.77 -247.94 1224.13 C-247.94 1223.47 -247.94 1222.81 -247.94 1222.13 C-248.96 1222.04 -249.97 1221.95 -251.02 1221.85 C-255.24 1221.08 -257.97 1219.75 -261.69 1217.63 C-268.48 1213.84 -275.42 1210.48 -282.51 1207.28 C-286.8 1205.3 -290.33 1203.25 -293.94 1200.13 C-295.92 1199.1 -297.93 1198.1 -299.94 1197.13 C-302.75 1195.62 -305.56 1194.08 -308.36 1192.54 C-310.53 1191.36 -312.72 1190.22 -314.94 1189.13 C-314.94 1188.47 -314.94 1187.81 -314.94 1187.13 C-315.66 1187.05 -316.39 1186.97 -317.13 1186.88 C-320.57 1185.97 -322.19 1184.39 -324.94 1182.13 C-326.41 1181.3 -327.89 1180.49 -329.38 1179.7 C-333.33 1177.57 -336.49 1175.01 -339.94 1172.13 C-341.43 1171.27 -342.93 1170.44 -344.44 1169.63 C-348.43 1167.5 -351.53 1165.09 -354.94 1162.13 C-355.87 1161.51 -356.8 1160.9 -357.75 1160.26 C-362.99 1156.76 -367.89 1152.82 -372.75 1148.82 C-374.76 1147.28 -376.64 1146.16 -378.94 1145.13 C-378.94 1144.47 -378.94 1143.81 -378.94 1143.13 C-379.84 1142.73 -379.84 1142.73 -380.75 1142.32 C-382.95 1141.13 -384.19 1139.89 -385.94 1138.13 C-387.02 1137.55 -387.02 1137.55 -388.13 1136.95 C-390.76 1135.25 -392.49 1133.63 -394.63 1131.38 C-398.4 1127.47 -402.48 1124.53 -407.04 1121.58 C-407.66 1121.1 -408.29 1120.62 -408.94 1120.13 C-408.94 1119.47 -408.94 1118.81 -408.94 1118.13 C-409.79 1117.77 -409.79 1117.77 -410.66 1117.41 C-413.4 1115.87 -415.21 1114.02 -417.38 1111.76 C-419.74 1109.34 -421.98 1107.1 -424.63 1105.01 C-427.28 1102.86 -429.3 1100.47 -431.48 1097.86 C-435.03 1093.68 -439.06 1090.14 -443.24 1086.61 C-445.59 1084.57 -447.77 1082.37 -449.94 1080.13 C-450.54 1079.58 -451.14 1079.02 -451.75 1078.45 C-452.94 1077.13 -452.94 1077.13 -452.94 1075.13 C-453.6 1075.13 -454.26 1075.13 -454.94 1075.13 C-456.45 1073.67 -456.45 1073.67 -458.07 1071.76 C-458.87 1070.82 -458.87 1070.82 -459.7 1069.86 C-460.94 1068.13 -460.94 1068.13 -460.94 1066.13 C-461.6 1066.13 -462.26 1066.13 -462.94 1066.13 C-464.54 1064.21 -466.03 1062.27 -467.5 1060.26 C-471.41 1055.04 -475.5 1050.13 -479.93 1045.35 C-485.94 1038.71 -485.94 1038.71 -485.94 1036.13 C-486.6 1036.13 -487.26 1036.13 -487.94 1036.13 C-489.13 1034.49 -489.13 1034.49 -490.38 1032.32 C-491.66 1030.11 -492.78 1028.3 -494.6 1026.5 C-495.94 1025.13 -495.94 1025.13 -495.94 1023.13 C-496.6 1023.13 -497.26 1023.13 -497.94 1023.13 C-498.21 1022.51 -498.48 1021.9 -498.75 1021.26 C-499.9 1018.83 -499.9 1018.83 -502.94 1017.13 C-504.56 1014.49 -504.94 1013.29 -504.94 1010.13 C-505.93 1009.8 -506.92 1009.47 -507.94 1009.13 C-509.22 1007.46 -509.22 1007.46 -510.44 1005.38 C-510.87 1004.66 -511.3 1003.95 -511.74 1003.21 C-512.71 1001.54 -513.67 999.87 -514.63 998.2 C-515.78 996 -515.78 996 -517.94 995.13 C-518.65 993.46 -518.65 993.46 -519.38 991.76 C-520.6 988.3 -520.6 988.3 -522.31 986.79 C-524.59 984.48 -526.01 981.87 -527.63 979.07 C-528.56 977.48 -528.56 977.48 -529.52 975.85 C-530.94 973.13 -530.94 973.13 -530.94 971.13 C-531.6 971.13 -532.26 971.13 -532.94 971.13 C-535.94 965.51 -535.94 965.51 -535.94 962.13 C-536.6 962.13 -537.26 962.13 -537.94 962.13 C-539.4 959.49 -539.94 958.24 -539.94 955.13 C-540.6 955.13 -541.26 955.13 -541.94 955.13 C-542.31 954.35 -542.68 953.57 -543.07 952.76 C-544.46 949.95 -546.05 947.31 -547.7 944.64 C-551.07 939.06 -553.87 933.28 -556.63 927.38 C-557.57 925.39 -558.51 923.39 -559.45 921.4 C-559.89 920.48 -560.32 919.55 -560.77 918.6 C-561.7 916.64 -562.67 914.69 -563.65 912.74 C-564.89 910.24 -565.94 907.74 -566.94 905.13 C-569.56 898.1 -569.56 898.1 -573.94 892.13 C-574.48 890.42 -574.95 888.69 -575.38 886.95 C-576.55 882.44 -578.01 878.38 -579.94 874.13 C-588.94 853.41 -588.94 853.41 -588.94 847.13 C-589.6 846.8 -590.26 846.47 -590.94 846.13 C-591.79 843.73 -591.79 843.73 -592.57 840.76 C-592.83 839.78 -593.09 838.8 -593.36 837.8 C-593.94 835.13 -593.94 835.13 -593.94 832.13 C-594.6 831.8 -595.26 831.47 -595.94 831.13 C-596.69 828.47 -597.34 825.83 -597.94 823.13 C-598.31 821.72 -598.69 820.3 -599.07 818.88 C-599.94 815.13 -599.94 815.13 -599.94 811.13 C-600.6 810.8 -601.26 810.47 -601.94 810.13 C-602.59 806.78 -602.97 803.43 -603.38 800.04 C-603.56 799.08 -603.75 798.12 -603.94 797.13 C-604.6 796.8 -605.26 796.47 -605.94 796.13 C-606.15 794.12 -606.36 792.11 -606.54 790.1 C-607.02 786.53 -607.9 783.11 -608.82 779.63 C-612.02 767.33 -613.86 754.8 -615.81 742.24 C-616.77 736.12 -617.82 730.01 -618.94 723.91 C-620.6 714.74 -621.2 705.77 -621.55 696.47 C-621.58 695.57 -621.62 694.67 -621.66 693.74 C-621.69 692.93 -621.72 692.11 -621.75 691.27 C-621.87 688.95 -621.87 688.95 -622.94 686.13 C-623.04 683.26 -623.08 680.42 -623.07 677.55 C-623.07 676.67 -623.07 675.8 -623.08 674.89 C-623.08 671.99 -623.08 669.08 -623.07 666.18 C-623.07 664.16 -623.08 662.14 -623.08 660.12 C-623.08 655.89 -623.08 651.65 -623.07 647.41 C-623.07 641.99 -623.07 636.57 -623.08 631.15 C-623.08 626.97 -623.08 622.8 -623.08 618.63 C-623.07 616.63 -623.08 614.63 -623.08 612.63 C-623.08 609.83 -623.08 607.03 -623.07 604.23 C-623.07 603.41 -623.07 602.59 -623.08 601.75 C-623.06 597.12 -622.69 592.72 -621.94 588.13 C-621.82 586.77 -621.73 585.41 -621.66 584.05 C-621.62 583.35 -621.59 582.65 -621.55 581.93 C-621.51 581.21 -621.48 580.5 -621.44 579.76 C-620.92 570.41 -619.84 561.5 -618.03 552.31 C-616.82 545.95 -616.26 539.6 -615.94 533.13 C-615.28 533.13 -614.62 533.13 -613.94 533.13 C-614.44 531.65 -614.44 531.65 -614.94 530.13 C-614.64 527.86 -614.64 527.86 -614.07 525.32 C-613.78 523.98 -613.78 523.98 -613.48 522.62 C-613.31 521.8 -613.13 520.98 -612.94 520.13 C-612.1 515.48 -611.51 510.82 -610.94 506.13 C-610.28 506.13 -609.62 506.13 -608.94 506.13 C-608.98 504.94 -609.02 503.74 -609.07 502.51 C-609.07 498.67 -608.25 495.75 -606.94 492.13 C-606.57 489.81 -606.22 487.47 -605.94 485.13 C-605.28 485.13 -604.62 485.13 -603.94 485.13 C-604.27 484.14 -604.6 483.15 -604.94 482.13 C-604.3 480.12 -603.63 478.13 -602.94 476.13 C-602.2 472.81 -601.56 469.48 -600.94 466.13 C-600.28 466.13 -599.62 466.13 -598.94 466.13 C-598.98 465.08 -599.02 464.03 -599.07 462.95 C-598.95 459.27 -598.42 457.42 -596.94 454.13 C-596.48 452.49 -596.48 452.49 -596 450.82 C-594.94 447.13 -594.94 447.13 -593.5 443.45 C-591.76 438.97 -590.74 434.36 -589.69 429.67 C-588.94 427.13 -588.94 427.13 -586.94 425.13 C-586.54 422.81 -586.2 420.48 -585.94 418.13 C-585.28 418.13 -584.62 418.13 -583.94 418.13 C-583.94 416.81 -583.94 415.49 -583.94 414.13 C-583.28 414.13 -582.62 414.13 -581.94 414.13 C-581.82 412.92 -581.69 411.7 -581.57 410.45 C-581.14 407.07 -580.52 404.19 -578.94 401.13 C-578.28 400.8 -577.62 400.47 -576.94 400.13 C-576.76 398.56 -576.76 398.56 -576.57 396.95 C-575.87 392.69 -574.37 390.63 -571.94 387.13 C-571.29 384.56 -571.29 384.56 -570.94 382.13 C-569.36 378.34 -569.36 378.34 -566.94 377.13 C-566.29 374.61 -566.29 374.61 -565.94 372.13 C-565.28 372.13 -564.62 372.13 -563.94 372.13 C-564.44 370.65 -564.44 370.65 -564.94 369.13 C-564.02 367.05 -564.02 367.05 -562.63 364.76 C-560.77 361.6 -559.27 358.55 -557.94 355.13 C-556.95 353.46 -555.95 351.8 -554.94 350.13 C-553.57 347.48 -552.25 344.81 -550.94 342.13 C-550.28 342.13 -549.62 342.13 -548.94 342.13 C-549.44 340.65 -549.44 340.65 -549.94 339.13 C-548.57 337.13 -548.57 337.13 -546.94 335.13 C-546.61 334.14 -546.28 333.15 -545.94 332.13 C-545.28 332.13 -544.62 332.13 -543.94 332.13 C-544.44 330.65 -544.44 330.65 -544.94 329.13 C-543.95 328.47 -542.96 327.81 -541.94 327.13 C-540.71 324.73 -540.71 324.73 -539.75 322.01 C-539.41 321.1 -539.07 320.19 -538.71 319.25 C-538.46 318.55 -538.2 317.85 -537.94 317.13 C-537.28 317.13 -536.62 317.13 -535.94 317.13 C-535.84 316.39 -535.74 315.65 -535.63 314.88 C-534.89 311.93 -533.82 310.48 -531.94 308.13 C-531.61 307.14 -531.28 306.15 -530.94 305.13 C-530.28 305.13 -529.62 305.13 -528.94 305.13 C-528.94 304.14 -528.94 303.15 -528.94 302.13 C-527.95 302.13 -526.96 302.13 -525.94 302.13 C-526.44 300.65 -526.44 300.65 -526.94 299.13 C-525.67 297.42 -524.33 295.76 -522.94 294.13 C-522.23 292.82 -521.55 291.5 -520.94 290.13 C-520.28 290.13 -519.62 290.13 -518.94 290.13 C-518.94 289.14 -518.94 288.15 -518.94 287.13 C-518.28 286.47 -517.62 285.81 -516.94 285.13 C-516.45 284.12 -515.95 283.11 -515.44 282.07 C-513.94 279.13 -513.94 279.13 -511.94 278.13 C-511.61 277.14 -511.28 276.15 -510.94 275.13 C-510.28 275.13 -509.62 275.13 -508.94 275.13 C-508.61 273.81 -508.28 272.49 -507.94 271.13 C-507.28 271.46 -506.62 271.79 -505.94 272.13 C-505.84 271.39 -505.74 270.65 -505.63 269.88 C-504.87 266.86 -503.9 265.52 -501.94 263.13 C-501.26 262.06 -500.58 260.99 -499.88 259.88 C-499.24 258.98 -498.6 258.07 -497.94 257.13 C-497.28 257.13 -496.62 257.13 -495.94 257.13 C-495.61 256.14 -495.28 255.15 -494.94 254.13 C-493.37 251.15 -491.86 249.06 -489.44 246.7 C-486.79 244.23 -486.79 244.23 -485.32 240.88 C-483.94 238.13 -483.94 238.13 -480.94 237.13 C-480.61 236.47 -480.28 235.81 -479.94 235.13 C-478.94 233.13 -478.94 233.13 -475.94 232.13 C-475.82 231.57 -475.71 231.02 -475.59 230.44 C-474.61 226.93 -472.1 224.76 -469.63 222.2 C-468.65 221.17 -467.68 220.14 -466.7 219.11 C-466.23 218.61 -465.76 218.11 -465.27 217.59 C-464.06 216.26 -462.93 214.85 -461.8 213.43 C-460.12 211.36 -458.54 209.87 -456.44 208.26 C-452.85 205.29 -451.01 202.28 -448.94 198.13 C-448.28 198.13 -447.62 198.13 -446.94 198.13 C-446.71 197.58 -446.49 197.02 -446.25 196.45 C-444.56 193.47 -442.42 191.5 -439.94 189.13 C-439.15 188.31 -439.15 188.31 -438.35 187.48 C-436.92 185.99 -435.43 184.56 -433.94 183.13 C-433.28 183.13 -432.62 183.13 -431.94 183.13 C-431.67 182.49 -431.41 181.85 -431.13 181.2 C-429.94 179.13 -429.94 179.13 -426.94 178.13 C-426.65 177.51 -426.36 176.9 -426.07 176.26 C-424.56 173.41 -422.73 172.72 -419.94 171.13 C-417.81 169.56 -415.91 167.92 -413.94 166.13 C-413.94 165.47 -413.94 164.81 -413.94 164.13 C-413.22 163.7 -412.51 163.27 -411.77 162.83 C-408.55 160.9 -406.34 158.65 -403.75 155.95 C-402.19 154.3 -400.59 152.69 -398.94 151.13 C-398.28 151.13 -397.62 151.13 -396.94 151.13 C-396.94 150.47 -396.94 149.81 -396.94 149.13 C-394.94 148.47 -392.94 147.8 -390.94 147.13 C-390.63 146.49 -390.32 145.85 -390 145.2 C-388.68 142.63 -387.52 142.3 -384.94 141.13 C-383.92 140.16 -382.92 139.15 -381.94 138.13 C-380.28 136.79 -378.61 135.46 -376.94 134.13 C-376.28 133.47 -375.62 132.81 -374.94 132.13 C-373.62 132.13 -372.3 132.13 -370.94 132.13 C-370.94 131.14 -370.94 130.15 -370.94 129.13 C-369.95 129.13 -368.96 129.13 -367.94 129.13 C-367.69 128.53 -367.45 127.94 -367.19 127.32 C-365.27 123.96 -362.59 122.52 -359.32 120.57 C-356.87 119.22 -356.87 119.22 -354.94 117.13 C-352.62 115.86 -350.47 114.97 -347.94 114.13 C-347.94 113.47 -347.94 112.81 -347.94 112.13 C-347.36 111.86 -346.79 111.6 -346.19 111.32 C-343.89 110.2 -343.89 110.2 -341.94 108.51 C-339.94 107.13 -339.94 107.13 -335.94 107.13 C-335.94 106.14 -335.94 105.15 -335.94 104.13 C-334.95 104.13 -333.96 104.13 -332.94 104.13 C-332.94 103.47 -332.94 102.81 -332.94 102.13 C-332.36 102.05 -331.79 101.97 -331.19 101.88 C-328.76 101.27 -328.76 101.27 -326.94 99.07 C-324.94 97.13 -324.94 97.13 -320.94 97.13 C-320.63 96.17 -320.63 96.17 -320.32 95.2 C-318.94 93.13 -318.94 93.13 -315.82 92.38 C-314.87 92.3 -313.92 92.22 -312.94 92.13 C-312.61 91.14 -312.28 90.15 -311.94 89.13 C-310.23 88.38 -308.52 87.63 -306.78 86.96 C-304.68 86.11 -304.68 86.11 -302.25 83.95 C-299.94 82.13 -299.94 82.13 -295.94 82.13 C-295.94 81.47 -295.94 80.81 -295.94 80.13 C-295.18 79.84 -294.42 79.56 -293.63 79.26 C-290.79 78.17 -290.79 78.17 -287.94 76.13 C-287.28 76.13 -286.62 76.13 -285.94 76.13 C-285.36 75.49 -284.79 74.85 -284.19 74.2 C-281.46 71.69 -279.57 71.46 -275.94 71.13 C-275.94 70.47 -275.94 69.81 -275.94 69.13 C-275.3 68.94 -274.67 68.75 -274.01 68.55 C-273.18 68.29 -272.36 68.03 -271.5 67.76 C-270.68 67.5 -269.86 67.25 -269.01 66.98 C-266.76 66.32 -266.76 66.32 -265.94 64.13 C-263.49 62.59 -261.65 62.09 -258.75 61.63 C-257.83 61.47 -256.9 61.3 -255.94 61.13 C-255.61 60.47 -255.28 59.81 -254.94 59.13 C-252.83 58.17 -252.83 58.17 -250.19 57.2 C-247.3 56.1 -244.83 55.07 -242.19 53.45 C-239.48 51.86 -237.02 51.62 -233.94 51.13 C-233.61 50.47 -233.28 49.81 -232.94 49.13 C-231.28 48.77 -229.61 48.44 -227.94 48.13 C-227.26 47.78 -226.58 47.43 -225.88 47.07 C-223.94 46.13 -223.94 46.13 -219.94 46.13 C-219.94 45.47 -219.94 44.81 -219.94 44.13 C-218.89 43.84 -218.89 43.84 -217.82 43.55 C-216.91 43.29 -216 43.03 -215.07 42.76 C-213.71 42.37 -213.71 42.37 -212.32 41.98 C-209.8 41.27 -209.8 41.27 -207.94 39.13 C-204.88 38.26 -201.8 37.6 -198.69 36.91 C-195.82 36.34 -195.82 36.34 -193.94 34.13 C-191.95 33.74 -189.95 33.4 -187.94 33.13 C-187.94 32.8 -187.94 32.47 -187.94 32.13 C-187.04 31.95 -187.04 31.95 -186.11 31.77 C-185.31 31.6 -184.51 31.43 -183.69 31.26 C-182.9 31.1 -182.11 30.93 -181.3 30.77 C-178.95 30.23 -178.95 30.23 -177 29.12 C-173.62 27.5 -169.99 27.24 -166.3 26.7 C-165.52 26.51 -164.74 26.32 -163.94 26.13 C-163.61 25.47 -163.28 24.81 -162.94 24.13 C-160.29 23.54 -157.65 23.39 -154.94 23.13 C-154.94 22.8 -154.94 22.47 -154.94 22.13 C-154.02 22.06 -154.02 22.06 -153.08 21.98 C-151.87 21.87 -151.87 21.87 -150.63 21.76 C-149.83 21.69 -149.03 21.62 -148.2 21.55 C-145.67 21.24 -145.67 21.24 -142.94 19.13 C-137.42 17.89 -137.42 17.89 -134.94 19.13 C-134.94 18.47 -134.94 17.81 -134.94 17.13 C-134.32 17.1 -133.71 17.06 -133.07 17.02 C-127.61 16.6 -122.95 15.67 -117.85 13.66 C-115.94 13.13 -115.94 13.13 -112.94 14.13 C-112.94 13.47 -112.94 12.81 -112.94 12.13 C-111.73 12.06 -111.73 12.06 -110.49 11.98 C-108.89 11.87 -108.89 11.87 -107.25 11.76 C-106.2 11.69 -105.14 11.62 -104.05 11.55 C-101.01 11.14 -98.77 10.29 -95.94 9.13 C-93.3 8.75 -93.3 8.75 -90.69 8.57 C-87.51 8.58 -87.51 8.58 -84.94 7.13 C-82.78 6.97 -80.61 6.85 -78.44 6.76 C-72.96 6.47 -67.77 5.79 -62.38 4.7 C-50.57 2.35 -38.45 2.03 -26.45 1.38 C-23.89 1.2 -21.42 0.94 -18.89 0.61 C-12.6 -0.1 -6.32 -0.01 0 0 Z M-534.94 313.13 C-533.94 315.13 -533.94 315.13 -533.94 315.13 Z " fill="#F84C4C" transform="translate(622.94140625,-0.1328125)"/>
<path d="M0 0 C23.28 0.08 45.78 7.02 63.86 22.01 C64.75 22.72 65.63 23.44 66.55 24.17 C84.84 39.73 97.37 62.27 100.54 86.1 C102.04 104.75 100.46 123.53 99.13 142.15 C98.88 145.66 98.65 149.17 98.42 152.68 C97.42 167.54 95.95 182.33 94.39 197.14 C93.11 209.4 91.95 221.66 90.9 233.94 C90.24 241.46 89.36 248.92 88.33 256.4 C87.61 261.9 87.12 267.42 86.61 272.95 C83.38 306.36 78.76 339.65 74.15 372.89 C73.86 374.96 73.58 377.02 73.3 379.08 C67.84 419.07 61.65 459.02 53.56 498.57 C52.95 501.56 52.36 504.55 51.78 507.54 C49.95 517.02 47.92 526.46 45.82 535.88 C45.52 537.23 45.22 538.58 44.92 539.93 C43.19 547.78 41.21 555.48 38.74 563.14 C37.87 565.97 37.15 568.81 36.48 571.7 C34.65 579.26 32.07 586.57 29.55 593.93 C28.96 595.71 28.4 597.5 27.86 599.3 C24.14 611.56 17.16 627.99 5.86 635.01 C1.65 635.93 -2.39 635.81 -6.33 634.01 C-28.58 618.7 -36.38 577.95 -41.62 552.95 C-42.66 548.04 -43.84 543.18 -45.07 538.32 C-59.16 482.43 -67.04 424.87 -74.91 367.84 C-75.7 362.13 -76.51 356.43 -77.34 350.72 C-78.69 341.44 -79.88 332.16 -80.91 322.84 C-81.32 319.08 -81.75 315.32 -82.17 311.56 C-82.25 310.82 -82.34 310.08 -82.42 309.32 C-83.14 303 -83.91 296.69 -84.71 290.38 C-84.89 288.95 -84.89 288.95 -85.07 287.48 C-85.54 283.74 -86.02 279.99 -86.5 276.25 C-88.53 260.37 -90.1 244.46 -91.59 228.53 C-91.76 226.7 -91.93 224.87 -92.1 223.05 C-92.18 222.14 -92.27 221.22 -92.36 220.29 C-93.2 211.31 -94.1 202.35 -95.01 193.38 C-98.12 162.62 -98.12 162.62 -99.14 149.01 C-99.28 147.22 -99.28 147.22 -99.42 145.39 C-103.36 91.79 -103.36 91.79 -97.14 72.01 C-96.83 70.98 -96.83 70.98 -96.51 69.93 C-90.31 50.13 -77.2 31.9 -60.14 20.01 C-59.3 19.42 -58.47 18.83 -57.6 18.22 C-40.23 6.59 -20.93 0.08 0 0 Z " fill="#FCFDFF" transform="translate(640.142578125,219.9921875)"/>
<path d="M0 0 C1.07 0.35 2.13 0.7 3.23 1.07 C16.72 5.86 26.99 13.01 37 23 C37.74 23.73 38.49 24.46 39.25 25.21 C53.54 40.2 61.64 61.73 61.44 82.25 C61.43 83.34 61.43 84.42 61.42 85.54 C61.24 94.57 59.91 102.45 57 111 C56.72 111.89 56.45 112.78 56.16 113.7 C49.48 132.82 33.23 150.17 15.27 158.96 C-6.77 169.27 -32.48 172.06 -55.68 163.71 C-77.29 155.57 -96.92 140.17 -107 119 C-116.33 95.04 -117.4 73.07 -107.46 49.07 C-96.82 26.68 -79.98 11.01 -57 2 C-39.22 -4.21 -18.11 -6.3 0 0 Z " fill="#FCFDFF" transform="translate(671,911)"/>
<path d="M0 0 C0.33 0 0.66 0 1 0 C1 3.3 1 6.6 1 10 C0.67 10 0.34 10 0 10 C0 6.7 0 3.4 0 0 Z " fill="#000000" transform="translate(1272,731)"/>
<path d="M0 0 C2.31 0 4.62 0 7 0 C7 0.33 7 0.66 7 1 C4.69 1 2.38 1 0 1 C0 0.67 0 0.34 0 0 Z " fill="#000000" transform="translate(739,1272)"/>
<path d="M0 0 C0.33 0 0.66 0 1 0 C1 1.98 1 3.96 1 6 C0.67 6 0.34 6 0 6 C0 4.02 0 2.04 0 0 Z " fill="#000000" transform="translate(1275,563)"/>
<path d="M0 0 C1.65 0 3.3 0 5 0 C5 0.33 5 0.66 5 1 C3.35 1 1.7 1 0 1 C0 0.67 0 0.34 0 0 Z " fill="#000000" transform="translate(554,1275)"/>
<path d="M0 0 C1.65 0 3.3 0 5 0 C5 0.33 5 0.66 5 1 C3.35 1 1.7 1 0 1 C0 0.67 0 0.34 0 0 Z " fill="#000000" transform="translate(533,1272)"/>
<path d="M0 0 C1.65 0 3.3 0 5 0 C5 0.33 5 0.66 5 1 C3.35 1 1.7 1 0 1 C0 0.67 0 0.34 0 0 Z " fill="#000000" transform="translate(506,1267)"/>
<path d="M0 0 C1.65 0 3.3 0 5 0 C5 0.33 5 0.66 5 1 C3.35 1 1.7 1 0 1 C0 0.67 0 0.34 0 0 Z " fill="#000000" transform="translate(789,1262)"/>
<path d="M0 0 C0.33 0 0.66 0 1 0 C1 1.65 1 3.3 1 5 C0.67 5 0.34 5 0 5 C0 3.35 0 1.7 0 0 Z " fill="#000000" transform="translate(1262,786)"/>
<path d="M0 0 C0.33 0 0.66 0 1 0 C1 1.65 1 3.3 1 5 C0.67 5 0.34 5 0 5 C0 3.35 0 1.7 0 0 Z " fill="#000000" transform="translate(1267,764)"/>
<path d="M0 0 C0.33 0 0.66 0 1 0 C1 1.65 1 3.3 1 5 C0.67 5 0.34 5 0 5 C0 3.35 0 1.7 0 0 Z " fill="#000000" transform="translate(1275,713)"/>
<path d="M0 0 C0.66 0.33 1.32 0.66 2 1 C1.01 1.66 0.02 2.32 -1 3 C-0.67 2.01 -0.34 1.02 0 0 Z " fill="#F94D4D" transform="translate(164,208)"/>
<path d="M0 0 C0.66 0.33 1.32 0.66 2 1 C1.01 1.66 0.02 2.32 -1 3 C-0.67 2.01 -0.34 1.02 0 0 Z " fill="#F94D4D" transform="translate(169,203)"/>
<path d="M0 0 C4 1 4 1 4 1 Z " fill="#000000" transform="translate(721,1275)"/>
<path d="M0 0 C4 1 4 1 4 1 Z " fill="#000000" transform="translate(769,1267)"/>
<path d="M0 0 C4 1 4 1 4 1 Z " fill="#000000" transform="translate(485,1262)"/>
<path d="M0 0 C4 1 4 1 4 1 Z " fill="#000000" transform="translate(809,1257)"/>
<path d="M0 0 C4 1 4 1 4 1 Z " fill="#000000" transform="translate(826,1252)"/>
<path d="M0 0 C1 4 1 4 1 4 Z " fill="#000000" transform="translate(1252,824)"/>
<path d="M0 0 C1 4 1 4 1 4 Z " fill="#000000" transform="translate(1257,806)"/>
<path d="M0 0 C1 4 1 4 1 4 Z " fill="#000000" transform="translate(1272,540)"/>
<path d="M0 0 C1 4 1 4 1 4 Z " fill="#000000" transform="translate(1270,530)"/>
<path d="M0 0 C3 1 3 1 3 1 Z " fill="#000000" transform="translate(754,1270)"/>
<path d="M0 0 C3 1 3 1 3 1 Z " fill="#000000" transform="translate(523,1270)"/>
<path d="M0 0 C3 1 3 1 3 1 Z " fill="#000000" transform="translate(498,1265)"/>
<path d="" fill="#000000" transform="translate(0,0)"/>
<path d="" fill="#000000" transform="translate(0,0)"/>
<path d="M0 0 C0.99 0.5 0.99 0.5 2 1 C1.01 1.5 1.01 1.5 0 2 C0 1.34 0 0.68 0 0 Z " fill="#F94D4D" transform="translate(166,206)"/>
<path d="M0 0 C2 1 2 1 2 1 Z " fill="#000000" transform="translate(779,1265)"/>
<path d="M0 0 C2 1 2 1 2 1 Z " fill="#000000" transform="translate(477,1260)"/>
<path d="M0 0 C2 1 2 1 2 1 Z " fill="#000000" transform="translate(449,1252)"/>
<path d="M0 0 C2 1 2 1 2 1 Z " fill="#000000" transform="translate(434,1247)"/>
<path d="M0 0 C2 1 2 1 2 1 Z " fill="#000000" transform="translate(419,1242)"/>
<path d="M0 0 C2 1 2 1 2 1 Z " fill="#000000" transform="translate(394,1232)"/>
<path d="M0 0 C2 1 2 1 2 1 Z " fill="#000000" transform="translate(371,1222)"/>
<path d="" fill="#000000" transform="translate(0,0)"/>
<path d="" fill="#000000" transform="translate(0,0)"/>
<path d="" fill="#000000" transform="translate(0,0)"/>
<path d="" fill="#000000" transform="translate(0,0)"/>
<path d="" fill="#000000" transform="translate(0,0)"/>
<path d="" fill="#000000" transform="translate(0,0)"/>
<path d="" fill="#000000" transform="translate(0,0)"/>
<path d="" fill="#000000" transform="translate(0,0)"/>
<path d="" fill="#000000" transform="translate(0,0)"/>
<path d="" fill="#000000" transform="translate(0,0)"/>
<path d="" fill="#000000" transform="translate(0,0)"/>
<path d="" fill="#000000" transform="translate(0,0)"/>
<path d="" fill="#000000" transform="translate(0,0)"/>
<path d="" fill="#000000" transform="translate(0,0)"/>
<path d="" fill="#000000" transform="translate(0,0)"/>
<path d="" fill="#000000" transform="translate(0,0)"/>
<path d="" fill="#000000" transform="translate(0,0)"/>
<path d="" fill="#000000" transform="translate(0,0)"/>
<path d="" fill="#000000" transform="translate(0,0)"/>
<path d="" fill="#000000" transform="translate(0,0)"/>
<path d="" fill="#000000" transform="translate(0,0)"/>
<path d="" fill="#000000" transform="translate(0,0)"/>
<path d="" fill="#000000" transform="translate(0,0)"/>
<path d="" fill="#000000" transform="translate(0,0)"/>
<path d="" fill="#000000" transform="translate(0,0)"/>
<path d="" fill="#000000" transform="translate(0,0)"/>
<path d="" fill="#000000" transform="translate(0,0)"/>
<path d="" fill="#000000" transform="translate(0,0)"/>
<path d="" fill="#000000" transform="translate(0,0)"/>
<path d="" fill="#000000" transform="translate(0,0)"/>
<path d="" fill="#000000" transform="translate(0,0)"/>
<path d="" fill="#000000" transform="translate(0,0)"/>
<path d="" fill="#000000" transform="translate(0,0)"/>
<path d="" fill="#000000" transform="translate(0,0)"/>
<path d="" fill="#000000" transform="translate(0,0)"/>
<path d="" fill="#000000" transform="translate(0,0)"/>
<path d="" fill="#000000" transform="translate(0,0)"/>
<path d="" fill="#000000" transform="translate(0,0)"/>
<path d="" fill="#000000" transform="translate(0,0)"/>
<path d="" fill="#000000" transform="translate(0,0)"/>
<path d="" fill="#000000" transform="translate(0,0)"/>
<path d="" fill="#000000" transform="translate(0,0)"/>
<path d="" fill="#000000" transform="translate(0,0)"/>
<path d="" fill="#000000" transform="translate(0,0)"/>
<path d="" fill="#000000" transform="translate(0,0)"/>
<path d="" fill="#000000" transform="translate(0,0)"/>
<path d="" fill="#F94D4D" transform="translate(0,0)"/>
<path d="" fill="#000000" transform="translate(0,0)"/>
<path d="" fill="#F94D4D" transform="translate(0,0)"/>
<path d="" fill="#000000" transform="translate(0,0)"/>
<path d="" fill="#000000" transform="translate(0,0)"/>
<path d="" fill="#000000" transform="translate(0,0)"/>
<path d="" fill="#F94D4D" transform="translate(0,0)"/>
<path d="" fill="#000000" transform="translate(0,0)"/>
<path d="" fill="#000000" transform="translate(0,0)"/>
<path d="" fill="#000000" transform="translate(0,0)"/>
<path d="" fill="#F94D4D" transform="translate(0,0)"/>
<path d="" fill="#000000" transform="translate(0,0)"/>
<path d="" fill="#F94D4D" transform="translate(0,0)"/>
<path d="" fill="#F94D4D" transform="translate(0,0)"/>
<path d="" fill="#F94D4D" transform="translate(0,0)"/>
<path d="" fill="#000000" transform="translate(0,0)"/>
<path d="" fill="#000000" transform="translate(0,0)"/>
<path d="" fill="#F94D4D" transform="translate(0,0)"/>
<path d="" fill="#F94D4D" transform="translate(0,0)"/>
<path d="" fill="#000000" transform="translate(0,0)"/>
<path d="" fill="#F94D4D" transform="translate(0,0)"/>
<path d="" fill="#F94D4D" transform="translate(0,0)"/>
<path d="" fill="#F94D4D" transform="translate(0,0)"/>
<path d="" fill="#F94D4D" transform="translate(0,0)"/>
<path d="" fill="#F94D4D" transform="translate(0,0)"/>
<path d="" fill="#F94D4D" transform="translate(0,0)"/>
<path d="" fill="#F94D4D" transform="translate(0,0)"/>
<path d="" fill="#F94D4D" transform="translate(0,0)"/>
<path d="" fill="#F94D4D" transform="translate(0,0)"/>
<path d="" fill="#F94D4D" transform="translate(0,0)"/>
<path d="" fill="#F94D4D" transform="translate(0,0)"/>
<path d="" fill="#F94D4D" transform="translate(0,0)"/>
<path d="" fill="#F94D4D" transform="translate(0,0)"/>
<path d="" fill="#F94D4D" transform="translate(0,0)"/>
<path d="" fill="#F94D4D" transform="translate(0,0)"/>
<path d="" fill="#F94D4D" transform="translate(0,0)"/>
<path d="" fill="#F94D4D" transform="translate(0,0)"/>
<path d="" fill="#F94D4D" transform="translate(0,0)"/>
<path d="" fill="#F94D4D" transform="translate(0,0)"/>
<path d="" fill="#F94D4D" transform="translate(0,0)"/>
<path d="" fill="#F94D4D" transform="translate(0,0)"/>
</svg>
