<svg width="4" height="9" viewBox="0 0 4 9" fill="none" xmlns="http://www.w3.org/2000/svg">
<path d="M2.45211 4.48173L0.183908 1.77854C0.0613028 1.63242 0 1.45586 0 1.24886C0 1.04186 0.0613028 0.865296 0.183908 0.719177C0.306514 0.573059 0.459771 0.5 0.643679 0.5C0.817369 0.5 0.965517 0.573059 1.08812 0.719177L3.80077 3.93379C3.93359 4.07991 4 4.26256 4 4.48173C4 4.70091 3.93359 4.88356 3.80077 5.02968L1.08812 8.28082C0.965517 8.42694 0.817369 8.5 0.643679 8.5C0.459771 8.5 0.306514 8.42694 0.183908 8.28082C0.0613028 8.1347 0 7.95814 0 7.75114C0 7.54414 0.0613028 7.36758 0.183908 7.22146L2.45211 4.48173Z" fill="#535F6B"/>
</svg>
