<?xml version="1.0" encoding="utf-8"?>
<!-- Generator: Adobe Illustrator 27.5.0, SVG Export Plug-In . SVG Version: 6.00 Build 0)  -->
<svg version="1.1" xmlns="http://www.w3.org/2000/svg" xmlns:xlink="http://www.w3.org/1999/xlink" x="0px" y="0px"
	 viewBox="0 0 750 500" style="enable-background:new 0 0 750 500;" xml:space="preserve">
<g id="BACKGROUND">
	<rect y="0.001" style="fill-rule:evenodd;clip-rule:evenodd;fill:#FFFFFF;" width="750" height="500"/>
</g>
<g id="OBJECTS">
	<g>
		<path style="fill-rule:evenodd;clip-rule:evenodd;fill:#D6D6F9;" d="M607.028,31.633c49.106,0,89.286,40.179,89.286,89.286l0,0
			c0,49.107-40.18,89.286-89.286,89.286l0,0c-9.855,0-17.919,8.063-17.919,17.919l0,0c0,9.855,8.064,17.918,17.919,17.918h46.719
			c23.958,0,43.56,19.6,43.56,43.558l0,0c0,23.957-19.602,43.558-43.56,43.558c-20.717,0-37.669,16.952-37.669,37.669l0,0l0,0
			c0,37.804-30.929,68.732-68.732,68.732h-20.546l0,0H224.1h-80.229c-49.107,0-89.286-40.179-89.286-89.285l0,0
			c0-49.108,40.18-89.287,89.286-89.287h8.634c9.857,0,17.92-8.064,17.92-17.918l0,0c0-9.855-8.064-17.919-17.92-17.919H94.37
			c-23.957,0-43.557-19.601-43.557-43.559l0,0c0-23.928,19.556-43.513,43.474-43.556c0.027,0,46.748,0,46.775,0
			c20.719,0,37.67-16.952,37.67-37.671l0,0l0,0c0-37.801,30.929-68.73,68.73-68.73C314.54,31.633,539.952,31.633,607.028,31.633z"/>
		<g>
			<path style="fill-rule:evenodd;clip-rule:evenodd;fill:#FFFFFF;" d="M210.967,184.183h20.138c1.804,0,3.278,1.475,3.278,3.278
				v37.932c0,1.802-1.475,3.278-3.278,3.278h-20.138c-1.802,0-3.277-1.476-3.277-3.278v-37.932
				C207.69,185.658,209.165,184.183,210.967,184.183z"/>
			<g>
				<path style="fill-rule:evenodd;clip-rule:evenodd;fill:#D6D6F9;" d="M216.341,197.866l4.314-6.46
					c0.093-0.14,0.227-0.213,0.382-0.213c0.155,0,0.29,0.074,0.381,0.213l4.315,6.46c0.107,0.164,0.123,0.365,0.04,0.546
					c-0.083,0.179-0.241,0.285-0.423,0.285h-8.627c-0.183,0-0.34-0.106-0.422-0.285
					C216.219,198.231,216.233,198.029,216.341,197.866z"/>
				<path style="fill-rule:evenodd;clip-rule:evenodd;fill:#D6D6F9;" d="M213.572,206.341l6.857-10.914
					c0.147-0.234,0.361-0.359,0.608-0.359c0.247,0,0.462,0.126,0.608,0.359l6.856,10.914c0.173,0.274,0.196,0.615,0.064,0.919
					c-0.132,0.304-0.381,0.483-0.672,0.483H214.18c-0.29,0-0.541-0.179-0.672-0.483C213.376,206.957,213.4,206.615,213.572,206.341z
					"/>
				<path style="fill-rule:evenodd;clip-rule:evenodd;fill:#D6D6F9;" d="M209.538,217.755l10.564-15.825
					c0.224-0.338,0.553-0.521,0.935-0.521c0.381,0,0.711,0.183,0.936,0.521l10.564,15.825c0.264,0.397,0.302,0.893,0.099,1.333
					c-0.203,0.441-0.585,0.701-1.036,0.701h-21.126c-0.45,0-0.834-0.26-1.037-0.701
					C209.236,218.648,209.272,218.153,209.538,217.755z"/>
			</g>
			<path style="fill-rule:evenodd;clip-rule:evenodd;fill:#9C9DCC;" d="M244.217,184.183h20.139c1.803,0,3.278,1.475,3.278,3.278
				v37.932c0,1.802-1.475,3.278-3.278,3.278h-20.139c-1.802,0-3.277-1.476-3.277-3.278v-37.932
				C240.94,185.658,242.415,184.183,244.217,184.183z"/>
			<path style="fill-rule:evenodd;clip-rule:evenodd;fill:#DF6162;" d="M177.718,184.183h20.138c1.803,0,3.278,1.475,3.278,3.278
				v37.932c0,1.802-1.475,3.278-3.278,3.278h-20.138c-1.803,0-3.277-1.476-3.277-3.278v-37.932
				C174.441,185.658,175.916,184.183,177.718,184.183z"/>
			<path style="fill-rule:evenodd;clip-rule:evenodd;fill:#EDBD54;" d="M277.466,184.183h20.138c1.804,0,3.278,1.475,3.278,3.278
				v37.932c0,1.802-1.474,3.278-3.278,3.278h-20.138c-1.802,0-3.278-1.476-3.278-3.278v-37.932
				C274.188,185.658,275.664,184.183,277.466,184.183z"/>
			<g>
				<g>
					<path style="fill-rule:evenodd;clip-rule:evenodd;fill:#9C9DCC;" d="M162.04,212.984c3.612,0,6.558-2.945,6.558-6.556
						c0-3.612-2.945-6.557-6.558-6.557c-3.61,0-6.556,2.944-6.556,6.557C155.483,210.039,158.43,212.984,162.04,212.984z"/>
					<path style="fill-rule:evenodd;clip-rule:evenodd;fill:#D6D6F9;" d="M162.47,202.71c0.345-0.345,0.906-0.345,1.252,0
						c0.344,0.347,0.344,0.907,0,1.252l-2.466,2.465l2.466,2.464c0.344,0.345,0.344,0.906,0,1.251c-0.346,0.347-0.907,0.347-1.252,0
						l-3.091-3.091c-0.346-0.345-0.346-0.905,0-1.251L162.47,202.71z"/>
				</g>
				<g>
					<path style="fill-rule:evenodd;clip-rule:evenodd;fill:#9C9DCC;" d="M313.284,212.984c3.61,0,6.556-2.945,6.556-6.556
						c0-3.612-2.946-6.557-6.556-6.557c-3.612,0-6.557,2.944-6.557,6.557C306.728,210.039,309.672,212.984,313.284,212.984z"/>
					<path style="fill-rule:evenodd;clip-rule:evenodd;fill:#D6D6F9;" d="M312.854,202.71c-0.345-0.345-0.906-0.345-1.253,0
						c-0.344,0.347-0.344,0.907,0,1.252l2.466,2.465l-2.466,2.464c-0.344,0.345-0.344,0.906,0,1.251
						c0.346,0.347,0.907,0.347,1.253,0l3.091-3.091c0.345-0.345,0.345-0.905,0-1.251L312.854,202.71z"/>
				</g>
			</g>
			<g>
				<path style="fill-rule:evenodd;clip-rule:evenodd;fill:#484D9B;" d="M254.288,196.499c1.444,0,2.622-1.178,2.622-2.622
					c0-1.444-1.178-2.623-2.622-2.623c-1.445,0-2.623,1.178-2.623,2.623C251.665,195.321,252.843,196.499,254.288,196.499z"/>
				<path style="fill-rule:evenodd;clip-rule:evenodd;fill:#484D9B;" d="M254.288,209.049c1.444,0,2.622-1.178,2.622-2.622
					c0-1.446-1.178-2.624-2.622-2.624c-1.445,0-2.623,1.178-2.623,2.624C251.665,207.872,252.843,209.049,254.288,209.049z"/>
				<path style="fill-rule:evenodd;clip-rule:evenodd;fill:#484D9B;" d="M254.288,221.6c1.444,0,2.622-1.179,2.622-2.623
					c0-1.445-1.178-2.622-2.622-2.622c-1.445,0-2.623,1.177-2.623,2.622C251.665,220.421,252.843,221.6,254.288,221.6z"/>
			</g>
			<path style="fill-rule:evenodd;clip-rule:evenodd;fill:#1D135C;" d="M184.077,209.707c1.556,0.681,2.612,2.996,3.268,5.068
				v-6.979c-2.868-0.036-4.515-1.674-5.273-3.559c-0.396-0.987-0.545-2.043-0.496-2.966c0.051-0.962,0.32-1.799,0.753-2.302
				c0.448-0.522,1.047-0.717,1.748-0.408c1.556,0.681,2.612,2.995,3.268,5.068v-6.979c-2.868-0.035-4.515-1.675-5.273-3.56
				c-0.396-0.987-0.545-2.043-0.496-2.966c0.051-0.96,0.32-1.799,0.753-2.301c0.448-0.523,1.047-0.717,1.748-0.41
				c1.556,0.682,2.612,2.995,3.268,5.069v-0.495c0-0.244,0.199-0.443,0.443-0.443c0.245,0,0.443,0.2,0.443,0.443v4.429
				c0.656-2.073,1.713-4.387,3.268-5.068c0.702-0.309,1.3-0.115,1.749,0.409c0.432,0.502,0.702,1.339,0.752,2.301
				c0.049,0.923-0.1,1.98-0.496,2.966c-0.759,1.885-2.405,3.524-5.273,3.56v6.978c0.656-2.072,1.713-4.387,3.268-5.068
				c0.702-0.308,1.3-0.114,1.749,0.409c0.432,0.503,0.702,1.34,0.752,2.301c0.049,0.923-0.1,1.98-0.496,2.965
				c-0.759,1.887-2.405,3.526-5.273,3.562v6.979c0.656-2.074,1.713-4.387,3.268-5.069c0.702-0.308,1.3-0.114,1.749,0.41
				c0.432,0.502,0.702,1.34,0.752,2.301c0.049,0.923-0.1,1.978-0.496,2.965c-0.759,1.887-2.405,3.526-5.273,3.561v2.266
				c0,0.246-0.198,0.443-0.443,0.443c-0.244,0-0.443-0.197-0.443-0.443v-6.2c-2.868-0.035-4.515-1.674-5.273-3.561
				c-0.396-0.984-0.545-2.042-0.496-2.963c0.051-0.962,0.32-1.799,0.753-2.302C182.776,209.593,183.376,209.399,184.077,209.707z"/>
			<path style="fill-rule:evenodd;clip-rule:evenodd;fill:#484D9B;" d="M285.766,216.646c-1.895-0.363-3.592-1.294-4.906-2.607
				l-0.098-0.106c-1.655-1.704-2.677-4.023-2.677-6.57v-6.087c0-0.978,0.793-1.771,1.771-1.771c0.977,0,1.77,0.793,1.77,1.771v6.087
				c0,1.587,0.632,3.033,1.656,4.098l0.082,0.076c0.664,0.664,1.485,1.174,2.402,1.464v-7.044v-14.237c0-0.978,0.793-1.77,1.77-1.77
				c0.977,0,1.77,0.792,1.77,1.77v12.195c0.917-0.288,1.741-0.797,2.407-1.461c1.069-1.072,1.734-2.55,1.734-4.176v-6.088
				c0-0.979,0.793-1.771,1.768-1.771c0.979,0,1.771,0.793,1.771,1.771v6.088c0,2.595-1.063,4.956-2.774,6.669l-0.006,0.007
				c-1.315,1.312-3.01,2.244-4.9,2.605v7.483v6.091c0,0.977-0.793,1.769-1.77,1.769c-0.977,0-1.77-0.791-1.77-1.769V216.646z"/>
		</g>
		<g>
			<path style="fill-rule:evenodd;clip-rule:evenodd;fill:#9C9DCC;" d="M239.895,65.768h65.482c2.692,0,4.896,2.204,4.896,4.898
				v97.963c0,2.693-2.204,4.897-4.896,4.897h-65.482c-2.694,0-4.898-2.205-4.898-4.897V70.666
				C234.997,67.972,237.201,65.768,239.895,65.768z"/>
			<path style="fill-rule:evenodd;clip-rule:evenodd;fill:#484D9B;" d="M232.09,55.125h65.481c2.693,0,4.897,2.205,4.897,4.897
				v97.963c0,2.694-2.203,4.896-4.897,4.896H232.09c-2.694,0-4.897-2.202-4.897-4.896V60.022
				C227.192,57.33,229.396,55.125,232.09,55.125z"/>
			<path style="fill-rule:evenodd;clip-rule:evenodd;fill:#FFFFFF;" d="M236.6,66.207h14.179c0.924,0,1.677,0.753,1.677,1.677
				v14.177c0,0.923-0.753,1.676-1.677,1.676H236.6c-0.921,0-1.676-0.752-1.676-1.676V67.885
				C234.924,66.961,235.679,66.207,236.6,66.207z"/>
			<path style="fill-rule:evenodd;clip-rule:evenodd;fill:#DE9396;" d="M236.6,89.666h14.179c0.924,0,1.677,0.754,1.677,1.677
				v14.179c0,0.922-0.753,1.675-1.677,1.675H236.6c-0.921,0-1.676-0.753-1.676-1.675V91.343
				C234.924,90.42,235.679,89.666,236.6,89.666z"/>
			<path style="fill-rule:evenodd;clip-rule:evenodd;fill:#FFFFFF;" d="M236.6,113.126h14.179c0.924,0,1.677,0.755,1.677,1.676
				v14.18c0,0.922-0.753,1.676-1.677,1.676H236.6c-0.921,0-1.676-0.754-1.676-1.676v-14.18
				C234.924,113.88,235.679,113.126,236.6,113.126z"/>
			<path style="fill-rule:evenodd;clip-rule:evenodd;fill:#FFFFFF;" d="M236.537,136.585h56.586c0.922,0,1.677,0.754,1.677,1.676
				v14.179c0,0.923-0.755,1.677-1.677,1.677h-56.586c-0.923,0-1.676-0.754-1.676-1.677V138.26
				C234.861,137.338,235.614,136.585,236.537,136.585z"/>
			<g>
				<path style="fill-rule:evenodd;clip-rule:evenodd;fill:#FFFFFF;" d="M272.378,73.852h21.301c0.617,0,1.121,0.504,1.121,1.12
					v0.002c0,0.616-0.504,1.121-1.121,1.121h-21.301c-0.616,0-1.121-0.505-1.121-1.121v-0.002
					C271.256,74.356,271.762,73.852,272.378,73.852z"/>
				<path style="fill-rule:evenodd;clip-rule:evenodd;fill:#FFFFFF;" d="M265.832,73.852h-2.63c-0.616,0-1.121,0.504-1.121,1.12
					v0.002c0,0.616,0.505,1.121,1.121,1.121h2.63c0.616,0,1.12-0.505,1.12-1.121v-0.002
					C266.951,74.356,266.448,73.852,265.832,73.852z"/>
				<path style="fill-rule:evenodd;clip-rule:evenodd;fill:#FFFFFF;" d="M263.2,66.966h30.479c0.617,0,1.121,0.505,1.121,1.122
					v0.001c0,0.615-0.504,1.119-1.121,1.119H263.2c-0.616,0-1.12-0.504-1.12-1.119v-0.001
					C262.081,67.471,262.584,66.966,263.2,66.966z"/>
				<path style="fill-rule:evenodd;clip-rule:evenodd;fill:#FFFFFF;" d="M263.2,80.738h30.479c0.617,0,1.121,0.504,1.121,1.12l0,0
					c0,0.618-0.504,1.121-1.121,1.121H263.2c-0.616,0-1.12-0.503-1.12-1.121l0,0C262.081,81.242,262.584,80.738,263.2,80.738z"/>
			</g>
			<g>
				<path style="fill-rule:evenodd;clip-rule:evenodd;fill:#FFFFFF;" d="M284.504,97.312H263.2c-0.615,0-1.12,0.504-1.12,1.12l0,0
					c0,0.617,0.505,1.121,1.12,1.121h21.303c0.616,0,1.119-0.504,1.119-1.121l0,0C285.623,97.816,285.119,97.312,284.504,97.312z"/>
				<path style="fill-rule:evenodd;clip-rule:evenodd;fill:#FFFFFF;" d="M291.049,97.312h2.629c0.617,0,1.121,0.504,1.121,1.12l0,0
					c0,0.617-0.504,1.121-1.121,1.121h-2.629c-0.617,0-1.121-0.504-1.121-1.121l0,0C289.929,97.816,290.433,97.312,291.049,97.312z"
					/>
				<path style="fill-rule:evenodd;clip-rule:evenodd;fill:#FFFFFF;" d="M293.679,90.425H263.2c-0.616,0-1.12,0.505-1.12,1.121
					v0.002c0,0.615,0.503,1.119,1.12,1.119h30.479c0.617,0,1.121-0.503,1.121-1.119v-0.002
					C294.799,90.93,294.296,90.425,293.679,90.425z"/>
				<path style="fill-rule:evenodd;clip-rule:evenodd;fill:#FFFFFF;" d="M293.679,104.197H263.2c-0.616,0-1.12,0.504-1.12,1.121l0,0
					c0,0.617,0.503,1.12,1.12,1.12h30.479c0.617,0,1.121-0.503,1.121-1.12l0,0C294.799,104.701,294.296,104.197,293.679,104.197z"/>
			</g>
			<g>
				<path style="fill-rule:evenodd;clip-rule:evenodd;fill:#FFFFFF;" d="M272.378,120.771h21.301c0.617,0,1.121,0.504,1.121,1.119
					v0.001c0,0.616-0.504,1.121-1.121,1.121h-21.301c-0.616,0-1.121-0.505-1.121-1.121v-0.001
					C271.256,121.275,271.762,120.771,272.378,120.771z"/>
				<path style="fill-rule:evenodd;clip-rule:evenodd;fill:#FFFFFF;" d="M265.832,120.771h-2.63c-0.616,0-1.121,0.504-1.121,1.119
					v0.001c0,0.616,0.505,1.121,1.121,1.121h2.63c0.616,0,1.12-0.505,1.12-1.121v-0.001
					C266.951,121.275,266.448,120.771,265.832,120.771z"/>
				<path style="fill-rule:evenodd;clip-rule:evenodd;fill:#FFFFFF;" d="M263.2,113.884h30.479c0.617,0,1.121,0.505,1.121,1.121
					v0.001c0,0.617-0.504,1.12-1.121,1.12H263.2c-0.616,0-1.12-0.503-1.12-1.12v-0.001
					C262.081,114.389,262.584,113.884,263.2,113.884z"/>
				<path style="fill-rule:evenodd;clip-rule:evenodd;fill:#FFFFFF;" d="M263.2,127.656h30.479c0.617,0,1.121,0.503,1.121,1.121l0,0
					c0,0.616-0.504,1.12-1.121,1.12H263.2c-0.616,0-1.12-0.504-1.12-1.12l0,0C262.081,128.16,262.584,127.656,263.2,127.656z"/>
			</g>
			<path style="fill-rule:evenodd;clip-rule:evenodd;fill:#DF6162;" d="M238.385,95.031c-0.39-0.341-0.43-0.936-0.087-1.327
				c0.341-0.391,0.937-0.43,1.327-0.089l3.979,3.49l3.488-3.978c0.343-0.39,0.937-0.43,1.328-0.087
				c0.391,0.341,0.43,0.936,0.088,1.327l-3.491,3.979l3.978,3.489c0.391,0.341,0.431,0.936,0.088,1.327
				c-0.341,0.39-0.937,0.431-1.326,0.088l-3.979-3.489l-3.489,3.978c-0.342,0.39-0.937,0.43-1.327,0.089
				c-0.391-0.343-0.43-0.938-0.088-1.328l3.49-3.979L238.385,95.031z"/>
			<path style="fill-rule:evenodd;clip-rule:evenodd;fill:#EDBD54;" d="M239.12,122.932c-0.376-0.36-0.386-0.958-0.027-1.333
				c0.361-0.374,0.958-0.384,1.332-0.025l1.97,1.895l4.505-5.137c0.343-0.39,0.937-0.43,1.327-0.088
				c0.392,0.341,0.432,0.938,0.089,1.327l-5.184,5.911c-0.361,0.375-0.956,0.387-1.331,0.026L239.12,122.932z"/>
			<path style="fill-rule:evenodd;clip-rule:evenodd;fill:#EDBD54;" d="M239.12,76.012c-0.376-0.359-0.386-0.955-0.027-1.33
				c0.361-0.375,0.958-0.387,1.332-0.026l1.97,1.896l4.505-5.137c0.343-0.39,0.937-0.43,1.327-0.088
				c0.392,0.341,0.432,0.937,0.089,1.327l-5.184,5.911c-0.361,0.374-0.956,0.386-1.331,0.025L239.12,76.012z"/>
			<g>
				<text transform="matrix(1 0 0 1 239.8008 149.0074)"><tspan x="0" y="0" style="fill:#DF6162; font-family:'OpenSans-Bold'; font-size:10.2276px;">C</tspan><tspan x="6.517" y="0" style="fill:#DF6162; font-family:'OpenSans-Bold'; font-size:10.2276px;">ONFIRM</tspan></text>
			</g>
			<path style="fill-rule:evenodd;clip-rule:evenodd;fill:#606CE6;" d="M228.343,58.639h65.482c1.586,0,3.032,0.65,4.081,1.697
				l0.003,0.003c1.049,1.052,1.698,2.496,1.698,4.081v97.965c0,1.591-0.649,3.036-1.698,4.083c-1.046,1.048-2.493,1.698-4.083,1.698
				h-65.482c-1.59,0-3.034-0.65-4.081-1.698l-0.004-0.003c-1.046-1.046-1.697-2.492-1.697-4.081V64.42
				c0-1.59,0.651-3.036,1.697-4.084C225.305,59.289,226.752,58.639,228.343,58.639L228.343,58.639z M293.825,60.41h-65.482
				c-1.102,0-2.106,0.451-2.835,1.179c-0.726,0.727-1.178,1.731-1.178,2.832v97.965c0,1.104,0.451,2.107,1.177,2.833
				c0.728,0.727,1.731,1.179,2.835,1.179h65.482c1.101,0,2.104-0.453,2.832-1.18c0.727-0.728,1.18-1.73,1.18-2.833V64.42
				c0-1.103-0.45-2.107-1.176-2.832l-0.004-0.003C295.933,60.86,294.93,60.41,293.825,60.41z"/>
		</g>
		<g>
			<path style="fill-rule:evenodd;clip-rule:evenodd;fill:#9C9DCC;" d="M516.008,286.497h116.566c2.885,0,5.246,2.36,5.246,5.245
				v15.112c0,2.886-2.361,5.245-5.246,5.245H516.008c-2.886,0-5.246-2.359-5.246-5.245v-15.112
				C510.762,288.857,513.122,286.497,516.008,286.497z"/>
			<path style="fill-rule:evenodd;clip-rule:evenodd;fill:#DF6162;" d="M522.284,277.868h116.566c2.885,0,5.245,2.359,5.245,5.245
				v15.113c0,2.884-2.36,5.245-5.245,5.245H522.284c-2.886,0-5.246-2.361-5.246-5.245v-15.113
				C517.038,280.227,519.398,277.868,522.284,277.868z"/>
			<polygon style="fill-rule:evenodd;clip-rule:evenodd;fill:#FFFFFF;" points="530.963,283.186 533.294,288.25 538.832,288.902 
				534.734,292.684 535.827,298.153 530.964,295.425 526.101,298.153 527.191,292.686 523.095,288.902 528.631,288.25 			"/>
			<polygon style="fill-rule:evenodd;clip-rule:evenodd;fill:#FFFFFF;" points="554.847,283.186 557.177,288.25 562.715,288.902 
				558.618,292.684 559.709,298.153 554.847,295.425 549.982,298.153 551.074,292.686 546.978,288.902 552.515,288.25 			"/>
			<polygon style="fill-rule:evenodd;clip-rule:evenodd;fill:#FFFFFF;" points="578.729,283.186 581.06,288.25 586.597,288.902 
				582.502,292.684 583.592,298.153 578.729,295.425 573.866,298.153 574.958,292.686 570.86,288.902 576.396,288.25 			"/>
			<polygon style="fill-rule:evenodd;clip-rule:evenodd;fill:#FFFFFF;" points="602.612,283.186 604.943,288.25 610.479,288.902 
				606.386,292.684 607.475,298.153 602.612,295.425 597.749,298.153 598.841,292.686 594.743,288.902 600.28,288.25 			"/>
			<polygon style="fill-rule:evenodd;clip-rule:evenodd;fill:#FFFFFF;" points="626.496,283.186 628.827,288.25 634.363,288.902 
				630.269,292.684 631.358,298.153 626.496,295.425 621.632,298.153 622.723,292.686 618.627,288.902 624.163,288.25 			"/>
			<path style="fill-rule:evenodd;clip-rule:evenodd;fill:#B64443;" d="M525.835,279.832h116.567c1.684,0,3.215,0.69,4.326,1.799
				l0.003,0.004c1.111,1.11,1.801,2.643,1.801,4.327v15.112c0,1.685-0.69,3.216-1.801,4.326l-0.003,0.005
				c-1.111,1.108-2.643,1.798-4.326,1.798H525.835c-1.685,0-3.216-0.689-4.326-1.798l-0.004-0.005
				c-1.11-1.11-1.799-2.642-1.799-4.326v-15.112c0-1.685,0.688-3.217,1.799-4.327l0.004-0.004
				C522.619,280.522,524.15,279.832,525.835,279.832L525.835,279.832z M642.402,281.602H525.835c-1.199,0-2.289,0.491-3.081,1.279
				c-0.788,0.791-1.279,1.882-1.279,3.081v15.112c0,1.199,0.491,2.289,1.279,3.081c0.792,0.788,1.882,1.279,3.081,1.279h116.567
				c1.198,0,2.289-0.491,3.079-1.279c0.79-0.792,1.279-1.882,1.279-3.081v-15.112c0-1.199-0.489-2.29-1.279-3.081
				C644.691,282.093,643.601,281.602,642.402,281.602z"/>
		</g>
		<g>
			<path style="fill-rule:evenodd;clip-rule:evenodd;fill:#9C9DCC;" d="M410.389,72.688v-6.354c0-1.213-0.993-2.207-2.205-2.207
				h-1.819v-1.343c0-2.568-2.103-4.669-4.67-4.669h-51.612c-2.568,0-4.668,2.101-4.668,4.669v13.452c0,2.568,2.1,4.67,4.668,4.67
				h51.612c2.567,0,4.67-2.102,4.67-4.67v-1.342h1.819C409.396,74.895,410.389,73.901,410.389,72.688z"/>
			<path style="fill-rule:evenodd;clip-rule:evenodd;fill:#606CE6;" d="M407.656,67.381v-6.354c0-1.213-0.992-2.205-2.204-2.205
				h-11.669c-1.215,0-2.206,0.992-2.206,2.205v6.354c0,1.213,0.991,2.206,2.206,2.206h11.669
				C406.664,69.587,407.656,68.594,407.656,67.381z"/>
			<path style="fill-rule:evenodd;clip-rule:evenodd;fill:#606CE6;" d="M347.351,52.808h51.612c2.567,0,4.67,2.102,4.67,4.668V70.93
				c0,2.568-2.103,4.67-4.67,4.67h-51.612c-2.568,0-4.668-2.102-4.668-4.67V57.477C342.682,54.91,344.782,52.808,347.351,52.808z"/>
			<path style="fill-rule:evenodd;clip-rule:evenodd;fill:#EDBD54;" d="M352.151,56.164h-4.427c-0.844,0-1.535,0.691-1.535,1.536
				v13.008c0,0.845,0.691,1.535,1.535,1.535h4.427c0.845,0,1.536-0.69,1.536-1.535V57.7
				C353.687,56.855,352.996,56.164,352.151,56.164z"/>
			<path style="fill-rule:evenodd;clip-rule:evenodd;fill:#EDBD54;" d="M363.702,56.164h-4.427c-0.844,0-1.535,0.691-1.535,1.536
				v13.008c0,0.845,0.691,1.535,1.535,1.535h4.427c0.845,0,1.537-0.69,1.537-1.535V57.7
				C365.239,56.855,364.547,56.164,363.702,56.164z"/>
			<path style="fill-rule:evenodd;clip-rule:evenodd;fill:#EDBD54;" d="M375.253,56.164h-4.427c-0.844,0-1.535,0.691-1.535,1.536
				v13.008c0,0.845,0.691,1.535,1.535,1.535h4.427c0.846,0,1.538-0.69,1.538-1.535V57.7
				C376.791,56.855,376.099,56.164,375.253,56.164z"/>
			<path style="fill-rule:evenodd;clip-rule:evenodd;fill:#FFFFFF;" d="M386.806,56.164h-4.428c-0.844,0-1.535,0.691-1.535,1.536
				v13.008c0,0.845,0.691,1.535,1.535,1.535h4.428c0.845,0,1.535-0.69,1.535-1.535V57.7
				C388.341,56.855,387.65,56.164,386.806,56.164z"/>
			<path style="fill-rule:evenodd;clip-rule:evenodd;fill:#FFFFFF;" d="M398.357,56.164h-4.428c-0.844,0-1.536,0.691-1.536,1.536
				v13.008c0,0.845,0.692,1.535,1.536,1.535h4.428c0.845,0,1.536-0.69,1.536-1.535V57.7
				C399.894,56.855,399.202,56.164,398.357,56.164z"/>
			<path style="fill-rule:evenodd;clip-rule:evenodd;fill:#FFFFFF;" d="M424.814,52.943l2.26,2.26
				c0.098,0.099,0.134,0.229,0.104,0.364c-0.03,0.134-0.123,0.235-0.252,0.28l-13.413,4.58c-0.186,0.065-0.39-0.021-0.475-0.199
				c-0.086-0.179-0.023-0.391,0.142-0.496l7.427-4.707l-3.52-3.519c-0.093-0.094-0.132-0.216-0.107-0.346
				c0.022-0.129,0.101-0.229,0.221-0.284l11.37-5.188c0.148-0.068,0.314-0.039,0.432,0.076l4.691,4.58
				c0.105,0.103,0.143,0.244,0.104,0.384c-0.04,0.141-0.147,0.242-0.291,0.274L424.814,52.943z"/>
			<path style="fill-rule:evenodd;clip-rule:evenodd;fill:#FFFFFF;" d="M433.957,70.607l2.63-3.814
				c0.114-0.165,0.119-0.352,0.012-0.521c-0.105-0.168-0.292-0.271-0.52-0.284l-23.181-1.361c-0.326-0.019-0.612,0.166-0.674,0.434
				c-0.06,0.27,0.126,0.531,0.436,0.613l13.75,3.648l-4.098,5.94c-0.107,0.157-0.117,0.332-0.026,0.497
				c0.092,0.164,0.258,0.271,0.472,0.301l20.201,2.896c0.264,0.038,0.517-0.061,0.656-0.254l5.507-7.771
				c0.124-0.174,0.124-0.376,0-0.55c-0.122-0.172-0.332-0.269-0.572-0.262L433.957,70.607z"/>
			<path style="fill-rule:evenodd;clip-rule:evenodd;fill:#FFFFFF;" d="M411.104,57.989c0.772,0,1.404-0.63,1.404-1.404
				c0-0.775-0.632-1.405-1.404-1.405c-0.774,0-1.404,0.63-1.404,1.405C409.7,57.359,410.33,57.989,411.104,57.989z"/>
			<path style="fill-rule:evenodd;clip-rule:evenodd;fill:#FFFFFF;" d="M420.938,62.828c0.774,0,1.405-0.63,1.405-1.404
				c0-0.775-0.632-1.405-1.405-1.405c-0.774,0-1.404,0.63-1.404,1.405C419.534,62.198,420.164,62.828,420.938,62.828z"/>
			<path style="fill-rule:evenodd;clip-rule:evenodd;fill:#FFFFFF;" d="M411.885,75.16c1.935,0,3.513-1.576,3.513-3.512
				c0-1.935-1.578-3.512-3.513-3.512s-3.512,1.578-3.512,3.512C408.373,73.584,409.95,75.16,411.885,75.16z"/>
		</g>
		<g>
			<path style="fill-rule:evenodd;clip-rule:evenodd;fill:#9C9DCC;" d="M91.718,314.928c12.071,0,21.854,9.785,21.854,21.855
				c0,12.069-9.783,21.854-21.854,21.854c-12.068,0-21.854-9.784-21.854-21.854C69.864,324.713,79.65,314.928,91.718,314.928
				L91.718,314.928z M131.368,310.557c-1.373,0-2.497,1.123-2.497,2.497v85.234c0,1.374,1.124,2.497,2.497,2.497h-12.644
				c1.373,0,2.498-1.123,2.498-2.497v-33.721c0-1.373-1.125-2.497-2.498-2.497h-9.99c-1.373,0-2.497,1.124-2.497,2.497v33.721
				c0,1.374,1.124,2.497,2.497,2.497H96.557c-1.631,0-2.965,1.333-2.965,2.965l0,0c0,1.631,1.334,2.965,2.965,2.965h79.613
				c1.631,0,2.965-1.334,2.965-2.965l0,0c0-1.632-1.335-2.965-2.965-2.965h-12.177c1.373,0,2.498-1.123,2.498-2.497v-55.885
				c0-1.374-1.124-2.498-2.498-2.498h-9.991c-1.373,0-2.498,1.124-2.498,2.498v55.885c0,1.374,1.124,2.497,2.498,2.497h-12.644
				c1.373,0,2.498-1.123,2.498-2.497v-85.234c0-1.374-1.125-2.497-2.498-2.497H131.368z"/>
			<path style="fill-rule:evenodd;clip-rule:evenodd;fill:#EDBD54;" d="M150.958,336.55h9.991c1.373,0,2.497,1.124,2.497,2.498
				v55.885c0,1.373-1.124,2.497-2.497,2.497h-9.991c-1.373,0-2.497-1.124-2.497-2.497v-55.885
				C148.462,337.674,149.585,336.55,150.958,336.55z"/>
			<path style="fill-rule:evenodd;clip-rule:evenodd;fill:#FFFFFF;" d="M128.324,307.202h9.991c1.373,0,2.497,1.124,2.497,2.498
				v85.233c0,1.373-1.124,2.497-2.497,2.497h-9.991c-1.373,0-2.498-1.124-2.498-2.497V309.7
				C125.827,308.326,126.951,307.202,128.324,307.202z"/>
			<path style="fill-rule:evenodd;clip-rule:evenodd;fill:#DF6162;" d="M105.689,358.715h9.99c1.374,0,2.498,1.124,2.498,2.497
				v33.721c0,1.373-1.124,2.497-2.498,2.497h-9.99c-1.373,0-2.497-1.124-2.497-2.497v-33.721
				C103.192,359.839,104.316,358.715,105.689,358.715z"/>
			<path style="fill-rule:evenodd;clip-rule:evenodd;fill:#606CE6;" d="M88.674,355.281c12.037,0,21.854-9.817,21.854-21.853
				c0-12.037-9.817-21.854-21.854-21.854c-12.036,0-21.854,9.817-21.854,21.854C66.82,345.463,76.638,355.281,88.674,355.281z"/>
			<path style="fill-rule:evenodd;clip-rule:evenodd;fill:#484D9B;" d="M93.512,397.43h79.614c1.63,0,2.965,1.333,2.965,2.965l0,0
				c0,1.631-1.335,2.964-2.965,2.964H93.512c-1.63,0-2.964-1.333-2.964-2.964l0,0C90.548,398.763,91.882,397.43,93.512,397.43z"/>
			<path style="fill-rule:evenodd;clip-rule:evenodd;fill:#606CE6;" d="M128.324,342.01h9.991c1.373,0,2.497,1.124,2.497,2.497
				v50.426c0,1.373-1.124,2.497-2.497,2.497h-9.991c-1.373,0-2.498-1.124-2.498-2.497v-50.426
				C125.827,343.134,126.951,342.01,128.324,342.01z"/>
			<text transform="matrix(1 0 0 1 74.2881 342.479)"><tspan x="0" y="0" style="fill:#FFFFFF; font-family:'OpenSans-Bold'; font-size:25.349px;">3</tspan><tspan x="14.469" y="0" style="fill:#FFFFFF; font-family:'OpenSans-Bold'; font-size:25.349px;">5</tspan></text>
		</g>
		<g>
			<path style="fill-rule:evenodd;clip-rule:evenodd;fill:#C7C2DF;" d="M622.024,167.34c24.615,0,44.693-20.077,44.693-44.694
				c0-24.616-20.078-44.694-44.693-44.694c-24.617,0-44.695,20.078-44.695,44.694C577.329,147.263,597.407,167.34,622.024,167.34z"
				/>
			<path style="fill-rule:evenodd;clip-rule:evenodd;fill:#484D9B;" d="M618.089,72.948c12.587,0,23.982,5.102,32.229,13.35
				c8.248,8.247,13.349,19.643,13.349,32.229c0,12.586-5.101,23.981-13.349,32.229c-8.246,8.248-19.642,13.35-32.229,13.35
				c-12.586,0-23.982-5.102-32.229-13.35c-8.248-8.248-13.35-19.643-13.35-32.229c0-12.586,5.102-23.982,13.35-32.229
				C594.107,78.05,605.503,72.948,618.089,72.948L618.089,72.948z M649.066,87.549c-7.927-7.926-18.881-12.831-30.978-12.831
				c-12.097,0-23.051,4.905-30.976,12.831c-7.928,7.927-12.832,18.88-12.832,30.978c0,12.097,4.904,23.049,12.832,30.978
				c7.926,7.927,18.88,12.832,30.976,12.832c12.097,0,23.051-4.905,30.978-12.832c7.927-7.929,12.832-18.881,12.832-30.978
				C661.898,106.429,656.993,95.476,649.066,87.549z"/>
			<path style="fill-rule:evenodd;clip-rule:evenodd;fill:#FFFFFF;" d="M618.089,153.374c19.193,0,34.847-15.654,34.847-34.847
				c0-19.194-15.653-34.847-34.847-34.847c-19.193,0-34.849,15.653-34.849,34.847C583.24,137.72,598.896,153.374,618.089,153.374z"
				/>
			<g>
				<path style="fill-rule:evenodd;clip-rule:evenodd;fill:#484D9B;" d="M618.088,85.919h0.002c0.416,0,0.757,0.34,0.757,0.757
					v1.846c0,0.417-0.341,0.757-0.757,0.757h-0.002c-0.417,0-0.757-0.34-0.757-0.757v-1.846
					C617.331,86.259,617.671,85.919,618.088,85.919z"/>
				<path style="fill-rule:evenodd;clip-rule:evenodd;fill:#484D9B;" d="M618.088,147.775h0.002c0.416,0,0.757,0.34,0.757,0.757
					v1.846c0,0.417-0.341,0.757-0.757,0.757h-0.002c-0.417,0-0.757-0.34-0.757-0.757v-1.846
					C617.331,148.116,617.671,147.775,618.088,147.775z"/>
			</g>
			<g>
				<path style="fill-rule:evenodd;clip-rule:evenodd;fill:#484D9B;" d="M634.393,90.287v0.001c0.362,0.207,0.487,0.672,0.278,1.034
					l-0.924,1.598c-0.208,0.36-0.673,0.485-1.033,0.276l-0.001-0.001c-0.361-0.207-0.485-0.673-0.275-1.033l0.922-1.599
					C633.566,90.203,634.032,90.078,634.393,90.287z"/>
				<path style="fill-rule:evenodd;clip-rule:evenodd;fill:#484D9B;" d="M603.463,143.856l0.003,0.002
					c0.361,0.208,0.485,0.672,0.277,1.033l-0.924,1.599c-0.207,0.36-0.672,0.484-1.033,0.277l-0.003-0.001
					c-0.359-0.21-0.486-0.674-0.275-1.035l0.923-1.599C602.639,143.773,603.102,143.649,603.463,143.856z"/>
			</g>
			<g>
				<path style="fill-rule:evenodd;clip-rule:evenodd;fill:#484D9B;" d="M646.328,102.222l0.002,0.001
					c0.207,0.361,0.082,0.828-0.278,1.034l-1.599,0.923c-0.361,0.209-0.826,0.085-1.032-0.276l-0.004-0.003
					c-0.207-0.361-0.082-0.824,0.278-1.031l1.599-0.924C645.654,101.737,646.12,101.861,646.328,102.222z"/>
				<path style="fill-rule:evenodd;clip-rule:evenodd;fill:#484D9B;" d="M592.758,133.15v0.002c0.21,0.361,0.086,0.826-0.275,1.034
					l-1.6,0.923c-0.36,0.21-0.824,0.085-1.033-0.277l-0.001-0.002c-0.208-0.36-0.084-0.825,0.278-1.033l1.597-0.924
					C592.085,132.665,592.551,132.79,592.758,133.15z"/>
			</g>
			<g>
				<path style="fill-rule:evenodd;clip-rule:evenodd;fill:#484D9B;" d="M650.699,118.526v0.002c0,0.417-0.343,0.758-0.759,0.758
					h-1.846c-0.416,0-0.757-0.341-0.757-0.758v-0.002c0-0.417,0.341-0.757,0.757-0.757h1.846
					C650.357,117.77,650.699,118.109,650.699,118.526z"/>
				<path style="fill-rule:evenodd;clip-rule:evenodd;fill:#484D9B;" d="M588.84,118.526v0.002c0,0.417-0.34,0.758-0.757,0.758
					h-1.848c-0.416,0-0.756-0.341-0.756-0.758v-0.002c0-0.417,0.34-0.757,0.756-0.757h1.848
					C588.5,117.77,588.84,118.109,588.84,118.526z"/>
			</g>
			<g>
				<path style="fill-rule:evenodd;clip-rule:evenodd;fill:#484D9B;" d="M646.33,134.83l-0.002,0.002
					c-0.209,0.362-0.674,0.484-1.034,0.277l-1.599-0.923c-0.36-0.209-0.485-0.673-0.278-1.034l0.004-0.002
					c0.206-0.361,0.671-0.485,1.032-0.277l1.599,0.924C646.412,134.005,646.537,134.47,646.33,134.83z"/>
				<path style="fill-rule:evenodd;clip-rule:evenodd;fill:#484D9B;" d="M592.758,103.9v0.003c-0.207,0.361-0.673,0.485-1.034,0.276
					l-1.6-0.923c-0.36-0.209-0.483-0.673-0.275-1.034l0.001-0.001c0.209-0.361,0.673-0.484,1.033-0.276l1.6,0.923
					C592.843,103.076,592.968,103.54,592.758,103.9z"/>
			</g>
			<g>
				<path style="fill-rule:evenodd;clip-rule:evenodd;fill:#484D9B;" d="M634.393,146.767L634.393,146.767
					c-0.361,0.207-0.826,0.084-1.033-0.276l-0.925-1.599c-0.207-0.361-0.083-0.826,0.278-1.033l0.001-0.002
					c0.36-0.208,0.825-0.083,1.033,0.277l0.924,1.599C634.88,146.093,634.755,146.558,634.393,146.767z"/>
				<path style="fill-rule:evenodd;clip-rule:evenodd;fill:#484D9B;" d="M603.466,93.196l-0.003,0.001
					c-0.361,0.209-0.824,0.085-1.034-0.276l-0.922-1.599c-0.21-0.362-0.085-0.827,0.275-1.035l0.002-0.001
					c0.362-0.208,0.828-0.085,1.035,0.276l0.922,1.6C603.951,92.523,603.825,92.987,603.466,93.196z"/>
			</g>
			<path style="fill-rule:evenodd;clip-rule:evenodd;fill:#484D9B;" d="M619.163,118.526c0,0.593-0.48,1.074-1.074,1.074
				c-0.594,0-1.074-0.481-1.074-1.074V93.383c0-0.593,0.48-1.074,1.074-1.074c0.594,0,1.074,0.481,1.074,1.074V118.526z"/>
			<path style="fill-rule:evenodd;clip-rule:evenodd;fill:#CF4A60;" d="M617.523,119.437c-0.504-0.312-0.657-0.973-0.346-1.476
				c0.313-0.502,0.975-0.656,1.477-0.344l15.442,9.652c0.503,0.312,0.657,0.973,0.344,1.476c-0.312,0.502-0.973,0.657-1.476,0.345
				L617.523,119.437z"/>
		</g>
		<g>
			<path style="fill-rule:evenodd;clip-rule:evenodd;fill:#100843;" d="M462.69,163.006c10.393,18.691,31.726,26.692,11.878,54.479
				c-14.889,20.839-44.847,36.981-13.452,62.881c18.02,14.866-110.829-12.615-110.829-12.615l11.03-64.287l-2.405-31.554
				l58.954,7.54C417.865,179.45,462.061,161.561,462.69,163.006z"/>
			<path style="fill-rule:evenodd;clip-rule:evenodd;fill:#606CE6;" d="M335.992,327.926c-1.024,12.081,4.407,30.925,8.493,42.073
				c4.083,11.148,3.178,45.78,1.775,57.363c-1.4,11.583-1.037,23.339,3.81,30.695c0,0,42.55,24.346,122.607-4.446
				c0,0,6.549-8.709,4.583-22.523c-1.968-13.814-16.766-30.678-11.661-65.605c1.556-10.647,24.193-105.997,21.557-108.316
				c-12.617-8.103-43.56-19.749-54.509-22.254c-16.581-3.793-21.853,0.495-36.028,2.905c-0.829,0.14-31.405,11.29-33.536,13.078
				C351.943,260.25,336.726,319.284,335.992,327.926z"/>
			<path style="fill-rule:evenodd;clip-rule:evenodd;fill:#EDBD54;" d="M439.718,236.903c-3.429-1.111-4.907-1.496-7.07-1.99
				c-16.581-3.793-21.853,0.495-36.028,2.905c-0.211,0.037-2.377,0.795-5.515,1.933c-5.57,21.651-17.997,67.699-17.658,87.763
				c0.385,22.82,5.236,116.296,5.236,116.296h38.869c0,0-0.468-36.79-1.872-65.356c-1.405-28.566-0.674-48.642,1.874-57.133
				C420.101,312.83,433.966,257.48,439.718,236.903z"/>
			<path style="fill-rule:evenodd;clip-rule:evenodd;fill:#FFFFFF;" d="M384.568,265.269l-0.012,0.055l-0.016,0.054l-0.013,0.055
				l-0.013,0.055l-0.015,0.054l-0.013,0.056l-0.015,0.053l-0.002,0.01l-0.011,0.046l-0.014,0.053l-0.014,0.056l-0.014,0.055
				l-0.012,0.054l-0.016,0.055l-0.012,0.056l-0.015,0.053l-0.014,0.056l-0.014,0.054l-0.014,0.055l-0.013,0.055l-0.014,0.055
				l-0.014,0.055l-0.015,0.056l-0.012,0.053l-0.015,0.056l-0.013,0.054l-0.014,0.056l-0.014,0.055l-0.014,0.054l-0.013,0.055
				l-0.015,0.056l-0.014,0.054l-0.012,0.056l-0.016,0.055l-0.012,0.055l-0.011,0.04l-0.005,0.015l-0.013,0.056l-0.013,0.054
				l-0.015,0.056l-0.013,0.056l-0.015,0.054l-0.013,0.056l-0.014,0.055l-0.027,0.109l-0.013,0.056l-0.015,0.054l-0.026,0.11
				l-0.014,0.055l-0.014,0.055l-0.026,0.111l-0.015,0.055l-0.013,0.056l-0.015,0.054l-0.013,0.057l-0.014,0.054l-0.014,0.056
				l-0.013,0.056l-0.015,0.055l-0.013,0.057l-0.015,0.054l-0.004,0.018l-0.009,0.038l-0.014,0.056c8.153,4.09,18,7.273,28.119,8.329
				c5.798,0.607,11.694,0.516,17.425-0.492l0.978-3.788c-5.89,1.236-12.017,1.398-18.044,0.768
				C402.179,272.548,392.476,269.346,384.568,265.269L384.568,265.269z M418.595,317.605c0.292-1.074,0.623-2.311,0.986-3.685
				c-5.375,0.736-10.915,0.867-16.373,0.539c-10.163-0.612-20.014-2.808-27.996-5.655l-0.01,0.056l-0.018,0.112l-0.01,0.058
				l-0.008,0.057l-0.008,0.055l-0.037,0.225l-0.007,0.057l-0.01,0.056l-0.01,0.057l-0.007,0.057l-0.01,0.055l-0.007,0.057
				l-0.018,0.111l-0.009,0.056l-0.009,0.057l-0.008,0.056l-0.008,0.056l-0.009,0.055l-0.009,0.057l-0.009,0.056l-0.092,0.609
				l-0.007,0.057l-0.01,0.054l-0.007,0.056l-0.008,0.055l-0.009,0.055l-0.016,0.111l-0.008,0.055l-0.008,0.055l-0.009,0.056
				l-0.008,0.054l-0.008,0.056l-0.102,0.708l-0.007,0.056l-0.009,0.053l-0.008,0.056c8.187,2.849,18.12,5.022,28.325,5.637
				C408.182,318.296,413.444,318.207,418.595,317.605L418.595,317.605z M424.032,296.832l0.946-3.667
				c-4.248,0.532-8.564,0.569-12.832,0.209c-11.89-1.004-23.352-5.065-31.879-10.075l-0.012,0.057l-0.012,0.057l-0.013,0.056
				l-0.015,0.058l-0.012,0.056l-0.013,0.056l-0.014,0.057l-0.013,0.057l-0.228,1.014l-0.011,0.057l-0.013,0.056l-0.014,0.057
				l-0.014,0.057l-0.012,0.055l-0.014,0.058l-0.011,0.057l-0.013,0.056l-0.013,0.057l-0.014,0.056l-0.013,0.056l-0.012,0.057
				l-0.137,0.62l-0.014,0.056l-0.013,0.057l-0.012,0.055l-0.013,0.057l-0.013,0.057l-0.013,0.056l-0.012,0.058l-0.013,0.056
				l-0.011,0.057l-0.013,0.056l-0.013,0.057l-0.014,0.055l-0.012,0.057l-0.012,0.057l-0.014,0.056
				c8.858,5.001,20.436,8.989,32.393,9.999C415.898,297.242,419.986,297.243,424.032,296.832L424.032,296.832z M373.603,333.701
				l0.002,0.055v0.054l0.003,0.056l0.002,0.053l0.003,0.11l0.001,0.051l0.002,0.004l0.001,0.055l0.001,0.056l0.002,0.054
				l0.001,0.056l0.001,0.057l0.002,0.054l0.003,0.056v0.056l0.002,0.056l0.003,0.055l0.001,0.057l0.001,0.057l0.003,0.056
				l0.002,0.057l0.001,0.056l0.001,0.056l0.002,0.058l0.003,0.057l0.001,0.057l0.001,0.056l0.003,0.057l0.002,0.058l0.001,0.058
				l0.001,0.057l0.002,0.058l0.003,0.058l0.001,0.058l0.001,0.058v0.004l0.003,0.053l0.002,0.059l0.003,0.058l0.001,0.059
				l0.001,0.057l0.003,0.06l0.002,0.058l0.003,0.059l0.001,0.059l0.001,0.059l0.003,0.059l0.002,0.059l0.003,0.06l0.001,0.059
				l0.001,0.06l0.003,0.059l0.002,0.06l0.003,0.06l0.002,0.059l0.001,0.061l0.002,0.059l0.002,0.061l0.003,0.06l0.002,0.06
				l0.003,0.06l0.001,0.061l0.001,0.06l0.003,0.06l0.001,0.014l0.001,0.049c7.906,2.058,17.311,3.609,26.957,4.064
				c4.785,0.225,9.638,0.184,14.407-0.198c0.045-1.227,0.101-2.412,0.163-3.554c-4.753,0.402-9.609,0.454-14.405,0.227
				C391.004,337.447,381.459,335.825,373.603,333.701L373.603,333.701z M374.465,356.204l0.159,3.672
				c7.715,1.943,16.773,3.398,26.055,3.835c4.788,0.226,9.643,0.182,14.414-0.2c-0.032-1.198-0.061-2.377-0.085-3.533
				c-4.677,0.386-9.45,0.43-14.164,0.207C391.361,359.737,382.151,358.215,374.465,356.204L374.465,356.204z M375.653,382.509
				l0.084,1.784l0.088,1.892c7.685,1.924,16.689,3.362,25.917,3.798c4.793,0.227,9.656,0.183,14.435-0.201l-0.003-0.055
				l-0.003-0.057l-0.002-0.056l-0.002-0.054l-0.002-0.057v-0.041l-0.004-0.014l-0.001-0.055l-0.001-0.057l-0.002-0.055l-0.002-0.055
				l-0.004-0.056l-0.002-0.056l-0.002-0.055l-0.002-0.056l-0.002-0.056l-0.003-0.055l-0.002-0.056l-0.001-0.055l-0.002-0.056
				l-0.004-0.054l-0.002-0.057l-0.002-0.056l-0.002-0.055l-0.004-0.055l-0.002-0.056l-0.002-0.056l-0.001-0.054l-0.003-0.056
				l-0.003-0.055l-0.001-0.056l-0.002-0.056v-0.006l-0.002-0.049l-0.004-0.055l-0.002-0.056l-0.002-0.056l-0.002-0.055l-0.004-0.055
				l-0.001-0.055l-0.002-0.056l-0.002-0.056l-0.001-0.055l-0.004-0.056l-0.002-0.054l-0.002-0.056l-0.002-0.055l-0.004-0.055
				l-0.002-0.056l-0.002-0.055l-0.002-0.056l-0.004-0.055l-0.001-0.056l-0.002-0.054l-0.002-0.056l-0.002-0.055l-0.003-0.055
				l-0.002-0.055l-0.002-0.027v-0.028l-0.002-0.054l-0.004-0.056l-0.002-0.056l-0.002-0.054l-0.002-0.056l-0.004-0.055l-0.002-0.055
				c-4.663,0.381-9.424,0.425-14.124,0.204C392.476,386.013,383.314,384.504,375.653,382.509L375.653,382.509z M376.823,406.867
				l0.082,1.667l0.1,2.008c7.629,1.895,16.537,3.305,25.661,3.736c4.746,0.224,9.557,0.184,14.287-0.19l-0.007-0.238l-0.087-3.273
				v-0.02c-4.635,0.373-9.358,0.416-14.027,0.195C393.501,410.312,384.434,408.831,376.823,406.867z"/>
			<path style="fill-rule:evenodd;clip-rule:evenodd;fill:#FFFFFF;" d="M439.718,236.903L439.718,236.903l-0.102-0.034l-0.029-0.008
				l-0.125-0.039l-0.008-0.002l-0.258-0.08l-0.037-0.011l-0.093-0.029l-0.059-0.019l-0.069-0.021l-0.08-0.025l-0.048-0.015
				l-0.102-0.03l-0.024-0.009l-0.123-0.038l-0.004-0.001l-0.126-0.038l-0.019-0.006l-0.107-0.033l-0.038-0.011l-0.086-0.027
				l-0.06-0.017l-0.065-0.02l-0.08-0.025l-0.041-0.012l-0.102-0.03l-0.021-0.007l-0.123-0.036v-0.001l-0.121-0.037l-0.021-0.004
				l-0.101-0.03l-0.041-0.013l-0.079-0.023l-0.06-0.018l-0.059-0.018l-0.081-0.024l-0.038-0.011l-0.101-0.029l-0.018-0.006
				l-0.117-0.034h-0.002l-0.115-0.035l-0.022-0.006l-0.095-0.027l-0.042-0.013l-0.073-0.021l-0.061-0.018l-0.055-0.014l-0.08-0.024
				l-0.034-0.01l-0.1-0.028l-0.014-0.004l-0.113-0.031l-0.006-0.003l-0.107-0.029l-0.023-0.006l-0.088-0.025l-0.041-0.012
				l-0.069-0.02l-0.06-0.017l-0.049-0.013l-0.08-0.023l-0.029-0.008l-0.098-0.027l-0.011-0.004l-0.109-0.029l-0.007-0.002
				l-0.101-0.027l-0.024-0.006l-0.083-0.023l-0.042-0.012l-0.063-0.018l-0.061-0.015l-0.044-0.013l-0.08-0.02l-0.024-0.006
				l-0.096-0.026l-0.008-0.002l-0.103-0.027l-0.01-0.002l-0.094-0.025l-0.026-0.007l-0.074-0.02l-0.044-0.012l-0.057-0.014
				l-0.061-0.017l-0.039-0.01l-0.078-0.02l-0.022-0.006l-0.093-0.024h-0.005l-0.098-0.026l-0.013-0.003l-0.086-0.021l-0.025-0.007
				l-0.068-0.018l-0.044-0.011l-0.052-0.012l-0.06-0.017l-0.035-0.008l-0.075-0.019l-0.018-0.003l-0.09-0.021l-0.002-0.001
				l-0.093-0.023l-0.013-0.003l-0.077-0.019l-0.029-0.008l-0.061-0.014l-0.045-0.01l-0.047-0.011l-0.059-0.015l-0.028-0.006
				l-0.073-0.016l-0.015-0.004l-0.088-0.02c-16.581-3.793-21.853,0.495-36.028,2.905l-0.012,0.002h-0.002l-0.012,0.004l-0.006,0.001
				l-0.012,0.002l-0.008,0.002l-0.012,0.004l-0.014,0.003l-0.008,0.002l-0.02,0.005l-0.007,0.003l-0.025,0.007l-0.003,0.001
				l-0.03,0.009l-0.002,0.001l-0.03,0.01l-0.009,0.003l-0.028,0.009l-0.015,0.005l-0.025,0.006l-0.022,0.007l-0.02,0.007
				l-0.029,0.01l-0.014,0.004l-0.039,0.014l-0.008,0.002l-0.049,0.015l0,0l-0.051,0.017l-0.009,0.003l-0.047,0.016l-0.015,0.005
				l-0.042,0.014l-0.025,0.009l-0.033,0.011l-0.037,0.012l-0.023,0.009l-0.049,0.017l-0.016,0.006l-0.06,0.02l-0.007,0.001
				l-0.069,0.024l-0.003,0.001l-0.067,0.024l-0.015,0.004l-0.059,0.02l-0.026,0.01l-0.049,0.017l-0.039,0.014l-0.039,0.013
				l-0.054,0.018l-0.027,0.01l-0.066,0.023l-0.015,0.005l-0.082,0.029h-0.002l-0.088,0.03l-0.011,0.004l-0.077,0.027l-0.027,0.009
				l-0.064,0.023l-0.041,0.015l-0.054,0.018l-0.056,0.02l-0.039,0.013l-0.072,0.026l-0.025,0.009l-0.088,0.031l-0.011,0.003
				l-0.102,0.037l-0.005,0.001l-0.099,0.036l-0.021,0.007l-0.086,0.029l-0.036,0.013l-0.07,0.025l-0.056,0.021l-0.055,0.019
				l-0.073,0.026l-0.037,0.014l-0.092,0.032l-0.022,0.008l-0.109,0.039l-0.006,0.002l-0.117,0.042l-0.014,0.005l-0.103,0.037
				l-0.034,0.012l-0.088,0.031l-0.052,0.019l-0.07,0.026l-0.071,0.025l-0.053,0.018l-0.093,0.035l-0.032,0.011l-0.113,0.041
				l-0.015,0.005l-0.129,0.047l-0.007,0.001l-0.124,0.044l-0.026,0.01l-0.105,0.039l-0.048,0.016l-0.087,0.031l-0.068,0.025
				l-0.067,0.024l-0.09,0.034l-0.048,0.016l-0.113,0.041l-0.026,0.01l-0.135,0.049l-0.005,0.002l-0.142,0.051l-0.017,0.006
				l-0.128,0.047l-0.038,0.013l-0.107,0.039l-0.061,0.021l-0.084,0.031l0,0c-0.321,1.247-0.665,2.576-1.027,3.973
				c2.389,11.29,12.421,19.842,24.409,19.907c13.811,0.074,25.147-11.14,25.222-24.951L439.718,236.903z"/>
			<path style="fill-rule:evenodd;clip-rule:evenodd;fill:#DF6162;" d="M402.933,417.808l-3.021-0.381
				c0,0-13.486,2.781-14.949,3.073c-1.464,0.293-0.528,5.093,6.497,5.971C398.483,427.349,402.933,417.808,402.933,417.808z"/>
			<g>
				<g>
					<path style="fill-rule:evenodd;clip-rule:evenodd;fill:#DE9396;" d="M272.093,273.838c0,0-23.3-40.149-32.742-55.056
						c-4.144-6.545-10.432-4.696-6.551,4.014c2.139,4.802,9.651,16.694,9.651,16.694c-10.544,1.03-14.022,13.799-11.175,19.003
						c1.404,2.568,9.958,9.885,12.014,11.214c2.056,1.329,10.839,12.617,10.839,12.617L272.093,273.838z"/>
					<path style="fill-rule:evenodd;clip-rule:evenodd;fill:#DF6162;" d="M254.842,244.41c-2.418-4.083-4.861-8.189-7.16-12.016
						c-0.747,0.077-1.561,0.165-2.453,0.27c-3.781,0.443-6.532-0.776-8.582-2.727c2.763,4.739,5.805,9.552,5.805,9.552
						c-1.653,0.161-3.132,0.612-4.44,1.275c2.443,1.272,6.976,2.721,14.449,3.596C253.375,244.468,254.164,244.479,254.842,244.41z"
						/>
					<path style="fill-rule:evenodd;clip-rule:evenodd;fill:#DF6162;" d="M258.47,250.554c-1.653-2.805-3.36-5.696-5.065-8.567
						c-3.514-0.869-7.639-1.784-11.603-2.416c-10.036,1.479-13.313,13.825-10.526,18.922c0.867,1.588,4.462,4.984,7.569,7.666
						C247.427,263.736,254.385,256.088,258.47,250.554z"/>
					<path style="fill-rule:evenodd;clip-rule:evenodd;fill:#DE9396;" d="M233.369,247.211c-4.15,2.354-7.021,4.626-4.309,10.143
						c2.712,5.519,8.623,5.05,8.523,2.968c-0.101-2.082-4.966-9.553-4.966-9.553S238.956,246.59,233.369,247.211z"/>
					<path style="fill-rule:evenodd;clip-rule:evenodd;fill:#DE9396;" d="M236.839,243.74c-6.607-1.296-6.786,3.748-3.749,9.92
						c3.034,6.174,7.678,6.681,9.463,3.951c1.786-2.731-5.357-10.091-5.357-10.091S243.09,243.045,236.839,243.74z"/>
					<path style="fill-rule:evenodd;clip-rule:evenodd;fill:#DE9396;" d="M236.573,248.391c3.035,6.174,7.322,6.323,9.107,3.592
						c1.786-2.73-5.357-10.089-5.357-10.089s2.031-1.874,1.619-3.103c-0.985-2.942-7.581-3.145-7.836,2.35
						C234.024,242.911,235.083,245.359,236.573,248.391z"/>
					<path style="fill-rule:evenodd;clip-rule:evenodd;fill:#DE9396;" d="M265.323,265.437c4.286-11.25-0.178-27.322-5-26.965
						c-4.822,0.357-20.27-1.16-20.804,3.036c-0.537,4.196,15.983,6.787,15.983,6.787s-11.252,13.215-4.287,16.965
						C258.181,269.009,265.501,269.187,265.323,265.437z"/>
				</g>
				<path style="fill-rule:evenodd;clip-rule:evenodd;fill:#606CE6;" d="M310.486,328.532c-1.241-0.483-29.859-46.011-37.447-62.161
					c-0.826-1.763-1.31-2.772-1.358-2.838c-6.995-9.526-28.572,15.186-28.251,15.668c0.323,0.484,28.111,69.952,48.374,99.022
					c9.711,13.925,29.854,20.587,39.444,7.098c18.723-26.332,70.198-99.316,37.288-127.021c-5.014-4.221-27.066-1.182-30.214,6.33
					C335.179,272.135,311.864,329.065,310.486,328.532z"/>
			</g>
			<path style="fill-rule:evenodd;clip-rule:evenodd;fill:#DE9396;" d="M427.108,414.297l-6.793-1.137c0,0-7.783,1.37-10.651,1.955
				c-2.868,0.586-11.941,2.693-13.347,3.455c-1.405,0.76-5.912,6.228-5.912,6.228l12.586,4.483l25.64,2.106L427.108,414.297z"/>
			<path style="fill-rule:evenodd;clip-rule:evenodd;fill:#484D9B;" d="M386.415,264.449c0.347-0.341,0.906-0.336,1.247,0.012
				c0.344,0.346,0.338,0.905-0.01,1.247l-25.98,25.486l13.366,57.922c0.108,0.476-0.189,0.95-0.664,1.059
				c-0.475,0.109-0.949-0.188-1.058-0.663l-13.477-58.403c-0.064-0.288,0.017-0.603,0.243-0.826l12.175-11.942l-7.913-8.936
				c-0.256-0.249-0.344-0.643-0.191-0.989l11.409-25.794c0.195-0.446,0.717-0.649,1.164-0.452c0.446,0.196,0.649,0.718,0.454,1.165
				l-11.182,25.28l7.519,8.491L386.415,264.449z"/>
			<path style="fill-rule:evenodd;clip-rule:evenodd;fill:#DE9396;" d="M414.861,194.179L414.861,194.179
				c-9.905-0.053-18.049,8.006-18.103,17.908l-0.142,26.362c-0.052,9.903,8.006,18.049,17.909,18.104l0,0
				c9.902,0.052,18.049-8.006,18.103-17.91l0.142-26.362C432.823,202.379,424.765,194.232,414.861,194.179z"/>
			<path style="fill-rule:evenodd;clip-rule:evenodd;fill:#DF6162;" d="M396.723,218.739l-0.106,19.71
				c-0.009,1.574,0.189,3.102,0.564,4.563l35.511-16.055l0.054-10.304L396.723,218.739z"/>
			<path style="fill-rule:evenodd;clip-rule:evenodd;fill:#DF6162;" d="M373.755,172.109c6.499-0.014,11.779,5.241,11.794,11.739
				c0.018,6.499-5.238,11.779-11.737,11.796c-6.499,0.015-11.781-5.239-11.795-11.738C362,177.409,367.256,172.127,373.755,172.109z
				"/>
			<path style="fill-rule:evenodd;clip-rule:evenodd;fill:#DF6162;" d="M456.141,172.041c0.292,0.044,0.579,0.097,0.861,0.162
				l0.01,0.002l-0.003-0.001c5.23,1.186,9.139,5.856,9.154,11.448c0.015,6.498-5.242,11.779-11.738,11.795
				c-6.499,0.015-11.782-5.241-11.797-11.738c-0.01-3.777,1.762-7.142,4.522-9.302c-0.357,3.468,0.125,7.776,4.551,8.28
				l-0.016-6.787C451.677,173.155,454.261,171.934,456.141,172.041z"/>
			<path style="fill-rule:evenodd;clip-rule:evenodd;fill:#DE9396;" d="M411.223,112.511L411.223,112.511
				c22.169-0.055,40.352,18.036,40.405,40.205l0.091,36.63c0.054,22.168-18.038,40.351-40.208,40.405l0,0
				c-22.167,0.054-40.35-18.037-40.403-40.207l-0.09-36.629C370.962,130.746,389.055,112.564,411.223,112.511z"/>
			<path style="fill-rule:evenodd;clip-rule:evenodd;fill:#C66061;" d="M371.065,173.132l-0.048-20.216
				c-0.028-11.246,4.614-21.463,12.089-28.81c13.426-3.001,30.053-4.226,31.482-4.369c2.342-0.234,23.181,5.854,23.181,5.854
				l-8.313,17.445c0,0-21.817,1.971-26.107,2.809c-13.384,2.614-24.674,21.757-31.611,30.089
				C371.739,175.933,371.479,174.894,371.065,173.132z"/>
			<path style="fill-rule:evenodd;clip-rule:evenodd;fill:#606CE6;" d="M486.86,256.975
				c13.644,12.631,26.343,119.761,29.485,149.317c1.17,11.005,0.233,28.012-25.288,28.012c-25.522,0-71.182,0-71.182,0
				s5.384-10.45-0.002-22.157c0,0,52.449-10.303,54.323-10.537s5.007-2.964,3.98-6.322c-9.727-31.836-28.542-93.053-18.254-118.184
				C466.455,261.148,474.275,251.643,486.86,256.975z"/>
			<path style="fill-rule:evenodd;clip-rule:evenodd;fill:#FFFFFF;" d="M236.256,443.81h138.338c5.228,0,9.507-4.276,9.507-9.505
				v-0.001c0-5.228-4.279-9.506-9.507-9.506H236.256c-5.228,0-9.505,4.277-9.505,9.506v0.001
				C226.751,439.534,231.027,443.81,236.256,443.81z"/>
			<path style="fill-rule:evenodd;clip-rule:evenodd;fill:#D6D6F9;" d="M374.171,443.81h62.306c5.229,0,9.507-4.276,9.507-9.505
				v-0.001c0-5.228-4.277-9.506-9.507-9.506h-62.306c-5.229,0-9.507,4.277-9.507,9.506v0.001
				C364.664,439.534,368.941,443.81,374.171,443.81z"/>
			<g>
				<g>
					<path style="fill-rule:evenodd;clip-rule:evenodd;fill:#100843;" d="M393.988,202.631c0.096,5.852,4.915,10.518,10.767,10.422
						c5.853-0.096,10.52-4.915,10.424-10.767h-0.02c-0.014-1.005-0.852-1.815-1.858-1.799l-17.496,0.284
						c-1.004,0.017-1.815,0.853-1.799,1.859L393.988,202.631z"/>
					<path style="fill-rule:evenodd;clip-rule:evenodd;fill:#A32E35;" d="M398.069,210.815c1.841,1.436,4.168,2.278,6.685,2.238
						c2.056-0.033,3.966-0.65,5.575-1.69c-0.852-2.161-3.255-3.751-6.122-3.81C401.472,207.496,399.098,208.846,398.069,210.815z"/>
					<path style="fill-rule:evenodd;clip-rule:evenodd;fill:#FFFFFF;" d="M413.534,200.501l-16.441,0.267
						c-0.234,1.822,0.64,3.646,1.869,4.025c1.495,0.462,13.39-0.04,14.217-0.991C413.579,203.343,413.61,201.885,413.534,200.501z"
						/>
				</g>
				<path style="fill-rule:evenodd;clip-rule:evenodd;fill:#DF6162;" d="M427.345,191.652c-2.971,0.109-5.293,2.607-5.184,5.579
					c0.108,2.972,2.606,5.294,5.578,5.185c2.971-0.109,5.294-2.607,5.186-5.579C432.814,193.865,430.316,191.544,427.345,191.652z"
					/>
				<path style="fill-rule:evenodd;clip-rule:evenodd;fill:#DF6162;" d="M383.861,193.191c-2.972,0.109-5.293,2.606-5.186,5.578
					c0.11,2.973,2.608,5.293,5.579,5.185c2.972-0.108,5.294-2.606,5.185-5.578C389.329,195.402,386.832,193.081,383.861,193.191z"/>
				<path style="fill-rule:evenodd;clip-rule:evenodd;fill:#100843;" d="M379.746,174.345c-0.718,0.408-1.632,0.159-2.041-0.557
					c-0.409-0.717-0.16-1.632,0.552-2.04c3.751-2.205,8.899-2.722,12.813-0.661c0.728,0.383,1.01,1.293,0.629,2.021
					c-0.384,0.728-1.295,1.013-2.023,0.629C386.532,172.082,382.744,172.701,379.746,174.345z"/>
				<path style="fill-rule:evenodd;clip-rule:evenodd;fill:#100843;" d="M429.099,171.603c-3.17-1.304-7.001-1.499-9.943,0.496
					c-0.68,0.462-1.618,0.281-2.079-0.401c-0.461-0.681-0.28-1.617,0.4-2.079c3.661-2.483,8.834-2.541,12.803-0.766
					c0.758,0.327,1.107,1.21,0.779,1.967C430.729,171.578,429.849,171.926,429.099,171.603z"/>
				<path style="fill-rule:evenodd;clip-rule:evenodd;fill:#100843;" d="M384.327,176.995L384.327,176.995
					c-0.852,0.046-1.617,0.395-2.2,0.936c-0.264-0.052-0.718-0.205-0.99-0.671c-0.158-0.267-0.503-0.356-0.771-0.198
					c-0.267,0.157-0.355,0.502-0.197,0.769c0.319,0.547,0.784,0.854,1.201,1.027l-0.024,0.035c-0.48-0.084-1.047-0.302-1.518-0.818
					c-0.209-0.229-0.564-0.246-0.794-0.037c-0.228,0.208-0.245,0.564-0.038,0.794c0.527,0.577,1.147,0.89,1.719,1.055l-0.004,0.01
					c-0.532-0.001-1.127-0.115-1.718-0.448c-0.271-0.15-0.613-0.053-0.766,0.218c-0.151,0.271-0.055,0.614,0.217,0.765
					c0.607,0.342,1.214,0.507,1.781,0.564l0.787,0.067l0.237,4.262c0.108,1.942,1.785,3.442,3.727,3.333l0,0
					c1.941-0.108,3.441-1.784,3.334-3.725l-0.257-4.604C387.943,178.387,386.269,176.887,384.327,176.995z"/>
				<path style="fill-rule:evenodd;clip-rule:evenodd;fill:#100843;" d="M424.833,174.742L424.833,174.742
					c0.852-0.048,1.65,0.213,2.29,0.685c0.257-0.08,0.69-0.283,0.909-0.776c0.127-0.283,0.461-0.41,0.744-0.282
					c0.283,0.127,0.41,0.458,0.283,0.743c-0.259,0.577-0.686,0.934-1.082,1.153l0.029,0.03c0.468-0.136,1.007-0.416,1.417-0.98
					c0.182-0.251,0.535-0.308,0.786-0.124c0.249,0.182,0.306,0.534,0.126,0.784c-0.462,0.634-1.041,1.013-1.594,1.24l0.008,0.01
					c0.529-0.061,1.107-0.241,1.657-0.637c0.252-0.18,0.604-0.12,0.784,0.132c0.181,0.252,0.122,0.604-0.13,0.784
					c-0.565,0.407-1.15,0.639-1.706,0.758l-0.778,0.154l0.238,4.262c0.107,1.942-1.393,3.619-3.334,3.726l0,0
					c-1.941,0.108-3.618-1.392-3.728-3.333l-0.254-4.604C421.392,176.526,422.892,174.849,424.833,174.742z"/>
				<path style="fill-rule:evenodd;clip-rule:evenodd;fill:#EABFC1;" d="M402.605,188.37c0,0-3.375,3.033-3.488,4.92
					c-0.111,1.888,1.684,2.893,3.411,2.757C404.257,195.912,404.465,186.477,402.605,188.37z"/>
			</g>
			<path style="fill-rule:evenodd;clip-rule:evenodd;fill:#100843;" d="M457.99,172.322c-6.75,0-6.29,9.001-6.29,13.529
				c-7.357,0-6.213-9.755-6.213-14.301c0,0-17.12-2.841-17.355-31.824c0,0-28.081,3.456-45.068-0.993
				c0,0-1.998,21.375-11.617,32.934c0,0,0,2.831,0,5.46c0,2.629-2.441,5.561-4.456,5.561v-5.965c0,0-7.529,13.801-12.963,13.801
				c0,0-15.915-23.069-18.341-37.226c-2.425-14.156,37.819-63.097,73.615-63.097c35.793,0,46.456,15.78,38.02,32.155
				c0,0,8.087,1.415,11.525,8.897c3.439,7.483-1.82,19.618,3.845,31.753C462.69,163.006,458.061,171.897,457.99,172.322z"/>
			<path style="fill-rule:evenodd;clip-rule:evenodd;fill:#100843;" d="M434.794,139.15c0,0,12.589-20.613,0.837-28.168
				c-11.751-7.554-47.009-7.551-62.327,11.755c-15.319,19.305-36.512,51.203-36.092,68.41c0.42,17.21,22.245,32.738,13.851,47.427
				c-8.394,14.69-20.568,41.971,0.418,60.438c20.986,18.469,13.851,1.888,13.851,1.888s24.972,9.234,38.823,0.841
				c13.85-8.393,3.357-25.393-10.492-31.898c0,0,6.716,0.524,6.61-3.567c-0.105-4.091-18.674-2.099-18.044-19.936
				c0.275-7.797,1.372-14.363,1.806-20.298c1.513-20.733-12.211-25.039-11.214-38.451c1.251-16.856,11.677-39.996,31.02-49.743
				C430.911,124.211,434.794,139.15,434.794,139.15z"/>
			<path style="fill-rule:evenodd;clip-rule:evenodd;fill:#484D9B;" d="M420.045,413.014c-0.482,0.094-0.943-0.219-1.038-0.698
				c-0.094-0.477,0.219-0.942,0.699-1.037c0.148-0.029,52.494-10.311,54.384-10.548c0.109-0.013,0.219-0.036,0.326-0.069
				c0.703-0.214,1.537-0.784,2.169-1.59c0.617-0.785,1.021-1.792,0.883-2.898c-0.027-0.215-0.07-0.426-0.133-0.631l-0.177-0.58
				c-9.809-32.097-28.396-92.923-18.051-118.191c0.184-0.451,0.697-0.667,1.147-0.484c0.452,0.185,0.668,0.697,0.484,1.148
				c-10.106,24.688,8.36,85.124,18.105,117.015l0.177,0.581c0.101,0.324,0.167,0.635,0.202,0.929
				c0.203,1.625-0.37,3.077-1.249,4.196c-0.858,1.097-2.033,1.883-3.047,2.193c-0.221,0.066-0.431,0.114-0.623,0.137
				C472.451,402.719,420.193,412.985,420.045,413.014z"/>
			<path style="fill-rule:evenodd;clip-rule:evenodd;fill:#484D9B;" d="M465.503,347.284c0.212,0.44,0.028,0.968-0.411,1.179
				c-0.438,0.212-0.967,0.028-1.179-0.411c-0.023-0.047-8.023-16.463-11.559-29.653c-0.125-0.47,0.155-0.955,0.628-1.081
				c0.471-0.126,0.956,0.153,1.082,0.625C457.556,330.977,465.479,347.236,465.503,347.284z"/>
			<path style="fill-rule:evenodd;clip-rule:evenodd;fill:#484D9B;" d="M474.492,402.444c-0.461,0.161-0.965-0.081-1.127-0.54
				c-0.163-0.46,0.078-0.965,0.539-1.127c0.017-0.007,6.05-2.155,15.768-0.235c0.48,0.093,0.792,0.559,0.698,1.037
				c-0.095,0.479-0.558,0.791-1.039,0.698C480.085,400.45,474.507,402.437,474.492,402.444z"/>
			<path style="fill-rule:evenodd;clip-rule:evenodd;fill:#484D9B;" d="M477.227,401.23c-0.386,0.297-0.94,0.226-1.237-0.159
				c-0.298-0.387-0.227-0.94,0.159-1.238c0.015-0.011,5.088-3.924,14.926-5.105c0.484-0.058,0.926,0.289,0.981,0.772
				c0.058,0.485-0.29,0.926-0.774,0.982C481.926,397.606,477.238,401.219,477.227,401.23z"/>
			<path style="fill-rule:evenodd;clip-rule:evenodd;fill:#484D9B;" d="M451.104,241.154c-0.005-0.487,0.385-0.886,0.872-0.892
				c0.485-0.005,0.887,0.384,0.891,0.871l0.44,31.922c0.004,0.317-0.16,0.597-0.409,0.754l-11.157,7.086l3.78,9.645
				c0.088,0.225,0.077,0.464-0.011,0.67l-29.69,69.118c-0.193,0.447-0.712,0.654-1.161,0.463c-0.449-0.192-0.655-0.714-0.463-1.162
				l29.548-68.784l-3.898-9.946c-0.011-0.026-0.023-0.052-0.03-0.079l-7.463-19.041c-0.179-0.454,0.047-0.967,0.499-1.145
				c0.454-0.178,0.968,0.048,1.145,0.501l7.089,18.083l10.453-6.636L451.104,241.154z"/>
			<path style="fill-rule:evenodd;clip-rule:evenodd;fill:#1D135C;" d="M340.479,138.566c3.167-5.436,7.723-11.532,13.23-17.518
				c43.612,4.737,58.58-17.813,63.513-30.566c2.577,0.192,4.991,0.479,7.249,0.854C409.938,140.621,362.621,141.199,340.479,138.566
				z"/>
			<path style="fill-rule:evenodd;clip-rule:evenodd;fill:#1D135C;" d="M440.962,126.114c-0.099,0.477-0.566,0.783-1.044,0.685
				c-0.477-0.1-0.782-0.568-0.684-1.045c0.564-2.682,0.755-5.448,0.179-7.928c-0.556-2.403-1.852-4.552-4.259-6.099
				c-1.404-0.902-3.168-1.696-5.206-2.357c-2.079-0.671-4.442-1.208-7.007-1.582c-0.483-0.068-0.819-0.516-0.75-0.999
				c0.068-0.482,0.517-0.819,1-0.749c2.656,0.387,5.117,0.946,7.295,1.65c2.19,0.708,4.094,1.567,5.622,2.55
				c2.845,1.827,4.371,4.361,5.027,7.191C441.775,120.186,441.573,123.207,440.962,126.114L440.962,126.114z M352.491,150.736
				c0.254-0.415,0.798-0.542,1.213-0.286c0.415,0.255,0.543,0.798,0.288,1.213c-4.848,7.844-9.154,15.819-12.064,23.069
				c-2.485,6.198-3.946,11.848-3.835,16.396c0.011,0.486-0.375,0.892-0.861,0.902c-0.486,0.011-0.892-0.373-0.902-0.859
				c-0.116-4.808,1.392-10.69,3.962-17.097C343.239,166.729,347.592,158.664,352.491,150.736L352.491,150.736z M383.109,246.371
				c-0.018,0.487-0.426,0.868-0.914,0.85c-0.485-0.017-0.866-0.426-0.849-0.912c0.171-4.859,0.654-9.209,1.102-13.232
				c0.276-2.479,0.538-4.831,0.703-7.096c0.1-1.374,0.134-2.661,0.107-3.865c-0.025-1.201-0.109-2.354-0.243-3.463
				c-0.057-0.485,0.29-0.926,0.775-0.982c0.483-0.057,0.924,0.289,0.979,0.774c0.137,1.133,0.225,2.342,0.252,3.635
				c0.026,1.287-0.007,2.627-0.107,4.025c-0.166,2.28-0.433,4.659-0.71,7.165C383.759,237.277,383.276,241.61,383.109,246.371
				L383.109,246.371z M400.291,140.889c-0.41,0.263-0.957,0.144-1.22-0.266c-0.264-0.409-0.145-0.958,0.266-1.221
				c0.656-0.419,1.337-0.832,2.04-1.232c0.683-0.391,1.373-0.762,2.065-1.11c8.613-4.337,14.288-5.589,18.148-4.877
				c4.075,0.752,6.12,3.566,7.379,7.259c0.157,0.462-0.093,0.963-0.553,1.121c-0.463,0.156-0.964-0.092-1.12-0.555
				c-1.063-3.116-2.745-5.484-6.023-6.09c-3.496-0.645-8.805,0.572-17.035,4.719c-0.679,0.341-1.343,0.699-1.989,1.067
				C401.596,140.076,400.941,140.472,400.291,140.889z"/>
		</g>
		<g>
			<g>
				<path style="fill-rule:evenodd;clip-rule:evenodd;fill:#9C9DCC;" d="M600.917,385.893h-4.861c-1.171,0-2.127-0.955-2.127-2.125
					v-4.861c0-1.171,0.956-2.127,2.127-2.127h4.861c1.169,0,2.125,0.956,2.125,2.127v4.861
					C603.042,384.938,602.086,385.893,600.917,385.893z"/>
				<path style="fill-rule:evenodd;clip-rule:evenodd;fill:#9C9DCC;" d="M584.059,385.893h-4.861c-1.172,0-2.127-0.955-2.127-2.125
					v-4.861c0-1.171,0.955-2.127,2.127-2.127h4.861c1.17,0,2.125,0.956,2.125,2.127v4.861
					C586.184,384.938,585.229,385.893,584.059,385.893z"/>
				<path style="fill-rule:evenodd;clip-rule:evenodd;fill:#9C9DCC;" d="M567.198,385.893h-4.86c-1.17,0-2.127-0.955-2.127-2.125
					v-4.861c0-1.171,0.957-2.127,2.127-2.127h4.86c1.169,0,2.128,0.956,2.128,2.127v4.861
					C569.326,384.938,568.367,385.893,567.198,385.893z"/>
				<path style="fill-rule:evenodd;clip-rule:evenodd;fill:#9C9DCC;" d="M550.339,385.893h-4.859c-1.171,0-2.127-0.955-2.127-2.125
					v-4.861c0-1.171,0.956-2.127,2.127-2.127h4.859c1.171,0,2.125,0.956,2.125,2.127v4.861
					C552.464,384.938,551.51,385.893,550.339,385.893z"/>
				<path style="fill-rule:evenodd;clip-rule:evenodd;fill:#9C9DCC;" d="M533.482,385.893h-4.861c-1.171,0-2.127-0.955-2.127-2.125
					v-4.861c0-1.171,0.956-2.127,2.127-2.127h4.861c1.169,0,2.125,0.956,2.125,2.127v4.861
					C535.607,384.938,534.65,385.893,533.482,385.893z"/>
				<path style="fill-rule:evenodd;clip-rule:evenodd;fill:#9C9DCC;" d="M583.446,367.513h-4.86c-1.17,0-2.125-0.955-2.125-2.126
					v-4.861c0-1.169,0.955-2.126,2.125-2.126h4.86c1.17,0,2.127,0.957,2.127,2.126v4.861
					C585.573,366.558,584.616,367.513,583.446,367.513z"/>
				<path style="fill-rule:evenodd;clip-rule:evenodd;fill:#9C9DCC;" d="M566.589,367.513h-4.861c-1.17,0-2.127-0.955-2.127-2.126
					v-4.861c0-1.169,0.957-2.126,2.127-2.126h4.861c1.169,0,2.125,0.957,2.125,2.126v4.861
					C568.714,366.558,567.758,367.513,566.589,367.513z"/>
				<path style="fill-rule:evenodd;clip-rule:evenodd;fill:#9C9DCC;" d="M549.73,367.513h-4.86c-1.172,0-2.128-0.955-2.128-2.126
					v-4.861c0-1.169,0.956-2.126,2.128-2.126h4.86c1.17,0,2.124,0.957,2.124,2.126v4.861
					C551.854,366.558,550.9,367.513,549.73,367.513z"/>
				<path style="fill-rule:evenodd;clip-rule:evenodd;fill:#9C9DCC;" d="M567.198,405.637h-4.86c-1.17,0-2.126-0.955-2.126-2.125
					v-4.86c0-1.171,0.956-2.128,2.126-2.128h4.86c1.172,0,2.128,0.957,2.128,2.128v4.86
					C569.326,404.682,568.37,405.637,567.198,405.637z"/>
				<path style="fill-rule:evenodd;clip-rule:evenodd;fill:#9C9DCC;" d="M550.339,405.637h-4.859c-1.171,0-2.127-0.955-2.127-2.125
					v-4.86c0-1.171,0.956-2.128,2.127-2.128h4.859c1.171,0,2.125,0.957,2.125,2.128v4.86
					C552.464,404.682,551.51,405.637,550.339,405.637z"/>
			</g>
			<g>
				<path style="fill-rule:evenodd;clip-rule:evenodd;fill:#FFFFFF;" d="M516.607,212.373c0-0.729,0.592-1.32,1.322-1.32
					c0.729,0,1.321,0.591,1.321,1.32v5.944c0,0.73-0.592,1.322-1.321,1.322c-0.73,0-1.322-0.592-1.322-1.322V212.373
					L516.607,212.373z M507.601,217.199c-0.516-0.516-0.516-1.353,0-1.869c0.515-0.516,1.353-0.516,1.868,0l4.203,4.203
					c0.516,0.516,0.516,1.353,0,1.869c-0.516,0.517-1.352,0.517-1.869,0L507.601,217.199L507.601,217.199z M504.644,226.98
					c-0.73,0-1.322-0.593-1.322-1.321c0-0.731,0.592-1.322,1.322-1.322h5.944c0.73,0,1.32,0.591,1.32,1.322
					c0,0.728-0.591,1.321-1.32,1.321H504.644L504.644,226.98z M509.469,235.988c-0.516,0.516-1.353,0.516-1.868,0
					c-0.516-0.516-0.516-1.352,0-1.87l4.202-4.202c0.518-0.516,1.354-0.516,1.869,0c0.516,0.516,0.516,1.352,0,1.868
					L509.469,235.988L509.469,235.988z M519.251,238.945c0,0.729-0.592,1.322-1.321,1.322c-0.73,0-1.322-0.593-1.322-1.322V233
					c0-0.729,0.592-1.32,1.322-1.32c0.729,0,1.321,0.591,1.321,1.32V238.945L519.251,238.945z M528.258,234.118
					c0.516,0.518,0.516,1.354,0,1.87c-0.516,0.516-1.353,0.516-1.869,0l-4.203-4.204c-0.517-0.516-0.517-1.352,0-1.868
					c0.517-0.516,1.353-0.516,1.868,0L528.258,234.118L528.258,234.118z M531.216,224.337c0.729,0,1.32,0.591,1.32,1.322
					c0,0.728-0.592,1.321-1.32,1.321h-5.944c-0.731,0-1.322-0.593-1.322-1.321c0-0.731,0.591-1.322,1.322-1.322H531.216
					L531.216,224.337z M526.389,215.33c0.517-0.516,1.354-0.516,1.869,0c0.516,0.516,0.516,1.353,0,1.869l-4.204,4.203
					c-0.515,0.517-1.352,0.517-1.868,0c-0.517-0.516-0.517-1.353,0-1.869L526.389,215.33z"/>
				<path style="fill-rule:evenodd;clip-rule:evenodd;fill:#FFFFFF;" d="M525.903,158.965v2.143h2.143
					c0.895,0,1.627,0.733,1.627,1.628l0,0c0,0.895-0.732,1.627-1.627,1.627h-2.143v2.144c0,0.896-0.732,1.627-1.627,1.627l0,0
					c-0.896,0-1.627-0.731-1.627-1.627v-2.144h-2.145c-0.894,0-1.627-0.732-1.627-1.627l0,0c0-0.895,0.732-1.628,1.627-1.628h2.145
					v-2.143c0-0.895,0.731-1.627,1.627-1.627l0,0C525.171,157.338,525.903,158.071,525.903,158.965z"/>
				<path style="fill-rule:evenodd;clip-rule:evenodd;fill:#FFFFFF;" d="M332.342,96.117v2.143h2.143
					c0.895,0,1.628,0.732,1.628,1.627l0,0c0,0.897-0.733,1.628-1.628,1.628h-2.143v2.144c0,0.896-0.732,1.628-1.628,1.628l0,0
					c-0.895,0-1.626-0.731-1.626-1.628v-2.144h-2.144c-0.895,0-1.626-0.731-1.626-1.628l0,0c0-0.895,0.731-1.627,1.626-1.627h2.144
					v-2.143c0-0.895,0.732-1.628,1.626-1.628l0,0C331.61,94.489,332.342,95.223,332.342,96.117z"/>
				<path style="fill-rule:evenodd;clip-rule:evenodd;fill:#FFFFFF;" d="M172.042,156.318v2.143h2.144
					c0.896,0,1.627,0.732,1.627,1.627l0,0c0,0.895-0.732,1.628-1.627,1.628h-2.144v2.144c0,0.895-0.732,1.627-1.627,1.627l0,0
					c-0.896,0-1.627-0.732-1.627-1.627v-2.144h-2.144c-0.895,0-1.627-0.733-1.627-1.628l0,0c0-0.895,0.732-1.627,1.627-1.627h2.144
					v-2.143c0-0.895,0.731-1.628,1.627-1.628l0,0C171.311,154.69,172.042,155.423,172.042,156.318z"/>
				<path style="fill-rule:evenodd;clip-rule:evenodd;fill:#FFFFFF;" d="M197.366,117.757c0-0.729,0.591-1.32,1.32-1.32
					c0.729,0,1.322,0.591,1.322,1.32v5.944c0,0.73-0.593,1.322-1.322,1.322c-0.729,0-1.32-0.592-1.32-1.322V117.757L197.366,117.757
					z M188.358,122.585c-0.516-0.518-0.516-1.354,0-1.87c0.516-0.516,1.353-0.516,1.87,0l4.203,4.204
					c0.516,0.516,0.516,1.352,0,1.867c-0.515,0.517-1.354,0.517-1.869,0L188.358,122.585L188.358,122.585z M185.401,132.365
					c-0.729,0-1.321-0.592-1.321-1.321c0-0.731,0.591-1.322,1.321-1.322h5.946c0.729,0,1.32,0.591,1.32,1.322
					c0,0.729-0.591,1.321-1.32,1.321H185.401L185.401,132.365z M190.228,141.372c-0.517,0.516-1.354,0.516-1.87,0
					c-0.516-0.516-0.516-1.352,0-1.869l4.204-4.203c0.515-0.517,1.354-0.517,1.869,0c0.516,0.516,0.516,1.353,0,1.87
					L190.228,141.372L190.228,141.372z M200.009,144.33c0,0.729-0.593,1.32-1.322,1.32c-0.729,0-1.32-0.591-1.32-1.32v-5.944
					c0-0.73,0.591-1.322,1.32-1.322c0.729,0,1.322,0.592,1.322,1.322V144.33L200.009,144.33z M209.016,139.503
					c0.517,0.517,0.517,1.353,0,1.869c-0.516,0.516-1.354,0.516-1.868,0l-4.204-4.202c-0.516-0.517-0.516-1.354,0-1.87
					c0.516-0.517,1.352-0.517,1.869,0L209.016,139.503L209.016,139.503z M211.974,129.722c0.729,0,1.32,0.591,1.32,1.322
					c0,0.729-0.591,1.321-1.32,1.321h-5.945c-0.73,0-1.321-0.592-1.321-1.321c0-0.731,0.592-1.322,1.321-1.322H211.974
					L211.974,129.722z M207.148,120.715c0.515-0.516,1.353-0.516,1.868,0c0.517,0.516,0.517,1.352,0,1.87l-4.203,4.202
					c-0.517,0.517-1.354,0.517-1.869,0c-0.516-0.516-0.516-1.352,0-1.867L207.148,120.715z"/>
				<path style="fill-rule:evenodd;clip-rule:evenodd;fill:#FFFFFF;" d="M303.343,246.504c0-0.729,0.592-1.321,1.322-1.321
					c0.729,0,1.322,0.592,1.322,1.321v5.945c0,0.73-0.593,1.321-1.322,1.321c-0.729,0-1.322-0.591-1.322-1.321V246.504
					L303.343,246.504z M294.335,251.331c-0.515-0.517-0.515-1.354,0-1.87c0.516-0.516,1.354-0.516,1.87,0l4.204,4.205
					c0.515,0.516,0.515,1.352,0,1.868c-0.517,0.516-1.354,0.516-1.869,0L294.335,251.331L294.335,251.331z M291.379,261.112
					c-0.729,0-1.321-0.592-1.321-1.321c0-0.729,0.592-1.322,1.321-1.322h5.944c0.729,0,1.322,0.594,1.322,1.322
					c0,0.729-0.593,1.321-1.322,1.321H291.379L291.379,261.112z M296.205,270.119c-0.516,0.518-1.353,0.518-1.87,0
					c-0.515-0.516-0.515-1.352,0-1.867l4.204-4.204c0.516-0.516,1.352-0.516,1.869,0c0.515,0.516,0.515,1.354,0,1.869
					L296.205,270.119L296.205,270.119z M305.986,273.076c0,0.73-0.593,1.321-1.322,1.321c-0.729,0-1.322-0.591-1.322-1.321v-5.943
					c0-0.73,0.592-1.322,1.322-1.322c0.729,0,1.322,0.592,1.322,1.322V273.076L305.986,273.076z M314.994,268.251
					c0.514,0.516,0.514,1.352,0,1.867c-0.518,0.518-1.354,0.518-1.871,0l-4.202-4.202c-0.517-0.516-0.517-1.354,0-1.869
					s1.354-0.516,1.868,0L314.994,268.251L314.994,268.251z M317.95,258.468c0.729,0,1.322,0.594,1.322,1.322
					c0,0.729-0.593,1.321-1.322,1.321h-5.944c-0.729,0-1.322-0.592-1.322-1.321c0-0.729,0.593-1.322,1.322-1.322H317.95
					L317.95,258.468z M313.123,249.461c0.518-0.516,1.353-0.516,1.871,0c0.514,0.516,0.514,1.353,0,1.87l-4.206,4.203
					c-0.514,0.516-1.351,0.516-1.868,0c-0.517-0.517-0.517-1.353,0-1.868L313.123,249.461z"/>
				<path style="fill-rule:evenodd;clip-rule:evenodd;fill:#FFFFFF;" d="M583.575,41.201c0-0.729,0.592-1.322,1.321-1.322
					s1.321,0.593,1.321,1.322v5.943c0,0.729-0.592,1.321-1.321,1.321s-1.321-0.592-1.321-1.321V41.201L583.575,41.201z
					 M574.567,46.027c-0.516-0.516-0.516-1.354,0-1.87c0.516-0.516,1.354-0.516,1.868,0l4.204,4.204
					c0.516,0.516,0.516,1.352,0,1.869c-0.516,0.517-1.353,0.517-1.87,0L574.567,46.027L574.567,46.027z M571.609,55.809
					c-0.729,0-1.32-0.593-1.32-1.322c0-0.73,0.592-1.321,1.32-1.321h5.946c0.73,0,1.32,0.591,1.32,1.321
					c0,0.729-0.591,1.322-1.32,1.322H571.609L571.609,55.809z M576.436,64.815c-0.515,0.517-1.353,0.517-1.868,0
					c-0.516-0.515-0.516-1.352,0-1.869l4.202-4.203c0.518-0.517,1.354-0.517,1.87,0c0.516,0.516,0.516,1.353,0,1.869L576.436,64.815
					L576.436,64.815z M586.218,67.772c0,0.729-0.592,1.323-1.321,1.323s-1.321-0.594-1.321-1.323v-5.944
					c0-0.729,0.592-1.321,1.321-1.321s1.321,0.592,1.321,1.321V67.772L586.218,67.772z M595.226,62.946
					c0.516,0.517,0.516,1.354,0,1.869c-0.517,0.517-1.352,0.517-1.869,0l-4.203-4.203c-0.518-0.516-0.518-1.353,0-1.869
					c0.516-0.517,1.354-0.517,1.868,0L595.226,62.946L595.226,62.946z M598.183,53.166c0.729,0,1.32,0.591,1.32,1.321
					c0,0.729-0.591,1.322-1.32,1.322h-5.944c-0.73,0-1.321-0.593-1.321-1.322c0-0.73,0.591-1.321,1.321-1.321H598.183
					L598.183,53.166z M593.357,44.157c0.517-0.516,1.352-0.516,1.869,0c0.516,0.516,0.516,1.354,0,1.87l-4.204,4.203
					c-0.515,0.517-1.352,0.517-1.868,0c-0.518-0.517-0.518-1.353,0-1.869L593.357,44.157z"/>
				<g>
					<path style="fill-rule:evenodd;clip-rule:evenodd;fill:#9C9DCC;" d="M158.607,184.178h-4.861c-1.169,0-2.125-0.955-2.125-2.126
						v-4.861c0-1.169,0.956-2.126,2.125-2.126h4.861c1.17,0,2.126,0.956,2.126,2.126v4.861
						C160.732,183.223,159.776,184.178,158.607,184.178z"/>
					<path style="fill-rule:evenodd;clip-rule:evenodd;fill:#9C9DCC;" d="M141.749,184.178h-4.861c-1.17,0-2.127-0.955-2.127-2.126
						v-4.861c0-1.169,0.956-2.126,2.127-2.126h4.861c1.169,0,2.124,0.956,2.124,2.126v4.861
						C143.873,183.223,142.918,184.178,141.749,184.178z"/>
					<path style="fill-rule:evenodd;clip-rule:evenodd;fill:#9C9DCC;" d="M124.89,184.178h-4.861c-1.171,0-2.127-0.955-2.127-2.126
						v-4.861c0-1.169,0.956-2.126,2.127-2.126h4.861c1.169,0,2.126,0.956,2.126,2.126v4.861
						C127.016,183.223,126.06,184.178,124.89,184.178z"/>
					<path style="fill-rule:evenodd;clip-rule:evenodd;fill:#9C9DCC;" d="M108.031,184.178h-4.861c-1.17,0-2.127-0.955-2.127-2.126
						v-4.861c0-1.169,0.957-2.126,2.127-2.126h4.861c1.168,0,2.125,0.956,2.125,2.126v4.861
						C110.157,183.223,109.199,184.178,108.031,184.178z"/>
					<path style="fill-rule:evenodd;clip-rule:evenodd;fill:#9C9DCC;" d="M91.171,184.178H86.31c-1.169,0-2.125-0.955-2.125-2.126
						v-4.861c0-1.169,0.956-2.126,2.125-2.126h4.861c1.17,0,2.126,0.956,2.126,2.126v4.861
						C93.297,183.223,92.341,184.178,91.171,184.178z"/>
					<path style="fill-rule:evenodd;clip-rule:evenodd;fill:#9C9DCC;" d="M74.312,184.178h-4.86c-1.17,0-2.127-0.955-2.127-2.126
						v-4.861c0-1.169,0.957-2.126,2.127-2.126h4.86c1.171,0,2.125,0.956,2.125,2.126v4.861
						C76.438,183.223,75.483,184.178,74.312,184.178z"/>
					<path style="fill-rule:evenodd;clip-rule:evenodd;fill:#9C9DCC;" d="M124.278,165.797h-4.861c-1.17,0-2.124-0.957-2.124-2.125
						v-4.861c0-1.171,0.955-2.126,2.124-2.126h4.861c1.171,0,2.127,0.955,2.127,2.126v4.861
						C126.405,164.841,125.449,165.797,124.278,165.797z"/>
					<path style="fill-rule:evenodd;clip-rule:evenodd;fill:#9C9DCC;" d="M107.42,165.797h-4.861c-1.169,0-2.126-0.957-2.126-2.125
						v-4.861c0-1.171,0.957-2.126,2.126-2.126h4.861c1.169,0,2.126,0.955,2.126,2.126v4.861
						C109.546,164.841,108.589,165.797,107.42,165.797z"/>
					<path style="fill-rule:evenodd;clip-rule:evenodd;fill:#9C9DCC;" d="M90.563,165.797h-4.862c-1.17,0-2.126-0.957-2.126-2.125
						v-4.861c0-1.171,0.956-2.126,2.126-2.126h4.862c1.169,0,2.125,0.955,2.125,2.126v4.861
						C92.687,164.841,91.731,165.797,90.563,165.797z"/>
					<path style="fill-rule:evenodd;clip-rule:evenodd;fill:#9C9DCC;" d="M108.031,203.922h-4.861c-1.17,0-2.125-0.957-2.125-2.126
						v-4.862c0-1.169,0.955-2.125,2.125-2.125h4.861c1.171,0,2.125,0.956,2.125,2.125v4.862
						C110.157,202.966,109.202,203.922,108.031,203.922z"/>
					<path style="fill-rule:evenodd;clip-rule:evenodd;fill:#9C9DCC;" d="M91.171,203.922H86.31c-1.169,0-2.125-0.957-2.125-2.126
						v-4.862c0-1.169,0.956-2.125,2.125-2.125h4.861c1.17,0,2.126,0.956,2.126,2.125v4.862
						C93.297,202.966,92.341,203.922,91.171,203.922z"/>
				</g>
				<path style="fill-rule:evenodd;clip-rule:evenodd;fill:#9C9DCC;" d="M573.911,206.202L573.911,206.202L573.911,206.202z
					 M568.165,184.329c-1.999-2.001-4.761-3.237-7.814-3.237c-3.051,0-5.813,1.236-7.813,3.237
					c-2.001,1.999-3.236,4.762-3.236,7.814c0,3.051,1.235,5.815,3.236,7.813c2,2.001,4.762,3.238,7.813,3.238
					c3.053,0,5.815-1.237,7.814-3.238c2-1.998,3.236-4.762,3.236-7.813C571.401,189.09,570.165,186.328,568.165,184.329
					L568.165,184.329z M565.778,173.376c1.532,0.441,2.984,1.064,4.33,1.842c1.383,0.8,2.659,1.764,3.801,2.864
					c0.225,0.215,0.556,0.247,0.81,0.098l5.136-2.963l0.028-0.018c0.294-0.16,0.629-0.189,0.936-0.107
					c0.315,0.085,0.599,0.288,0.773,0.59l0.021,0.035l3.613,6.258c0.174,0.302,0.209,0.65,0.124,0.967
					c-0.085,0.315-0.289,0.599-0.592,0.773l-0.035,0.021l-5.093,2.941c-0.268,0.154-0.39,0.462-0.319,0.747l-0.001,0.002
					c0.188,0.757,0.331,1.537,0.428,2.335c0.096,0.776,0.145,1.572,0.145,2.381c0,0.808-0.049,1.603-0.145,2.38
					c-0.098,0.798-0.241,1.577-0.429,2.335c-0.077,0.315,0.079,0.631,0.358,0.77l5.093,2.939l-0.002,0.001
					c0.303,0.174,0.507,0.458,0.592,0.774c0.085,0.317,0.05,0.664-0.124,0.966l-3.634,6.294l-0.001-0.001
					c-0.175,0.302-0.458,0.506-0.773,0.59c-0.316,0.084-0.663,0.051-0.964-0.124l-0.038-0.021l-5.1-2.944
					c-0.267-0.154-0.596-0.105-0.808,0.097c-1.141,1.102-2.418,2.066-3.799,2.865c-1.356,0.785-2.818,1.41-4.36,1.852
					c-0.298,0.085-0.492,0.357-0.492,0.652v5.923c0,0.349-0.145,0.667-0.375,0.897c-0.229,0.232-0.547,0.374-0.895,0.374h-7.269
					c-0.35,0-0.668-0.142-0.898-0.374c-0.23-0.23-0.374-0.548-0.374-0.897v-5.923c0-0.32-0.223-0.59-0.521-0.661
					c-1.531-0.442-2.983-1.065-4.331-1.844c-1.383-0.799-2.658-1.763-3.8-2.865c-0.233-0.223-0.585-0.249-0.844-0.077l-5.101,2.945
					c-0.3,0.173-0.648,0.207-0.966,0.123c-0.314-0.084-0.597-0.289-0.771-0.59l-0.023-0.036l-3.613-6.259v-0.001
					c-0.173-0.301-0.208-0.648-0.122-0.963c0.083-0.317,0.288-0.6,0.587-0.774l5.131-2.96c0.269-0.155,0.39-0.463,0.319-0.75h0.002
					c-0.188-0.757-0.331-1.536-0.429-2.335c-0.096-0.777-0.145-1.572-0.145-2.38c0-0.809,0.049-1.605,0.145-2.381
					c0.098-0.797,0.241-1.578,0.429-2.335c0.077-0.315-0.079-0.633-0.358-0.771l-5.094-2.94c-0.299-0.173-0.504-0.458-0.587-0.773
					c-0.086-0.316-0.051-0.664,0.122-0.965l0.021-0.038l3.614-6.257l0,0c0.176-0.302,0.458-0.506,0.772-0.59
					c0.317-0.086,0.665-0.05,0.966,0.123v0.001l5.135,2.963c0.273,0.16,0.612,0.105,0.824-0.112c1.139-1.095,2.409-2.054,3.785-2.85
					c1.356-0.783,2.817-1.41,4.358-1.851c0.3-0.085,0.494-0.357,0.494-0.654v-5.923c0-0.349,0.144-0.665,0.374-0.896
					c0.23-0.23,0.549-0.374,0.898-0.374h7.269c0.349,0,0.666,0.144,0.895,0.374c0.23,0.231,0.375,0.547,0.375,0.896v5.923
					C565.258,173.036,565.479,173.303,565.778,173.376z"/>
			</g>
		</g>
		<g>
			<path style="fill-rule:evenodd;clip-rule:evenodd;fill:#FFFFFF;" d="M547.965,61.688h-67.112
				c-5.599,0-10.183,4.583-10.183,10.183v41.988v3.105v26.726c0,0.471,0.27,0.871,0.702,1.052c0.435,0.179,0.908,0.085,1.239-0.248
				l17.35-17.35h58.004c5.601,0,10.18-4.58,10.18-10.18V71.87C558.145,66.27,553.563,61.688,547.965,61.688z"/>
			<path style="fill-rule:evenodd;clip-rule:evenodd;fill:#9C9DCC;" d="M552.46,67.07h-67.111c-2.555,0-4.879,1.047-6.564,2.731
				c-1.686,1.686-2.733,4.009-2.733,6.565v71.821c0,0.059,0.014,0.108,0.036,0.143c0.03,0.039,0.07,0.07,0.12,0.091
				c0.05,0.021,0.102,0.027,0.145,0.017l0.017-0.002c0.039-0.011,0.078-0.035,0.112-0.067l17.349-17.353
				c0.174-0.173,0.398-0.26,0.626-0.26h58.003c2.556,0,4.88-1.046,6.565-2.732c1.686-1.685,2.732-4.009,2.732-6.564V76.365
				c0-2.555-1.048-4.88-2.732-6.565C557.34,68.117,555.016,67.07,552.46,67.07L552.46,67.07z M485.349,65.299h67.111
				c3.044,0,5.812,1.245,7.816,3.25c2.006,2.005,3.25,4.772,3.25,7.816v45.094c0,3.045-1.244,5.812-3.25,7.816
				c-2.005,2.005-4.772,3.25-7.816,3.25h-57.636l-17.09,17.09c-0.284,0.279-0.625,0.464-0.988,0.547l-0.046,0.01
				c-0.383,0.077-0.786,0.039-1.169-0.119c-0.384-0.16-0.695-0.418-0.912-0.743c-0.216-0.328-0.336-0.715-0.336-1.124V76.365
				c0-3.044,1.243-5.812,3.25-7.816C479.538,66.544,482.305,65.299,485.349,65.299z"/>
			<path style="fill-rule:evenodd;clip-rule:evenodd;fill:#DE9396;" d="M496.883,80.865L496.883,80.865
				c4.514-4.514,11.898-4.514,16.411,0l1.113,1.114l1.115-1.114c4.514-4.514,11.898-4.514,16.412,0l0,0
				c4.513,4.514,4.513,11.897,0,16.411l-1.114,1.115l-16.413,16.411l-16.41-16.411l-1.114-1.115
				C492.369,92.763,492.369,85.379,496.883,80.865z"/>
		</g>
		<path style="fill-rule:evenodd;clip-rule:evenodd;fill:#100843;" d="M692.346,434.304H57.656c-4.163,0-7.57,3.407-7.57,7.57v0.001
			c0,4.16,3.406,7.569,7.57,7.569h25.54c2.313,0,4.207,1.893,4.207,4.205l0,0c0,2.312-1.893,4.204-4.207,4.204h-9.344
			c-2.889,0-5.258,2.366-5.258,5.258v0.001c0,2.89,2.366,5.256,5.258,5.256h601.462c2.892,0,5.256-2.365,5.256-5.256v-0.001
			c0-2.892-2.365-5.258-5.256-5.258h-7.358c-2.315,0-4.206-1.893-4.206-4.204l0,0c0-2.313,1.891-4.205,4.206-4.205h24.391
			c4.164,0,7.568-3.407,7.568-7.569v-0.001C699.914,437.711,696.506,434.304,692.346,434.304L692.346,434.304z M688.402,468.369
			c-2.775,0-5.046-2.271-5.046-5.047v-0.421c0-2.775,2.271-5.047,5.046-5.047l0,0c2.776,0,5.047,2.271,5.047,5.047v0.421
			C693.449,466.098,691.179,468.369,688.402,468.369L688.402,468.369z"/>
		<g>
			<path style="fill-rule:evenodd;clip-rule:evenodd;fill:#1D135C;" d="M185.726,300.463h158.438c2.281,0,4.362,1.869,4.621,4.15
				l11.27,99.11c0.26,2.282-1.396,4.15-3.678,4.15H197.938c-2.281,0-4.361-1.868-4.621-4.15l-11.27-99.11
				C181.789,302.332,183.444,300.463,185.726,300.463z"/>
			<path style="fill-rule:evenodd;clip-rule:evenodd;fill:#100843;" d="M172.235,300.463h165.702c2.282,0,4.362,1.869,4.622,4.15
				l11.268,99.11c0.26,2.282-1.396,4.15-3.677,4.15H184.447c-2.282,0-4.362-1.868-4.622-4.15l-11.268-99.11
				C168.298,302.332,169.952,300.463,172.235,300.463z"/>
			<path style="fill-rule:evenodd;clip-rule:evenodd;fill:#100843;" d="M248.705,361.46h14.791h2.225h14.79
				c2.061,0,3.326,1.685,2.812,3.746l-16.302,65.354c-0.515,2.06-2.619,3.745-4.68,3.745h-7.143h-2.223h-7.143
				c-2.062,0-3.679-1.685-3.599-3.745l2.581-65.354C244.893,363.145,246.644,361.46,248.705,361.46z"/>
			<path style="fill-rule:evenodd;clip-rule:evenodd;fill:#1D135C;" d="M243.905,361.46h14.791h2.225h14.789
				c2.061,0,3.325,1.685,2.812,3.746l-16.301,65.354c-0.515,2.06-2.62,3.745-4.681,3.745h-7.143h-2.223h-7.143
				c-2.063,0-3.679-1.685-3.599-3.745l2.581-65.354C240.092,363.145,241.844,361.46,243.905,361.46z"/>
			<path style="fill-rule:evenodd;clip-rule:evenodd;fill:#1D135C;" d="M215.715,440.421h84.295c3.364,0,6.118-2.752,6.118-6.117
				l0,0c0-3.363-2.754-6.116-6.118-6.116h-84.295c-3.365,0-6.116,2.753-6.116,6.116l0,0
				C209.599,437.669,212.35,440.421,215.715,440.421z"/>
			<path style="fill-rule:evenodd;clip-rule:evenodd;fill:#100843;" d="M290.955,440.421h32.128c3.365,0,6.117-2.752,6.117-6.117
				l0,0c0-3.363-2.752-6.116-6.117-6.116h-32.128c-3.366,0-6.117,2.753-6.117,6.116l0,0
				C284.837,437.669,287.588,440.421,290.955,440.421z"/>
		</g>
	</g>
</g>
</svg>
