<svg width="72" height="50" viewBox="0 0 72 50" fill="none" xmlns="http://www.w3.org/2000/svg">
<g id="logo" clip-path="url(#clip0_91_533)">
<path id="Vector" d="M71.9999 0.809148C70.7456 1.2029 69.557 1.68102 68.4781 2.40496C66.38 3.81121 65.1881 5.82102 64.6115 8.2364C64.2886 9.59033 64.1992 10.9679 64.2009 12.355C64.2037 15.0696 64.2144 17.7843 64.1913 20.4989C64.1739 22.5875 63.9399 24.6496 63.2351 26.6346C62.0921 29.8583 59.8646 32.0757 56.8186 33.5303C54.7306 34.5276 52.5161 35.0969 50.2419 35.4541C49.3953 35.5868 48.5409 35.6695 47.6904 35.7803C47.4592 35.8107 47.3529 35.7713 47.3563 35.4912C47.3658 29.7081 47.3264 23.9245 47.3782 18.142C47.4153 14.0397 48.6005 10.3036 51.3157 7.14402C53.4909 4.61277 56.2443 2.9444 59.3741 1.87227C62.6107 0.763586 65.9469 0.376586 69.3562 0.549273C70.1707 0.590523 70.9822 0.662898 71.7907 0.766398C71.861 0.775398 71.9302 0.794523 71.9999 0.809148Z" fill="url(#paint0_linear_91_533)"/>
<path id="Vector_2" d="M0 0.809148C1.25437 1.2029 2.44294 1.68102 3.52181 2.40496C5.61994 3.81121 6.81188 5.82102 7.38844 8.2364C7.71131 9.59033 7.80075 10.9679 7.79906 12.355C7.79625 15.0696 7.78556 17.7843 7.80863 20.4989C7.82606 22.5875 8.06006 24.6496 8.76488 26.6346C9.90788 29.8583 12.1354 32.0757 15.1813 33.5303C17.2693 34.5276 19.4839 35.0969 21.7581 35.4541C22.6018 35.5868 23.4591 35.6695 24.3096 35.7803C24.5408 35.8107 24.6471 35.7713 24.6437 35.4912C24.6341 29.7081 24.6735 23.9245 24.6218 18.142C24.5846 14.0397 23.3994 10.3036 20.6843 7.14402C18.5091 4.61277 15.7556 2.9444 12.6259 1.87227C9.38925 0.763586 6.05306 0.376586 2.64375 0.549273C1.82925 0.590523 1.01775 0.662898 0.20925 0.766398C0.138938 0.775398 0.06975 0.794523 0 0.809148Z" fill="url(#paint1_linear_91_533)"/>
<path id="Vector_3" d="M44.4212 24.0629C44.4212 20.7576 44.4026 17.4524 44.4285 14.1471C44.442 12.4416 44.537 10.7361 45.0039 9.07957C45.257 8.17957 45.6227 7.33582 46.4237 6.77332C46.5643 6.67375 46.4895 6.60119 46.4237 6.51344C46.0788 6.03324 45.6613 5.60966 45.1862 5.25794C42.615 3.38482 39.8047 2.93763 36.7695 3.86969C32.7037 5.119 30.123 7.8775 28.7257 11.8212C27.8769 14.2129 27.5726 16.6992 27.5698 19.2214C27.5585 29.2013 27.557 39.1812 27.5653 49.1611C27.5653 49.3236 27.509 49.4986 27.8015 49.4913C30.9425 49.435 33.9969 48.9687 36.8499 47.5743C40.8324 45.6286 43.1634 42.4184 44.0359 38.1063C44.307 36.7658 44.4015 35.4063 44.4026 34.0439C44.4026 30.7173 44.4026 27.3906 44.4026 24.064L44.4212 24.0629Z" fill="#263248"/>
</g>
<defs>
<linearGradient id="paint0_linear_91_533" x1="64.2982" y1="5.5904" x2="52.1173" y2="25.3122" gradientUnits="userSpaceOnUse">
<stop stop-color="#EF0000"/>
<stop offset="0.64" stop-color="#FA3D00"/>
<stop offset="1" stop-color="#FF5C00"/>
</linearGradient>
<linearGradient id="paint1_linear_91_533" x1="8.53369" y1="3.68915" x2="20.1347" y2="27.4705" gradientUnits="userSpaceOnUse">
<stop stop-color="#EF0000"/>
<stop offset="0.64" stop-color="#FA3D00"/>
<stop offset="1" stop-color="#FF5C00"/>
</linearGradient>
<clipPath id="clip0_91_533">
<rect width="72" height="48.9803" fill="white" transform="translate(0 0.509888)"/>
</clipPath>
</defs>
</svg>
