<svg version="1.1" id="Layer_1" xmlns="http://www.w3.org/2000/svg" xmlns:xlink="http://www.w3.org/1999/xlink" x="0px" y="0px"
	 width="100%" viewBox="0 0 900 900" enable-background="new 0 0 900 900" xml:space="preserve">
<path fill="#F0DB4F" opacity="1.000000" stroke="none" 
	d="
M1.000000,900.000000 
	C1.000000,600.970642 1.000000,301.941254 1.457952,2.457088 
	C298.731262,2.002470 595.546570,2.002489 892.361938,2.005846 
	C894.861206,2.005874 897.360535,2.050955 899.911316,2.520402 
	C899.974243,3.798983 899.995544,4.632162 899.995605,5.465341 
	C899.997314,302.128387 899.997925,598.791443 899.992615,895.454468 
	C899.992554,896.952576 899.909302,898.450623 899.423035,899.966980 
	C599.654053,899.990112 300.327026,899.995056 1.000000,900.000000 
M568.157837,480.697815 
	C565.993225,489.916199 562.715210,499.031952 561.854126,508.370514 
	C557.838623,551.922363 570.260986,589.262024 606.074158,616.445862 
	C616.891785,624.656921 628.649780,631.971924 640.826782,637.972900 
	C661.879883,648.348083 683.647522,657.265198 705.014587,667.014893 
	C715.643188,671.864624 726.000366,677.305237 734.268311,685.857544 
	C749.794312,701.917664 748.494385,727.805237 730.978516,741.646179 
	C725.866455,745.685730 719.686157,748.960144 713.470276,750.915466 
	C685.559509,759.695374 643.322571,757.260376 614.435303,718.230774 
	C610.990234,713.576111 607.722412,708.790344 604.175049,703.786987 
	C581.277710,717.051636 558.590271,730.194702 535.705688,743.451965 
	C548.596313,768.496033 565.866516,788.914368 589.508118,802.840210 
	C644.027710,834.954285 701.439636,838.129150 760.165588,816.295166 
	C786.375549,806.550415 806.213257,788.500305 818.525635,762.940125 
	C828.127014,743.007996 830.324951,721.790405 828.917542,700.030090 
	C826.782166,667.013550 813.226318,639.829407 787.401123,618.884949 
	C773.066040,607.259094 757.296143,597.948669 740.647034,590.193726 
	C719.207825,580.207764 697.332886,571.139893 676.064636,560.813416 
	C667.967529,556.882019 659.978088,551.574768 653.765259,545.133606 
	C635.369690,526.061890 643.473083,493.600494 668.649353,485.689941 
	C688.788696,479.362000 707.749634,482.734833 723.237610,498.018555 
	C728.392822,503.105743 732.247681,509.512817 736.676453,515.332153 
	C737.537415,516.463501 738.302917,517.667480 739.193665,518.955383 
	C761.158997,504.840820 782.704041,490.996399 804.575500,476.942200 
	C791.773804,454.481720 776.007751,435.382599 752.879211,424.273315 
	C711.761536,404.523285 669.407654,403.995544 627.283203,420.601685 
	C599.363098,431.608215 579.640503,451.844910 568.157837,480.697815 
M272.554932,731.090271 
	C260.896454,738.153870 249.237991,745.217407 237.579269,752.281189 
	C237.874100,753.335327 237.955933,754.010010 238.239136,754.585693 
	C251.204163,780.941467 269.945312,801.839050 296.516235,814.946228 
	C328.903717,830.922607 363.160217,832.915833 398.016296,826.433838 
	C431.278046,820.248291 457.925323,803.775208 474.335907,773.151917 
	C486.390533,750.657043 489.870056,726.247742 489.871338,701.122498 
	C489.876038,607.308533 489.876556,513.494629 489.864655,419.680664 
	C489.864441,417.925140 489.691223,416.169586 489.594666,414.337128 
	C461.375854,414.337128 433.756500,414.337128 405.437866,414.337128 
	C405.437866,416.642395 405.437866,418.756500 405.437836,420.870605 
	C405.437622,513.351501 405.436005,605.832397 405.438873,698.313293 
	C405.439209,709.176880 404.975464,719.971191 401.223694,730.345154 
	C398.346313,738.301331 393.646423,744.774292 386.134949,748.930847 
	C368.118683,758.900146 340.945404,755.591431 326.793518,740.615540 
	C319.898468,733.319031 314.802246,724.319031 308.929260,716.063477 
	C307.813995,714.495850 306.874725,712.803040 305.751831,711.003845 
	C294.554596,717.786560 283.871033,724.258118 272.554932,731.090271 
z"/>
<path fill="#FCF8DF" opacity="1.000000" stroke="none" 
	d="
M899.859802,2.075000 
	C897.360535,2.050955 894.861206,2.005874 892.361938,2.005846 
	C595.546570,2.002489 298.731262,2.002470 1.457952,2.001137 
	C1.166667,1.666667 1.315919,1.056198 1.502793,1.044456 
	C2.830883,0.961004 4.166667,1.000000 5.500000,1.000000 
	C304.000000,1.000000 602.500000,1.000000 900.714661,1.514253 
	C900.239502,2.044003 900.049683,2.059502 899.859802,2.075000 
z"/>
<path fill="#FAF3C8" opacity="1.000000" stroke="none" 
	d="
M899.911316,2.520402 
	C900.049683,2.059502 900.239502,2.044003 900.714661,2.014253 
	C901.000000,301.666656 901.000000,601.333313 900.476685,900.735840 
	C899.923828,900.297363 899.894409,900.123047 899.864990,899.948730 
	C899.909302,898.450623 899.992554,896.952576 899.992615,895.454468 
	C899.997925,598.791443 899.997314,302.128387 899.995605,5.465341 
	C899.995544,4.632162 899.974243,3.798983 899.911316,2.520402 
z"/>
<path fill="#F2E270" opacity="1.000000" stroke="none" 
	d="
M899.422974,899.966980 
	C899.894409,900.123047 899.923828,900.297363 899.976685,900.735840 
	C600.333313,901.000000 300.666656,901.000000 1.000000,900.500000 
	C300.327026,899.995056 599.654053,899.990112 899.422974,899.966980 
z"/>
<path fill="#333430" opacity="1.000000" stroke="none" 
	d="
M568.299255,480.337463 
	C579.640503,451.844910 599.363098,431.608215 627.283203,420.601685 
	C669.407654,403.995544 711.761536,404.523285 752.879211,424.273315 
	C776.007751,435.382599 791.773804,454.481720 804.575500,476.942200 
	C782.704041,490.996399 761.158997,504.840820 739.193665,518.955383 
	C738.302917,517.667480 737.537415,516.463501 736.676453,515.332153 
	C732.247681,509.512817 728.392822,503.105743 723.237610,498.018555 
	C707.749634,482.734833 688.788696,479.362000 668.649353,485.689941 
	C643.473083,493.600494 635.369690,526.061890 653.765259,545.133606 
	C659.978088,551.574768 667.967529,556.882019 676.064636,560.813416 
	C697.332886,571.139893 719.207825,580.207764 740.647034,590.193726 
	C757.296143,597.948669 773.066040,607.259094 787.401123,618.884949 
	C813.226318,639.829407 826.782166,667.013550 828.917542,700.030090 
	C830.324951,721.790405 828.127014,743.007996 818.525635,762.940125 
	C806.213257,788.500305 786.375549,806.550415 760.165588,816.295166 
	C701.439636,838.129150 644.027710,834.954285 589.508118,802.840210 
	C565.866516,788.914368 548.596313,768.496033 535.705688,743.451965 
	C558.590271,730.194702 581.277710,717.051636 604.175049,703.786987 
	C607.722412,708.790344 610.990234,713.576111 614.435303,718.230774 
	C643.322571,757.260376 685.559509,759.695374 713.470276,750.915466 
	C719.686157,748.960144 725.866455,745.685730 730.978516,741.646179 
	C748.494385,727.805237 749.794312,701.917664 734.268311,685.857544 
	C726.000366,677.305237 715.643188,671.864624 705.014587,667.014893 
	C683.647522,657.265198 661.879883,648.348083 640.826782,637.972900 
	C628.649780,631.971924 616.891785,624.656921 606.074158,616.445862 
	C570.260986,589.262024 557.838623,551.922363 561.854126,508.370514 
	C562.715210,499.031952 565.993225,489.916199 568.299255,480.337463 
z"/>
<path fill="#333430" opacity="1.000000" stroke="none" 
	d="
M272.871185,730.909973 
	C283.871033,724.258118 294.554596,717.786560 305.751831,711.003845 
	C306.874725,712.803040 307.813995,714.495850 308.929260,716.063477 
	C314.802246,724.319031 319.898468,733.319031 326.793518,740.615540 
	C340.945404,755.591431 368.118683,758.900146 386.134949,748.930847 
	C393.646423,744.774292 398.346313,738.301331 401.223694,730.345154 
	C404.975464,719.971191 405.439209,709.176880 405.438873,698.313293 
	C405.436005,605.832397 405.437622,513.351501 405.437836,420.870605 
	C405.437866,418.756500 405.437866,416.642395 405.437866,414.337128 
	C433.756500,414.337128 461.375854,414.337128 489.594666,414.337128 
	C489.691223,416.169586 489.864441,417.925140 489.864655,419.680664 
	C489.876556,513.494629 489.876038,607.308533 489.871338,701.122498 
	C489.870056,726.247742 486.390533,750.657043 474.335907,773.151917 
	C457.925323,803.775208 431.278046,820.248291 398.016296,826.433838 
	C363.160217,832.915833 328.903717,830.922607 296.516235,814.946228 
	C269.945312,801.839050 251.204163,780.941467 238.239136,754.585693 
	C237.955933,754.010010 237.874100,753.335327 237.579269,752.281189 
	C249.237991,745.217407 260.896454,738.153870 272.871185,730.909973 
z"/>
</svg>