<svg width="30" height="32" viewBox="0 0 30 32" fill="none" xmlns="http://www.w3.org/2000/svg">
<rect width="30" height="31.2526" fill="#222222"/>
<path d="M15 19.8263C21.0751 19.8263 26 17.9459 26 15.6263C26 13.3067 21.0751 11.4263 15 11.4263C8.92487 11.4263 4 13.3067 4 15.6263C4 17.9459 8.92487 19.8263 15 19.8263Z" stroke="#61DAFB"/>
<path d="M11.3631 17.7263C14.4006 22.9875 18.4916 26.3124 20.5004 25.1526C22.5092 23.9928 21.6753 18.7875 18.6377 13.5263C15.6001 8.26506 11.5092 4.9402 9.50039 6.1C7.49156 7.2598 8.32552 12.4651 11.3631 17.7263Z" stroke="#61DAFB"/>
<path d="M11.3631 13.5265C8.32552 18.7877 7.49156 23.993 9.50039 25.1528C11.5092 26.3126 15.6001 22.9877 18.6377 17.7265C21.6753 12.4653 22.5092 7.25999 20.5004 6.1002C18.4916 4.9404 14.4006 8.26526 11.3631 13.5265Z" stroke="#61DAFB"/>
<path d="M15.0001 18.7573C16.4768 18.7573 17.674 17.3556 17.674 15.6264C17.674 13.8973 16.4768 12.4956 15.0001 12.4956C13.5233 12.4956 12.3262 13.8973 12.3262 15.6264C12.3262 17.3556 13.5233 18.7573 15.0001 18.7573Z" fill="#61DAFB"/>
</svg>
