<svg width="12" height="14" viewBox="0 0 12 14" fill="none" xmlns="http://www.w3.org/2000/svg">
<path d="M1.8 10.9008H4.344C4.42296 10.9012 4.50124 10.8849 4.57434 10.8525C4.64745 10.8202 4.71394 10.7725 4.77 10.7123L8.922 6.20911L10.626 4.40264C10.6822 4.34223 10.7269 4.27036 10.7573 4.19117C10.7878 4.11199 10.8035 4.02705 10.8035 3.94127C10.8035 3.85549 10.7878 3.77055 10.7573 3.69137C10.7269 3.61218 10.6822 3.54031 10.626 3.47991L8.082 0.692213C8.02622 0.631307 7.95986 0.582965 7.88675 0.549975C7.81363 0.516985 7.73521 0.5 7.656 0.5C7.57679 0.5 7.49837 0.516985 7.42525 0.549975C7.35214 0.582965 7.28578 0.631307 7.23 0.692213L5.538 2.53118L1.374 7.03437C1.31839 7.09509 1.2744 7.1671 1.24454 7.24627C1.21468 7.32545 1.19954 7.41022 1.2 7.49574V10.2509C1.2 10.4233 1.26321 10.5886 1.37574 10.7104C1.48826 10.8323 1.64087 10.9008 1.8 10.9008ZM7.656 2.06981L9.354 3.90878L8.502 4.83151L6.804 2.99255L7.656 2.06981ZM2.4 7.76216L5.958 3.90878L7.656 5.74775L4.098 9.60113H2.4V7.76216ZM11.4 12.2004H0.6C0.44087 12.2004 0.288258 12.2688 0.175736 12.3907C0.0632141 12.5126 0 12.6778 0 12.8502C0 13.0225 0.0632141 13.1878 0.175736 13.3097C0.288258 13.4315 0.44087 13.5 0.6 13.5H11.4C11.5591 13.5 11.7117 13.4315 11.8243 13.3097C11.9368 13.1878 12 13.0225 12 12.8502C12 12.6778 11.9368 12.5126 11.8243 12.3907C11.7117 12.2688 11.5591 12.2004 11.4 12.2004Z" fill="#073763"/>
</svg>