<svg width="47" height="47" viewBox="0 0 47 47" fill="none" xmlns="http://www.w3.org/2000/svg">
<g id="Group 34259">
<path id="Vector" d="M20.9686 11.371C18.2002 11.371 15.9199 13.6717 15.9199 16.4197V20.5132C15.9199 21.3244 16.5794 21.9839 17.3906 21.9839H29.6181C30.4293 21.9839 31.0888 21.3244 31.0888 20.5132V16.4197C31.0888 13.6717 28.8078 11.371 26.0401 11.371H20.9686Z" fill="#7AD7EE"/>
<path id="Vector_2" d="M36.1249 36.0385C33.3564 36.0385 31.0762 38.3392 31.0762 41.0872V45.1807C31.0762 45.9918 31.7357 46.6514 32.5468 46.6514H44.7744C45.5855 46.6514 46.245 45.9918 46.245 45.1807V41.0872C46.245 38.3392 43.964 36.0385 41.1963 36.0385H36.1249Z" fill="#4CE1A1"/>
<path id="Vector_3" d="M5.80848 35.6526C3.04002 35.6526 0.759766 37.9533 0.759766 40.7013V44.7948C0.759766 45.606 1.41928 46.2655 2.23041 46.2655H14.458C15.2691 46.2655 15.9286 45.606 15.9286 44.7948V40.7013C15.9286 37.9533 13.6476 35.6526 10.8799 35.6526H5.80848Z" fill="#FB4455"/>
<path id="Vector_4" d="M20.9629 11.371H23.7601C26.5278 11.371 28.8089 13.6717 28.8089 16.4197V20.5132C28.8089 21.3244 28.1493 21.9839 27.3382 21.9839H29.6124C30.4235 21.9839 31.0831 21.3244 31.0831 20.5132V16.4197C31.0831 13.6717 28.802 11.371 26.0343 11.371H20.9629Z" fill="#4BC3EF"/>
<path id="Vector_5" d="M36.1211 36.0385H38.9184C41.686 36.0385 43.9671 38.3392 43.9671 41.0872V45.1807C43.9671 45.9918 43.3075 46.6514 42.4964 46.6514H44.7706C45.5817 46.6514 46.2413 45.9918 46.2413 45.1807V41.0872C46.2413 38.3392 43.9602 36.0385 41.1925 36.0385H36.1211Z" fill="#3EC2A3"/>
<path id="Vector_6" d="M5.80469 35.6526H8.60195C11.3696 35.6526 13.6507 37.9533 13.6507 40.7013V44.7948C13.6507 45.606 12.9911 46.2655 12.18 46.2655H14.4542C15.2653 46.2655 15.9248 45.606 15.9248 44.7948V40.7013C15.9248 37.9533 13.6438 35.6526 10.8761 35.6526H5.80469Z" fill="#DA4455"/>
<path id="Vector_7" d="M18.9664 11.7803C19.0705 12.911 19.593 13.9621 20.4315 14.7277C21.27 15.4933 22.3642 15.9183 23.4996 15.9194C25.8724 15.9194 27.8206 14.1 28.0329 11.7803H28.0268C27.4043 11.5102 26.7329 11.3708 26.0543 11.371H20.9829C20.304 11.3709 19.6324 11.5102 19.0096 11.7803H18.9664ZM34.1239 36.4477C34.228 37.5784 34.7505 38.6295 35.589 39.3951C36.4275 40.1607 37.5217 40.5857 38.6571 40.5868C41.0299 40.5868 42.9781 38.7674 43.1904 36.4477H43.1843C42.5618 36.1776 41.8904 36.0382 41.2118 36.0384H36.1404C35.4615 36.0383 34.7899 36.1776 34.1671 36.4477H34.1239ZM3.80664 36.0619C3.91072 37.1926 4.4332 38.2437 5.27172 39.0093C6.11025 39.7749 7.2044 40.1998 8.33987 40.2009C10.7126 40.2009 12.6608 38.3816 12.8731 36.0619H12.867C12.2445 35.7917 11.5731 35.6524 10.8945 35.6525H5.82309C5.14426 35.6525 4.47264 35.7918 3.84985 36.0619H3.80664Z" fill="#FFD18D"/>
<path id="Vector_8" d="M20.0348 11.4627C20.3485 11.4017 20.6673 11.371 20.9869 11.371H26.0584C26.3707 11.371 26.6777 11.4005 26.9756 11.4566C26.9219 11.5455 26.8663 11.6332 26.8088 11.7197L25.8613 13.1448C25.6026 13.5328 25.2519 13.8507 24.8406 14.0702C24.4292 14.2898 23.9699 14.4042 23.5037 14.4032C22.5561 14.4032 21.6692 13.9332 21.1461 13.1448L20.1985 11.7197C20.1421 11.6352 20.0875 11.5495 20.0348 11.4627ZM35.1923 36.1301C35.506 36.0691 35.8248 36.0384 36.1444 36.0384H41.2159C41.5282 36.0384 41.8352 36.068 42.1331 36.1241C42.0794 36.2129 42.0238 36.3006 41.9663 36.3871L41.0188 37.8123C40.7601 38.2002 40.4094 38.5181 39.9981 38.7376C39.5867 38.9572 39.1274 39.0716 38.6612 39.0707C37.7136 39.0707 36.8267 38.6006 36.3036 37.8123L35.356 36.3871C35.2996 36.3026 35.245 36.217 35.1923 36.1301ZM4.875 35.7443C5.18871 35.6833 5.50755 35.6526 5.82713 35.6525H10.8986C11.2109 35.6525 11.5179 35.6821 11.8158 35.7382C11.7621 35.8271 11.7065 35.9148 11.6491 36.0012L10.7015 37.4264C10.4428 37.8143 10.0921 38.1322 9.68079 38.3518C9.26944 38.5713 8.81018 38.6857 8.3439 38.6848C7.39632 38.6848 6.50939 38.2148 5.98632 37.4264L5.03874 36.0012C4.9823 35.9168 4.92771 35.8311 4.875 35.7443Z" fill="#FBBD80"/>
<path id="Vector_9" d="M26.8043 10.2035L25.8568 11.6287C25.5981 12.0166 25.2474 12.3345 24.8361 12.5541C24.4247 12.7736 23.9655 12.888 23.4992 12.8871C22.5516 12.8871 21.6647 12.4171 21.1416 11.6287L20.194 10.2035C19.3846 8.98884 18.9521 7.56208 18.9508 6.10241V5.30644C18.9508 2.79725 20.99 0.758057 23.4992 0.758057C26.0084 0.758057 28.0476 2.79725 28.0476 5.30644V6.10241C28.0476 7.5579 27.6155 8.98306 26.8043 10.2035ZM41.9618 34.871L41.0143 36.2961C40.7556 36.684 40.4049 37.0019 39.9936 37.2215C39.5822 37.4411 39.1229 37.5555 38.6567 37.5545C37.7091 37.5545 36.8222 37.0845 36.2991 36.2961L35.3515 34.871C34.5421 33.6563 34.1096 32.2295 34.1083 30.7698V29.9739C34.1083 27.4647 36.1475 25.4255 38.6567 25.4255C41.1659 25.4255 43.2051 27.4647 43.2051 29.9739V30.7698C43.2051 32.2253 42.773 33.6505 41.9618 34.871ZM11.6446 34.4851L10.697 35.9103C10.4383 36.2982 10.0876 36.6161 9.67629 36.8357C9.26494 37.0552 8.80568 37.1696 8.3394 37.1687C7.39182 37.1687 6.50489 36.6987 5.98182 35.9103L5.03424 34.4851C4.22483 33.2704 3.79232 31.8437 3.79102 30.384V29.588C3.79102 27.0788 5.83021 25.0396 8.3394 25.0396C10.8486 25.0396 12.8878 27.0788 12.8878 29.588V30.384C12.8878 31.8395 12.4557 33.2646 11.6446 34.4851Z" fill="#FFD18D"/>
<path id="Vector_10" d="M18.9606 5.03435C19.1872 1.20006 23.9979 -0.626871 26.7156 2.09155C27.1387 2.51316 27.4743 3.01422 27.7031 3.56595C27.9319 4.11768 28.0495 4.7092 28.049 5.3065C25.5625 5.3065 23.3869 4.82892 22.0072 4.07844C21.2264 4.50295 20.181 4.81452 18.9606 5.03435ZM34.1181 29.7018C34.3447 25.8675 39.1554 24.0405 41.8731 26.759C42.2962 27.1806 42.6318 27.6816 42.8606 28.2334C43.0894 28.7851 43.207 29.3766 43.2065 29.9739C43.1686 29.9739 43.2065 29.9739 43.2065 29.9739C40.72 29.9739 38.5444 29.4963 37.1647 28.7459C36.3839 29.1704 35.3385 29.4819 34.1181 29.7018ZM3.80078 29.3159C4.02744 25.4816 8.83812 23.6547 11.5558 26.3731C11.9789 26.7947 12.3145 27.2958 12.5433 27.8475C12.7722 28.3992 12.8897 28.9908 12.8892 29.5881C12.8513 29.5881 12.8892 29.5881 12.8892 29.5881C10.4028 29.5881 8.22712 29.1105 6.84744 28.36C6.06664 28.7845 5.02127 29.0961 3.80078 29.3159Z" fill="#E29A6C"/>
<path id="Vector_11" fill-rule="evenodd" clip-rule="evenodd" d="M22.8238 0.856607C24.1679 0.634494 25.6128 0.990026 26.7142 2.09149C27.5617 2.93597 28.041 4.08124 28.0477 5.27764V5.30645C27.5269 5.30645 27.0197 5.28522 26.5308 5.2458C26.5171 4.06033 26.0386 2.92762 25.1981 2.09149C24.5559 1.44092 23.7252 1.00889 22.8238 0.856607ZM37.9813 25.524C39.3254 25.3019 40.7703 25.6574 41.8717 26.7589C42.7192 27.6034 43.1985 28.7487 43.2052 29.9451V29.9739C42.6844 29.9739 42.1772 29.9526 41.6883 29.9132C41.6746 28.7278 41.1961 27.595 40.3556 26.7589C39.7134 26.1083 38.8827 25.6763 37.9813 25.524ZM7.66406 25.1382C9.00811 24.9161 10.453 25.2716 11.5544 26.3731C12.402 27.2175 12.8813 28.3628 12.8879 29.5592V29.588C12.3671 29.588 11.8599 29.5668 11.371 29.5274C11.3574 28.3419 10.8788 27.2092 10.0383 26.3731C9.39609 25.7225 8.56546 25.2905 7.66406 25.1382Z" fill="#D48C64"/>
<path id="Vector_12" d="M15.1613 16.45V20.5435C15.1613 21.7565 16.1468 22.7419 17.3597 22.7419H29.5645C30.7774 22.7419 31.7629 21.7565 31.7629 20.5435V16.45C31.7629 13.721 29.8677 11.371 27.2903 10.7645L27.3661 10.6129C28.2758 9.24839 28.7306 7.73226 28.7306 6.06452V5.30645C28.7306 4.16935 28.3516 3.10806 27.6694 2.12258C27.4419 1.81935 26.9113 1.74355 26.6081 1.97097C26.3806 2.27419 26.3048 2.72903 26.5323 3.03226C26.8355 3.4871 27.0629 3.94194 27.2145 4.47258C25.3194 4.39677 23.5 3.94194 22.3629 3.33548C22.1355 3.18387 21.8323 3.18387 21.6048 3.33548C21.15 3.5629 20.5435 3.79032 19.9371 3.94194C20.4677 2.57742 21.8323 1.51613 23.5 1.51613C23.9548 1.51613 24.3339 1.59194 24.7887 1.74355C25.1677 1.89516 25.6226 1.66774 25.7742 1.28871C25.9258 0.909677 25.6984 0.454839 25.3194 0.303226C24.7129 0.0758064 24.1065 0 23.5 0C20.5435 0 18.1935 2.35 18.1935 5.30645V6.06452C18.1935 7.65645 18.6484 9.24839 19.5581 10.6129L19.6339 10.7645C17.0565 11.371 15.1613 13.6452 15.1613 16.45ZM19.7097 5.68548C20.6194 5.45806 21.3774 5.23065 21.9839 4.92742C23.3484 5.53387 25.2435 5.98871 27.2903 6.06452C27.2903 7.35323 26.9113 8.64194 26.1532 9.77903L25.1677 11.2194C24.8645 11.75 24.1823 12.129 23.5 12.129C22.8177 12.129 22.1355 11.75 21.7565 11.2194L20.771 9.77903C20.0129 8.71774 19.6339 7.42903 19.6339 6.06452V5.68548H19.7097ZM27.1387 12.2806C26.7597 13.9484 25.2435 15.1613 23.5 15.1613C21.7565 15.1613 20.2403 13.9484 19.8613 12.2806C20.0887 12.2048 20.3919 12.129 20.6194 12.129C21.3016 13.0387 22.3629 13.6452 23.5 13.6452C24.6371 13.6452 25.7742 13.1145 26.3806 12.129C26.6839 12.2048 26.9113 12.2048 27.1387 12.2806ZM18.421 12.9629C19.1032 15.1613 21.15 16.6774 23.5 16.6774C25.85 16.6774 27.8968 15.1613 28.579 12.9629C29.6403 13.721 30.3226 15.0097 30.3226 16.45V20.5435C30.3226 20.9226 30.0194 21.2258 29.6403 21.2258H17.3597C16.9806 21.2258 16.6774 20.9226 16.6774 20.5435V16.45C16.6774 15.0097 17.3597 13.721 18.421 12.9629ZM42.5274 35.0226L42.6032 34.871C43.5129 33.5065 43.9677 31.9903 43.9677 30.3226V29.5645C43.9677 26.6081 41.6177 24.2581 38.6613 24.2581C35.7048 24.2581 33.3548 26.6081 33.3548 29.5645V30.3226C33.3548 31.9145 33.8097 33.5065 34.7194 34.871L34.7952 35.0226C32.2177 35.629 30.3226 37.9032 30.3226 40.7081V44.8016C30.3226 46.0145 31.3081 47 32.521 47C32.9758 47 33.279 46.6968 33.279 46.2419C33.279 45.7871 32.9758 45.4839 32.521 45.4839C32.1419 45.4839 31.8387 45.1806 31.8387 44.8016V40.7081C31.8387 39.2677 32.521 38.0548 33.5823 37.221C34.2645 39.4194 36.3113 40.9355 38.6613 40.9355C41.0113 40.9355 43.0581 39.4194 43.7403 37.221C44.8016 37.979 45.4839 39.2677 45.4839 40.7081V44.8016C45.4839 45.1806 45.1806 45.4839 44.8016 45.4839H35.629C35.1742 45.4839 34.871 45.7871 34.871 46.2419C34.871 46.6968 35.1742 47 35.629 47H44.8016C46.0145 47 47 46.0145 47 44.8016V40.7081C47 37.9032 45.1048 35.629 42.5274 35.0226ZM38.6613 25.7742C40.4806 25.7742 41.9968 27.0629 42.3758 28.8065C40.4048 28.7306 38.6613 28.2758 37.5242 27.6694C37.2968 27.5177 36.9935 27.5177 36.7661 27.6694C36.3113 27.8968 35.7048 28.1242 35.0226 28.2758C35.629 26.8355 36.9935 25.7742 38.6613 25.7742ZM38.6613 39.4194C36.9177 39.4194 35.4016 38.2065 35.0226 36.5387C35.25 36.4629 35.5532 36.3871 35.7806 36.3871C36.4629 37.2968 37.5242 37.9032 38.6613 37.9032C39.7984 37.9032 40.9355 37.3726 41.5419 36.3871C41.7694 36.3871 42.0726 36.4629 42.3 36.5387C41.921 38.2065 40.4048 39.4194 38.6613 39.4194ZM42.4516 30.3226C42.4516 31.6113 42.0726 32.9 41.3145 34.0371L40.329 35.4774C40.0258 36.0081 39.3435 36.3871 38.6613 36.3871C37.979 36.3871 37.2968 36.0081 36.9177 35.4774L35.9323 34.0371C35.1742 32.9758 34.7952 31.6871 34.7952 30.3226V29.8677C35.629 29.6403 36.4629 29.4129 37.0694 29.1097C38.5097 29.7919 40.4048 30.2468 42.4516 30.3226ZM15.9194 40.9355C15.4645 40.9355 15.1613 41.2387 15.1613 41.6935V44.8016C15.1613 45.1806 14.8581 45.4839 14.479 45.4839H2.19839C1.81935 45.4839 1.51613 45.1806 1.51613 44.8016V40.7081C1.51613 39.2677 2.19839 38.0548 3.25968 37.221C3.94194 39.4194 5.98871 40.9355 8.33871 40.9355C10.6887 40.9355 12.7355 39.4194 13.4177 37.221C14.0242 37.6758 14.5548 38.2823 14.8581 39.0403C15.0097 39.3435 15.2371 39.4952 15.5403 39.4952C15.6161 39.4952 15.7677 39.4952 15.8435 39.4194C16.2226 39.2677 16.3742 38.8129 16.2226 38.4339C15.4645 36.6903 13.9484 35.4774 12.2048 35.0226L12.2806 34.871C13.1903 33.5065 13.6452 31.9903 13.6452 30.3226V29.5645C13.6452 26.6081 11.2952 24.2581 8.33871 24.2581C5.38226 24.2581 3.03226 26.6081 3.03226 29.5645V30.3226C3.03226 31.9145 3.4871 33.5065 4.39677 34.871L4.47258 35.0226C1.89516 35.629 0 37.9032 0 40.7081V44.8016C0 46.0145 0.985484 47 2.19839 47H14.4032C15.6161 47 16.6016 46.0145 16.6016 44.8016V41.6935C16.6774 41.2387 16.3742 40.9355 15.9194 40.9355ZM8.33871 39.4194C6.59516 39.4194 5.07903 38.2065 4.7 36.5387C4.92742 36.4629 5.23065 36.3871 5.45806 36.3871C6.14032 37.2968 7.20161 37.9032 8.33871 37.9032C9.47581 37.9032 10.6129 37.3726 11.2194 36.3871C11.4468 36.3871 11.75 36.4629 11.9774 36.5387C11.5984 38.2065 10.0823 39.4194 8.33871 39.4194ZM8.33871 25.7742C10.1581 25.7742 11.6742 27.0629 12.0532 28.8065C10.0823 28.7306 8.33871 28.2758 7.20161 27.6694C6.97419 27.5177 6.67097 27.5177 6.44355 27.6694C5.98871 27.8968 5.38226 28.1242 4.77581 28.2758C5.30645 26.8355 6.67097 25.7742 8.33871 25.7742ZM4.54839 29.9435C5.45806 29.7161 6.21613 29.4887 6.82258 29.1855C8.1871 29.7919 10.0823 30.2468 12.129 30.3226C12.129 31.6113 11.75 32.9 10.9919 34.0371L10.0065 35.4774C9.70323 36.0081 9.02097 36.3871 8.33871 36.3871C7.65645 36.3871 6.97419 36.0081 6.59516 35.4774L5.68548 34.0371C4.92742 32.9758 4.54839 31.6871 4.54839 30.3226V29.9435ZM31.8387 31.0806C31.8387 30.6258 31.5355 30.3226 31.0806 30.3226H29.5645C29.1097 30.3226 28.8065 30.6258 28.8065 31.0806C28.8065 31.5355 29.1097 31.8387 29.5645 31.8387H31.0806C31.5355 31.8387 31.8387 31.5355 31.8387 31.0806ZM26.5323 30.3226H25.0161C24.5613 30.3226 24.2581 30.6258 24.2581 31.0806C24.2581 31.5355 24.5613 31.8387 25.0161 31.8387H26.5323C26.9871 31.8387 27.2903 31.5355 27.2903 31.0806C27.2903 30.6258 26.9871 30.3226 26.5323 30.3226ZM21.9839 30.3226H20.4677C20.0129 30.3226 19.7097 30.6258 19.7097 31.0806C19.7097 31.5355 20.0129 31.8387 20.4677 31.8387H21.9839C22.4387 31.8387 22.7419 31.5355 22.7419 31.0806C22.7419 30.6258 22.4387 30.3226 21.9839 30.3226ZM17.4355 30.3226H15.9194C15.4645 30.3226 15.1613 30.6258 15.1613 31.0806C15.1613 31.5355 15.4645 31.8387 15.9194 31.8387H17.4355C17.8903 31.8387 18.1935 31.5355 18.1935 31.0806C18.1935 30.6258 17.8903 30.3226 17.4355 30.3226ZM31.1565 8.64194C31.3081 8.94516 31.5355 9.09677 31.8387 9.09677C31.9903 9.09677 32.0661 9.09677 32.1419 9.02097C32.521 8.86935 32.6726 8.41452 32.4452 8.03548L31.6871 6.51936C31.5355 6.14032 31.0806 5.98871 30.7016 6.21613C30.3226 6.36774 30.171 6.82258 30.3984 7.20161L31.1565 8.64194ZM33.4306 13.1903C33.5823 13.4935 33.8097 13.6452 34.1129 13.6452C34.2645 13.6452 34.3403 13.6452 34.4161 13.5694C34.7952 13.4177 34.9468 12.9629 34.7194 12.5839L33.9613 11.0677C33.8097 10.6887 33.3548 10.5371 32.9758 10.7645C32.5968 10.9161 32.4452 11.371 32.6726 11.75L33.4306 13.1903ZM35.7048 17.7387C35.8564 18.0419 36.0839 18.1935 36.3871 18.1935C36.5387 18.1935 36.6145 18.1935 36.6903 18.1177C37.0694 17.9661 37.221 17.5113 36.9935 17.1323L36.2355 15.6161C36.0839 15.2371 35.629 15.0855 35.25 15.3129C34.871 15.4645 34.7194 15.9194 34.9468 16.2984L35.7048 17.7387ZM37.979 22.2871C38.1306 22.5903 38.3581 22.7419 38.6613 22.7419C38.8129 22.7419 38.8887 22.7419 38.9645 22.6661C39.3435 22.5145 39.4952 22.0597 39.2677 21.6806L38.5097 20.1645C38.3581 19.7855 37.9032 19.6339 37.5242 19.8613C37.1452 20.0129 36.9935 20.4677 37.221 20.8468L37.979 22.2871ZM8.03548 22.6661C8.11129 22.7419 8.1871 22.7419 8.33871 22.7419C8.64194 22.7419 8.86935 22.5903 9.02097 22.2871L9.77903 20.771C9.93064 20.3919 9.77903 19.9371 9.47581 19.7855C9.09677 19.6339 8.64194 19.7855 8.49032 20.0887L7.73226 21.6048C7.50484 21.9839 7.65645 22.4387 8.03548 22.6661ZM10.3097 18.1177C10.3855 18.1935 10.4613 18.1935 10.6129 18.1935C10.9161 18.1935 11.1435 18.0419 11.2952 17.7387L12.0532 16.2226C12.2048 15.8435 12.0532 15.3887 11.75 15.2371C11.371 15.0855 10.9161 15.2371 10.7645 15.5403L10.0065 17.0565C9.77903 17.4355 9.93064 17.8903 10.3097 18.1177ZM12.5839 13.5694C12.6597 13.6452 12.7355 13.6452 12.8871 13.6452C13.1903 13.6452 13.4177 13.4935 13.5694 13.1903L14.3274 11.6742C14.479 11.2952 14.3274 10.8403 14.0242 10.6887C13.6452 10.5371 13.1903 10.6887 13.0387 10.9919L12.2806 12.5081C12.0532 12.8871 12.2048 13.3419 12.5839 13.5694ZM14.8581 9.02097C14.9339 9.09677 15.0097 9.09677 15.1613 9.09677C15.4645 9.09677 15.6919 8.94516 15.8435 8.64194L16.6016 7.12581C16.7532 6.74677 16.6016 6.29194 16.2984 6.14032C15.9194 5.98871 15.4645 6.14032 15.3129 6.44355L14.5548 7.95968C14.3274 8.33871 14.479 8.79355 14.8581 9.02097Z" fill="black"/>
</g>
</svg>
