<svg width="50" height="51" viewBox="0 0 50 51" fill="none" xmlns="http://www.w3.org/2000/svg">
<g id="Group">
<path id="Vector" d="M25.0502 39.3555C32.9437 39.3555 39.3426 32.9566 39.3426 25.0631C39.3426 17.1697 32.9437 10.7708 25.0502 10.7708C17.1567 10.7708 10.7578 17.1697 10.7578 25.0631C10.7578 32.9566 17.1567 39.3555 25.0502 39.3555Z" stroke="#25B39E" stroke-linecap="round" stroke-linejoin="round"/>
<path id="Vector_2" d="M25.0482 6.56716V1.52279M22.6706 3.37912L25.0482 1L27.4258 3.37912M43.5291 25.0482H48.5735M46.7172 22.6705L49.0964 25.0482L46.7172 27.4257M6.56731 25.0482H1.52294M3.37758 22.6705L1 25.0482L3.37758 27.4257M38.1165 11.9798L41.6829 8.41344M38.6899 8.04356H42.0528V11.4065M11.98 38.1164L8.41359 41.6828M8.04367 38.6897V42.0526H11.4066M38.1165 38.1164L41.6829 41.6828M42.0528 38.6897V42.0526H38.6899M11.98 11.9798L8.41359 8.41344M11.4066 8.04356H8.04367V11.4065" stroke="#25B39E"/>
<path id="Vector_3" d="M25.2175 13.2778C22.0958 13.2778 19.102 14.5179 16.8947 16.7252C14.6873 18.9326 13.4473 21.9263 13.4473 25.048C13.4496 25.3848 13.4665 25.7214 13.4977 26.0568C14.0055 33.6721 20.121 35.4545 20.121 40.3391H21.4611C21.097 40.4215 20.7715 40.6247 20.5376 40.9157C20.3038 41.2067 20.1753 41.5683 20.1731 41.9416V48.6674C20.1731 49.5989 20.923 50.3488 21.8546 50.3488H28.5804C29.5119 50.3488 30.2618 49.5989 30.2618 48.6674V41.9416C30.2597 41.5683 30.1312 41.2067 29.8973 40.9157C29.6634 40.6247 29.3379 40.4215 28.9738 40.3391H30.314C30.314 35.4898 36.342 33.6973 36.9288 26.2233C36.9681 25.8321 36.9877 25.4394 36.9877 25.0463C36.9877 21.9247 35.7476 18.9309 33.5403 16.7236C31.3329 14.5163 28.3391 13.2778 25.2175 13.2778Z" fill="#FCD062"/>
<path id="Vector_4" d="M20.1719 40.3391V48.6674C20.1719 49.5989 20.9218 50.3488 21.8533 50.3488H28.5792C29.5107 50.3488 30.2606 49.5989 30.2606 48.6674V40.3391H20.1719Z" fill="#576D7E"/>
<path id="Vector_5" d="M19.3457 41.1011H31.089M19.3457 44.464H31.089M19.3457 47.8269H31.089" stroke="#2B4255" stroke-linecap="round" stroke-linejoin="round"/>
</g>
</svg>
