<svg width="110" height="63" viewBox="0 0 110 63" fill="none" xmlns="http://www.w3.org/2000/svg">
<path d="M14.6931 61.6386C14.6931 61.6386 8.09199 63.8831 8.0918 59.1658C8.09161 54.4485 9.87123 53.5911 9.87123 53.5911L14.6931 51.215V61.6386Z" fill="#720000"/>
<path d="M87.4656 18.3888C87.4041 15.2167 95.0074 11.0467 95.0074 11.0467C95.0074 11.0467 96.5344 10.8412 103.176 10.7306C109.706 11.8723 107.343 18.3888 107.343 18.3888L87.4656 18.3888Z" fill="#720000"/>
<path d="M8.097 42.7322L71.0628 10.7717L103.264 10.7717L8.097 59.1423L8.097 42.7322Z" fill="#FF0000"/>
<path d="M74.1451 14.8773L77.3674 21.2145L76.1661 21.8254L71.2367 18.7993L73.4719 23.1953L72.275 23.8039L69.0527 17.4667L70.2497 16.8581L75.19 19.8841L72.9526 15.4837L74.1451 14.8773Z" fill="white"/>
<path d="M69.5674 20.9899L69.7334 21.3163C69.9768 21.7951 70.1321 22.2584 70.1992 22.7064C70.2648 23.1514 70.2479 23.5672 70.1486 23.9536C70.0493 24.3401 69.8733 24.687 69.6207 24.9944C69.368 25.3019 69.0429 25.5567 68.6453 25.7588C68.2536 25.958 67.8577 26.0698 67.4575 26.0944C67.0602 26.1174 66.6747 26.056 66.301 25.91C65.9274 25.764 65.5786 25.5342 65.2548 25.2205C64.9294 24.9038 64.645 24.5061 64.4016 24.0274L64.2356 23.7009C63.9907 23.2193 63.8369 22.7552 63.7742 22.3087C63.7115 21.8621 63.7298 21.4457 63.8291 21.0592C63.9269 20.6698 64.1022 20.3215 64.3549 20.014C64.6104 19.7051 64.9341 19.4511 65.3258 19.2519C65.7233 19.0498 66.1208 18.9372 66.518 18.9141C66.9153 18.891 67.3001 18.9547 67.6723 19.105C68.046 19.251 68.3933 19.4816 68.7143 19.7968C69.0381 20.1105 69.3225 20.5082 69.5674 20.9899ZM68.5234 21.9316L68.353 21.5964C68.1774 21.2511 67.9913 20.9641 67.7947 20.7354C67.5966 20.5038 67.3894 20.3298 67.1732 20.2134C66.9569 20.0969 66.7345 20.0402 66.506 20.0432C66.276 20.0433 66.0464 20.1016 65.8171 20.2182C65.585 20.3362 65.4026 20.4874 65.2699 20.6717C65.1386 20.8516 65.0564 21.0633 65.0231 21.3066C64.9898 21.55 65.0069 21.8206 65.0744 22.1186C65.1434 22.4122 65.2656 22.7317 65.4412 23.077L65.6116 23.4121C65.7857 23.7545 65.9718 24.0415 66.1699 24.2731C66.3709 24.5032 66.5802 24.678 66.798 24.7973C67.0171 24.9123 67.2402 24.9705 67.4674 24.9719C67.6945 24.9732 67.9241 24.9149 68.1562 24.7969C68.3884 24.6789 68.5708 24.5277 68.7035 24.3433C68.8362 24.159 68.9177 23.9459 68.9481 23.704C68.9799 23.4578 68.9606 23.1864 68.8902 22.8899C68.8198 22.5934 68.6975 22.274 68.5234 21.9316Z" fill="white"/>
<path d="M63.4209 24.1148L63.5869 24.4412C63.8303 24.92 63.9856 25.3833 64.0527 25.8313C64.1183 26.2763 64.1014 26.692 64.0021 27.0785C63.9029 27.465 63.7269 27.8119 63.4742 28.1193C63.2215 28.4268 62.8964 28.6815 62.4988 28.8837C62.1071 29.0828 61.7112 29.1947 61.311 29.2192C60.9137 29.2423 60.5282 29.1808 60.1546 29.0349C59.7809 28.8889 59.4321 28.6591 59.1083 28.3453C58.7829 28.0287 58.4986 27.631 58.2551 27.1522L58.0891 26.8258C57.8442 26.3441 57.6904 25.88 57.6277 25.4335C57.565 24.987 57.5833 24.5705 57.6826 24.1841C57.7804 23.7947 57.9557 23.4463 58.2084 23.1389C58.464 22.83 58.7876 22.576 59.1793 22.3768C59.5769 22.1747 59.9743 22.0621 60.3715 22.039C60.7688 22.0159 61.1536 22.0796 61.5258 22.2299C61.8995 22.3759 62.2468 22.6065 62.5678 22.9217C62.8916 23.2354 63.176 23.6331 63.4209 24.1148ZM62.3769 25.0564L62.2065 24.7213C62.0309 24.376 61.8448 24.089 61.6482 23.8603C61.4501 23.6287 61.2429 23.4547 61.0267 23.3382C60.8105 23.2218 60.5881 23.1651 60.3595 23.1681C60.1295 23.1681 59.8999 23.2265 59.6706 23.343C59.4385 23.4611 59.2561 23.6122 59.1234 23.7966C58.9922 23.9765 58.9099 24.1882 58.8766 24.4315C58.8433 24.6749 58.8604 24.9455 58.9279 25.2435C58.9969 25.5371 59.1191 25.8566 59.2947 26.2019L59.4651 26.537C59.6392 26.8794 59.8253 27.1664 60.0234 27.398C60.2244 27.6281 60.4338 27.8028 60.6515 27.9222C60.8706 28.0372 61.0938 28.0954 61.3209 28.0967C61.548 28.0981 61.7776 28.0398 62.0097 27.9218C62.2419 27.8037 62.4243 27.6525 62.557 27.4682C62.6897 27.2839 62.7712 27.0708 62.8016 26.8289C62.8334 26.5827 62.8141 26.3113 62.7437 26.0148C62.6733 25.7183 62.551 25.3988 62.3769 25.0564Z" fill="white"/>
<path d="M57.0226 29.4884C56.9606 29.3666 56.8864 29.2673 56.8 29.1908C56.715 29.1098 56.6047 29.0545 56.4691 29.0248C56.335 28.9908 56.1631 28.9796 55.9536 28.9912C55.7454 28.9984 55.4865 29.0278 55.1767 29.0794C54.8336 29.1371 54.5048 29.1728 54.1904 29.1865C53.8761 29.2003 53.5826 29.1797 53.31 29.1248C53.0403 29.0684 52.8008 28.9674 52.5917 28.8217C52.381 28.6732 52.2079 28.4655 52.0721 28.1985C51.9393 27.9374 51.8735 27.6714 51.8746 27.4006C51.8785 27.1284 51.9444 26.863 52.0723 26.6044C52.1986 26.343 52.3797 26.0994 52.6154 25.8736C52.8541 25.6463 53.1432 25.4464 53.4827 25.2737C53.9528 25.0347 54.4025 24.9138 54.832 24.9109C55.2643 24.9065 55.6493 25.0029 55.9869 25.2001C56.3245 25.3972 56.5863 25.6786 56.7722 26.0442L55.5796 26.6506C55.4793 26.4533 55.3487 26.3006 55.1878 26.1925C55.0299 26.0829 54.8446 26.0274 54.632 26.0259C54.4224 26.023 54.1913 26.0857 53.9389 26.214C53.6952 26.338 53.5105 26.4775 53.3849 26.6327C53.2622 26.7864 53.1919 26.9462 53.1741 27.1123C53.1592 27.2769 53.1909 27.4361 53.269 27.5899C53.3281 27.706 53.4087 27.7964 53.5111 27.8613C53.612 27.9232 53.7382 27.9667 53.8898 27.9919C54.0398 28.0142 54.2139 28.0188 54.4118 28.0058C54.6111 27.9885 54.8365 27.9578 55.0881 27.9139C55.4894 27.8413 55.8531 27.8025 56.1791 27.7974C56.5081 27.7908 56.801 27.8245 57.0577 27.8984C57.3173 27.9709 57.5423 28.0866 57.7326 28.2455C57.9258 28.4028 58.0881 28.6107 58.2194 28.8689C58.3581 29.1417 58.4284 29.4127 58.4302 29.682C58.432 29.9513 58.3712 30.2123 58.2477 30.465C58.1242 30.7177 57.9416 30.9548 57.7 31.1762C57.4613 31.3962 57.1693 31.594 56.824 31.7696C56.5164 31.9259 56.1911 32.0402 55.848 32.1124C55.5063 32.1803 55.1716 32.1934 54.8437 32.152C54.5144 32.1076 54.2123 31.9946 53.9374 31.8131C53.661 31.6286 53.435 31.3637 53.2594 31.0184L54.4607 30.4076C54.5625 30.6078 54.6815 30.7628 54.8176 30.8725C54.9552 30.9778 55.1063 31.0452 55.271 31.0747C55.4372 31.0998 55.6118 31.0913 55.7949 31.0493C55.9781 31.0073 56.164 30.9384 56.3526 30.8425C56.5963 30.7185 56.7796 30.5834 56.9023 30.437C57.0265 30.2862 57.0968 30.1299 57.1132 29.9682C57.1324 29.805 57.1022 29.6451 57.0226 29.4884Z" fill="white"/>
<path d="M49.5246 31.2467L50.7794 33.7146C50.7471 33.8808 50.6662 34.0844 50.5368 34.3255C50.4103 34.5651 50.2133 34.8168 49.9457 35.0807C49.6767 35.3416 49.3101 35.5901 48.8458 35.8262C48.4425 36.0313 48.04 36.1519 47.6385 36.1881C47.2354 36.2214 46.8471 36.1687 46.4735 36.03C46.0999 35.8913 45.7519 35.6666 45.4295 35.3557C45.1071 35.0449 44.8227 34.6472 44.5763 34.1626L44.3639 33.7448C44.1175 33.2602 43.9593 32.7984 43.8894 32.3592C43.8224 31.9185 43.8371 31.5093 43.9335 31.1316C44.0329 30.7525 44.2089 30.4128 44.4616 30.1126C44.7173 29.811 45.0453 29.5584 45.4457 29.3548C45.9826 29.0818 46.4686 28.9461 46.9039 28.9475C47.3421 28.9475 47.733 29.0555 48.0766 29.2715C48.4187 29.4847 48.7147 29.7797 48.9647 30.1565L47.7983 30.7496C47.6542 30.5453 47.4923 30.3848 47.3124 30.2681C47.1311 30.1485 46.9283 30.0872 46.7041 30.0844C46.4813 30.0772 46.2307 30.1444 45.9521 30.286C45.7171 30.4055 45.5332 30.5574 45.4005 30.7418C45.2678 30.9261 45.1856 31.1377 45.1537 31.3767C45.1218 31.6157 45.1404 31.882 45.2093 32.1756C45.2812 32.4677 45.4027 32.7821 45.5738 33.1186L45.7907 33.5452C45.9633 33.8847 46.1516 34.1688 46.3555 34.3974C46.5579 34.6231 46.7701 34.7928 46.9922 34.9063C47.2157 35.0154 47.4482 35.067 47.6898 35.061C47.9329 35.0506 48.1792 34.982 48.4287 34.8551C48.655 34.74 48.8326 34.626 48.9614 34.513C49.0916 34.3957 49.1877 34.2866 49.2496 34.1857C49.3116 34.0848 49.3539 33.9957 49.3767 33.9184L48.7725 32.7302L47.5146 33.3698L47.0698 32.4949L49.5246 31.2467Z" fill="white"/>
<path d="M41.8053 31.3207L45.0276 37.6579L43.8263 38.2687L38.8969 35.2426L41.1321 39.6386L39.9352 40.2472L36.7129 33.91L37.9098 33.3014L42.8502 36.3274L40.6127 31.9271L41.8053 31.3207Z" fill="white"/>
<path d="M35.4196 34.5673L38.6419 40.9045L37.4449 41.5131L34.2227 35.1759L35.4196 34.5673Z" fill="white"/>
<path d="M26.868 38.9161L27.9039 38.3894L32.0617 42.2788L31.3641 36.6299L32.4043 36.101L33.2719 43.6355L32.4406 44.0582L26.868 38.9161ZM26.3457 39.1816L27.3598 38.666L29.7712 42.956L30.7649 44.9102L29.568 45.5188L26.3457 39.1816ZM31.9082 36.3533L32.9266 35.8354L36.1489 42.1726L34.952 42.7812L33.9583 40.827L31.9082 36.3533Z" fill="white"/>
<path d="M26.8604 42.7048L27.0264 43.0313C27.2698 43.5101 27.4251 43.9734 27.4921 44.4213C27.5577 44.8664 27.5409 45.2821 27.4416 45.6686C27.3423 46.055 27.1663 46.402 26.9136 46.7094C26.6609 47.0168 26.3358 47.2716 25.9383 47.4737C25.5466 47.6729 25.1506 47.7848 24.7504 47.8093C24.3532 47.8324 23.9677 47.7709 23.594 47.625C23.2203 47.479 22.8716 47.2492 22.5477 46.9354C22.2224 46.6188 21.938 46.2211 21.6946 45.7423L21.5286 45.4159C21.2837 44.9342 21.1299 44.4701 21.0672 44.0236C21.0045 43.5771 21.0228 43.1606 21.1221 42.7742C21.2199 42.3848 21.3951 42.0364 21.6478 41.729C21.9034 41.4201 22.2271 41.166 22.6188 40.9669C23.0163 40.7647 23.4137 40.6521 23.811 40.6291C24.2083 40.606 24.593 40.6697 24.9653 40.82C25.339 40.966 25.6863 41.1966 26.0072 41.5118C26.3311 41.8255 26.6155 42.2232 26.8604 42.7048ZM25.8164 43.6465L25.646 43.3114C25.4704 42.9661 25.2843 42.6791 25.0877 42.4504C24.8896 42.2188 24.6824 42.0448 24.4662 41.9283C24.2499 41.8119 24.0275 41.7551 23.799 41.7581C23.569 41.7582 23.3393 41.8166 23.1101 41.9331C22.878 42.0512 22.6956 42.2023 22.5629 42.3867C22.4316 42.5666 22.3493 42.7783 22.316 43.0216C22.2827 43.2649 22.2998 43.5356 22.3674 43.8336C22.4363 44.1272 22.5586 44.4467 22.7342 44.792L22.9046 45.1271C23.0787 45.4695 23.2648 45.7565 23.4629 45.9881C23.6639 46.2182 23.8732 46.3929 24.0909 46.5123C24.3101 46.6273 24.5332 46.6855 24.7603 46.6868C24.9874 46.6882 25.2171 46.6299 25.4492 46.5118C25.6813 46.3938 25.8637 46.2426 25.9964 46.0583C26.1291 45.874 26.2107 45.6609 26.2411 45.419C26.2729 45.1728 26.2536 44.9014 26.1832 44.6049C26.1127 44.3084 25.9905 43.9889 25.8164 43.6465Z" fill="white"/>
<path d="M20.2378 47.6389L21.4348 47.0303C21.6183 47.4702 21.6918 47.9057 21.6554 48.3368C21.6175 48.7651 21.4645 49.1643 21.1962 49.5344C20.9279 49.9046 20.5355 50.2209 20.019 50.4836C19.6215 50.6857 19.2277 50.7983 18.8377 50.8213C18.4492 50.8399 18.0753 50.7762 17.7162 50.6301C17.3585 50.4797 17.0265 50.2505 16.7202 49.9424C16.4123 49.6315 16.1411 49.2454 15.9065 48.784L15.6609 48.3009C15.4263 47.8395 15.2755 47.3922 15.2085 46.9588C15.1416 46.5254 15.1548 46.1206 15.2484 45.7444C15.3433 45.3638 15.5143 45.0212 15.7612 44.7167C16.0109 44.4108 16.3346 44.1568 16.7321 43.9546C17.2486 43.692 17.734 43.5657 18.1883 43.5757C18.6411 43.5829 19.0503 43.7017 19.4158 43.9321C19.7813 44.1626 20.0935 44.4822 20.3525 44.891L19.1556 45.4996C18.9966 45.2445 18.8235 45.0476 18.6362 44.9092C18.4518 44.7692 18.2439 44.6978 18.0124 44.695C17.7824 44.6878 17.5179 44.7602 17.219 44.9122C16.9869 45.0302 16.8044 45.1777 16.6717 45.3548C16.5419 45.5304 16.4632 45.7347 16.4356 45.9678C16.4066 46.198 16.4288 46.457 16.502 46.7448C16.5738 47.0296 16.6953 47.3404 16.8665 47.6769L17.1165 48.1688C17.2803 48.4909 17.4532 48.7663 17.6353 48.9951C17.8174 49.2239 18.0085 49.3987 18.2088 49.5197C18.409 49.6406 18.6198 49.7032 18.8411 49.7076C19.0625 49.7119 19.2935 49.6528 19.5344 49.5304C19.8274 49.3814 20.0418 49.2139 20.1773 49.0281C20.3158 48.8409 20.3872 48.6329 20.3915 48.4043C20.3987 48.1743 20.3475 47.9191 20.2378 47.6389Z" fill="white"/>
</svg>
