<svg width="150" height="176" viewBox="0 0 150 176" fill="none" xmlns="http://www.w3.org/2000/svg">
<g clipPath="url(#clip0_82_526)">
<path d="M5.57305 168.154L0 151.83H4.48039L8.08283 164.793L11.7473 151.83H15.9748L10.3684 168.149H5.57782L5.57305 168.154Z" fill="white"/>
<path d="M28.1277 168.154L27.7221 167.025C25.4986 168.001 23.9002 168.436 22.0822 168.436C18.9522 168.436 17.2583 166.676 17.2583 164.166V163.066C17.2583 159.739 19.4818 157.984 23.4612 157.984H27.1591V156.822C27.1591 155.411 26.7821 154.752 24.6206 154.752C22.9602 154.752 20.1737 155.096 18.9188 155.349L18.1362 152.213C20.8941 151.744 23.3037 151.553 25.2791 151.553C29.0676 151.553 31.2005 152.715 31.2005 156.827V168.159H28.1324L28.1277 168.154ZM27.1543 160.623C26.8107 160.623 25.0548 160.623 23.8954 160.685C21.9868 160.747 21.2663 161.374 21.2663 162.727V163.635C21.2663 164.735 21.8293 165.237 23.0842 165.237C24.2103 165.237 26.3431 164.482 27.1543 164.171V160.623Z" fill="white"/>
<path d="M42.7523 167.776C41.5308 168.278 40.1518 168.436 39.0544 168.436C36.3633 168.436 35.4854 166.867 35.4854 165.046V145.49L39.5268 144.61V163.788C39.5268 164.668 39.5602 165.108 40.5288 165.108C40.8723 165.108 41.6548 164.95 42.1892 164.826L42.7523 167.776Z" fill="white"/>
<path d="M49.2981 151.83V162.469C49.2981 164.099 49.6131 165.199 51.3642 165.199C52.5236 165.199 54.0887 164.477 54.9953 164.161V151.825H59.0367V168.144H56.0593L55.5249 167.016C54.2414 167.642 52.5189 168.426 50.5769 168.426C46.4734 168.426 45.252 165.978 45.252 162.904V151.825H49.2934L49.2981 151.83Z" fill="white"/>
<path d="M77.3356 167.212C76.0807 167.685 72.9506 168.436 69.5676 168.436C65.2161 168.436 62.9258 166.963 62.9258 162.66V157.797C62.9258 153.872 64.8678 151.553 69.5342 151.553H70.7891C75.3602 151.553 77.3021 153.877 77.3021 157.831V161.063H66.9672V162.727C66.9672 164.549 67.6877 165.209 69.6917 165.209C71.9772 165.209 74.5156 164.802 76.3622 164.238L77.3356 167.222V167.212ZM73.2655 157.042C73.2655 155.349 72.483 154.627 70.4456 154.627H69.8491C67.8117 154.627 66.9672 155.349 66.9672 157.042V158.424H73.2607V157.042H73.2655Z" fill="white"/>
<path d="M92.3993 163.635C92.3993 166.523 90.6434 168.436 86.4493 168.436C84.5407 168.436 82.6273 168.249 80.7188 167.838L81.1243 166.145C83.2858 166.614 85.1323 166.772 86.4159 166.772C88.9209 166.772 90.4239 166.05 90.4239 163.568V163.382C90.3905 161.249 89.67 160.776 87.165 160.776H85.3471C82.2456 160.776 80.9335 159.772 80.9335 156.788V156.664C80.9335 153.589 82.718 152.112 85.9149 152.112C87.8234 152.112 90.2998 152.427 91.9269 152.676L91.4593 154.306C89.9229 154.053 87.6374 153.771 86.1057 153.771C83.2572 153.771 82.9088 154.995 82.9088 156.625C82.9088 158.634 83.3812 158.916 85.7574 158.916H87.5419C90.2998 158.916 92.3945 159.671 92.3945 163.31V163.626L92.3993 163.635Z" fill="white"/>
<path d="M110.158 168.154L106.117 154.249L102.075 168.154H99.3508L94.8418 152.399H96.9412L100.701 166.648L104.743 152.743H107.5L111.542 166.648L115.364 152.399H117.368L112.859 168.154H110.168H110.158Z" fill="white"/>
<path d="M130.551 168.154L130.112 166.834C127.636 167.776 125.823 168.436 124.129 168.436C121.371 168.436 119.777 167.116 119.777 164.606V163.32C119.777 160.403 121.595 158.768 125.26 158.768H129.96V157.166C129.96 154.813 129.616 153.776 126.233 153.776C124.73 153.776 122.349 154.12 121.066 154.436L120.689 152.772C123.098 152.27 124.978 152.112 126.734 152.112C130.022 152.112 131.902 153.116 131.902 156.884V168.154H130.556H130.551ZM129.955 160.369H125.818C122.812 160.369 121.715 161.216 121.715 163.415V164.391C121.715 166.15 122.559 166.681 124.534 166.681C126.381 166.681 129.955 165.27 129.955 165.27V160.374V160.369Z" fill="white"/>
<path d="M137.222 176V152.399H138.663L139.102 153.781C141.421 152.777 143.453 152.117 145.367 152.117C148.998 152.117 150.004 154.187 150.004 157.171V163.544C150.004 167.25 148.029 168.441 145.18 168.441C143.205 168.441 140.829 167.905 139.197 167.374V175.503L137.222 176.005V176ZM148.029 157.701C148.029 155.096 147.433 153.809 144.899 153.809C143.615 153.809 140.982 154.656 139.197 155.378V165.61C140.357 166.083 142.766 166.772 144.522 166.772C147.437 166.772 148.029 165.452 148.029 163.224V157.701Z" fill="white"/>
<path d="M103.102 69.9381C93.9785 85.7408 85.1704 101.003 75.9043 117.054C53.3258 77.8562 31.0861 39.2508 8.56006 0.148225H62.716C66.0512 5.9242 69.5201 11.9297 73.07 18.0738C70.0974 23.2043 67.1773 28.2392 63.9566 33.8C60.2491 27.4455 56.8757 21.6599 53.4785 15.8313H35.8575C49.2987 39.0978 62.4583 61.8814 75.9711 85.2722C79.0153 79.9409 81.8209 75.0256 84.6026 70.1485C78.686 59.6963 72.841 49.3731 66.8528 38.7918C74.2677 25.9154 81.6873 13.0246 89.1832 0H143.325C130.771 21.8846 118.466 43.339 105.836 65.3575C102.562 59.5767 99.5993 54.3458 96.746 49.3014C103.23 38.0077 109.443 27.1968 115.908 15.9413H98.2633C94.0453 23.2521 89.6222 30.9216 85.0511 38.8396C91.0632 49.1914 97.0704 59.5433 103.106 69.9381H103.102Z" fill="white"/>
<path style="mix-blend-mode:multiply" opacity="0.26" d="M103.102 69.9381C93.9785 85.7408 85.1704 101.003 75.9043 117.054C53.3258 77.8562 31.0861 39.2508 8.56006 0.148225H62.716C66.0512 5.9242 69.5201 11.9297 73.07 18.0738C70.0974 23.2043 67.1773 28.2392 63.9566 33.8C60.2491 27.4455 56.8757 21.6599 53.4785 15.8313H35.8575C49.2987 39.0978 62.4583 61.8814 75.9711 85.2722C79.0153 79.9409 81.8209 75.0256 84.6026 70.1485C78.686 59.6963 72.841 49.3731 66.8528 38.7918C74.2677 25.9154 81.6873 13.0246 89.1832 0H143.325C130.771 21.8846 118.466 43.339 105.836 65.3575C102.562 59.5767 99.5993 54.3458 96.746 49.3014C103.23 38.0077 109.443 27.1968 115.908 15.9413H98.2633C94.0453 23.2521 89.6222 30.9216 85.0511 38.8396C91.0632 49.1914 97.0704 59.5433 103.106 69.9381H103.102Z" fill="url(#paint0_radial_82_526)"/>
<path style="mix-blend-mode:multiply" d="M35.8527 15.8316C49.2939 39.098 62.4536 61.8816 75.9663 85.2724L66.7956 101.085C44.2123 61.8816 31.0861 39.251 8.56006 0.148438L35.8575 15.8268L35.8527 15.8316Z" fill="url(#paint1_linear_82_526)"/>
</g>
<defs>
<radialGradient id="paint0_radial_82_526" cx="0" cy="0" r="1" gradientUnits="userSpaceOnUse" gradientTransform="translate(75.9377 58.5344) scale(63.0547 252.747)">
<stop stop-color="white" stop-opacity="0"/>
<stop offset="1" stop-opacity="0.6"/>
</radialGradient>
<linearGradient id="paint1_linear_82_526" x1="8.56006" y1="50.6165" x2="75.9663" y2="50.6165" gradientUnits="userSpaceOnUse">
<stop offset="0.81" stop-color="white" stop-opacity="0"/>
<stop offset="1" stop-opacity="0.6"/>
</linearGradient>
<clipPath id="clip0_82_526">
<rect width="150" height="176" fill="white"/>
</clipPath>
</defs>
</svg>
