<svg width="153" height="21" viewBox="0 0 153 21" fill="none" xmlns="http://www.w3.org/2000/svg">
<path d="M0 5.71262C3.95915 -0.722769 8.35806 0.0631189 12.7322 0.0631189V5.71262H0Z" fill="#720000"/>
<path d="M152.936 5.71262C148.976 -0.722769 144.577 0.0631189 140.203 0.0631189V5.71262H152.936Z" fill="#720000"/>
<path d="M10.7422 0.0632324L142.742 0.0632324C142.742 11.1089 133.788 20.0632 122.742 20.0632L30.7422 20.0632C19.6965 20.0632 10.7422 11.1089 10.7422 0.0632324Z" fill="#FF0000"/>
<path d="M36.1924 5.11011H39.8086C40.5651 5.11011 41.2145 5.22404 41.7568 5.4519C42.2992 5.67977 42.7161 6.01701 43.0078 6.46362C43.2995 6.91024 43.4453 7.45939 43.4453 8.11108C43.4453 8.62606 43.3542 9.07267 43.1719 9.45093C42.9896 9.82918 42.7321 10.1459 42.3994 10.4011C42.0713 10.6563 41.6839 10.8569 41.2373 11.0027L40.6494 11.3035H37.457L37.4434 9.82007H39.8291C40.2165 9.82007 40.5378 9.75171 40.793 9.61499C41.0482 9.47827 41.2396 9.28914 41.3672 9.04761C41.4993 8.80607 41.5654 8.53035 41.5654 8.22046C41.5654 7.88778 41.5016 7.60067 41.374 7.35913C41.2464 7.11304 41.0527 6.92391 40.793 6.79175C40.5332 6.65959 40.2051 6.59351 39.8086 6.59351H38.0723V15.0632H36.1924V5.11011ZM41.8115 15.0632L39.5078 10.6062L41.4971 10.5994L43.8281 14.9675V15.0632H41.8115ZM48.2783 15.2C47.7178 15.2 47.2142 15.1088 46.7676 14.9265C46.321 14.7442 45.9404 14.4913 45.626 14.1677C45.3161 13.8396 45.0768 13.4591 44.9082 13.0261C44.7441 12.5886 44.6621 12.1192 44.6621 11.6179V11.3445C44.6621 10.7748 44.7441 10.2576 44.9082 9.79272C45.0723 9.32332 45.3047 8.92 45.6055 8.58276C45.9062 8.24552 46.2663 7.98576 46.6855 7.80347C47.1048 7.62118 47.5674 7.53003 48.0732 7.53003C48.5973 7.53003 49.0599 7.6189 49.4609 7.79663C49.862 7.96981 50.1969 8.2159 50.4658 8.53491C50.7347 8.85392 50.9375 9.23674 51.0742 9.68335C51.2109 10.1254 51.2793 10.6153 51.2793 11.1531V11.9119L45.4824 11.9119V10.6677H49.502V10.531C49.4928 10.2439 49.4382 9.98185 49.3379 9.74487C49.2376 9.50334 49.0827 9.31193 48.873 9.17065C48.6634 9.02482 48.3923 8.9519 48.0596 8.9519C47.7907 8.9519 47.556 9.01115 47.3555 9.12964C47.1595 9.24357 46.9954 9.40763 46.8633 9.62183C46.7357 9.83146 46.64 10.0821 46.5762 10.3738C46.5124 10.6654 46.4805 10.989 46.4805 11.3445V11.6179C46.4805 11.9278 46.5215 12.2149 46.6035 12.4792C46.6901 12.7436 46.8154 12.9737 46.9795 13.1697C47.1481 13.3611 47.3486 13.5115 47.5811 13.6208C47.818 13.7257 48.0869 13.7781 48.3877 13.7781C48.766 13.7781 49.1077 13.7052 49.4131 13.5593C49.723 13.4089 49.9919 13.1879 50.2197 12.8962L51.1289 13.8396C50.974 14.0675 50.7643 14.2862 50.5 14.4958C50.2402 14.7055 49.9258 14.8764 49.5566 15.0085C49.1875 15.1361 48.7614 15.2 48.2783 15.2ZM55.5244 13.7781C55.7796 13.7781 56.0075 13.7279 56.208 13.6277C56.4085 13.5274 56.568 13.3861 56.6865 13.2039C56.8096 13.0216 56.8757 12.8097 56.8848 12.5681H58.5869C58.5778 13.0694 58.4365 13.5183 58.1631 13.9148C57.8896 14.3113 57.5251 14.6257 57.0693 14.8582C56.6182 15.086 56.1123 15.2 55.5518 15.2C54.9821 15.2 54.4854 15.1042 54.0615 14.9128C53.6377 14.7214 53.2845 14.4548 53.002 14.113C52.724 13.7712 52.5143 13.3748 52.373 12.9236C52.2363 12.4724 52.168 11.9893 52.168 11.4744V11.2556C52.168 10.7406 52.2363 10.2576 52.373 9.8064C52.5143 9.35522 52.724 8.95874 53.002 8.61694C53.2845 8.27515 53.6377 8.00854 54.0615 7.81714C54.4854 7.62573 54.9798 7.53003 55.5449 7.53003C56.1419 7.53003 56.666 7.64624 57.1172 7.87866C57.5729 8.11108 57.9284 8.43921 58.1836 8.86304C58.4434 9.28687 58.5778 9.78589 58.5869 10.3601H56.8848C56.8757 10.0958 56.8164 9.85881 56.707 9.64917C56.5977 9.43953 56.4427 9.27091 56.2422 9.14331C56.0417 9.01571 55.7979 8.9519 55.5107 8.9519C55.2054 8.9519 54.9502 9.01571 54.7451 9.14331C54.5446 9.27091 54.3874 9.44637 54.2734 9.66968C54.1641 9.88843 54.0866 10.1345 54.041 10.408C54 10.6768 53.9795 10.9594 53.9795 11.2556V11.4744C53.9795 11.7751 54 12.0623 54.041 12.3357C54.0866 12.6091 54.1641 12.8552 54.2734 13.074C54.3874 13.2882 54.5446 13.4591 54.7451 13.5867C54.9502 13.7143 55.21 13.7781 55.5244 13.7781ZM59.4688 11.4402V11.2966C59.4688 10.7543 59.5462 10.2553 59.7012 9.79956C59.8561 9.33927 60.0817 8.94051 60.3779 8.60327C60.6742 8.26603 61.0365 8.00399 61.4648 7.81714C61.8932 7.62573 62.3809 7.53003 62.9277 7.53003C63.4837 7.53003 63.9759 7.62573 64.4043 7.81714C64.8372 8.00399 65.2018 8.26603 65.498 8.60327C65.7943 8.94051 66.0199 9.33927 66.1748 9.79956C66.3298 10.2553 66.4072 10.7543 66.4072 11.2966V11.4402C66.4072 11.9779 66.3298 12.477 66.1748 12.9373C66.0199 13.393 65.7943 13.7917 65.498 14.1335C65.2018 14.4708 64.8395 14.7328 64.4111 14.9197C63.9827 15.1065 63.4928 15.2 62.9414 15.2C62.3945 15.2 61.9046 15.1065 61.4717 14.9197C61.0387 14.7328 60.6742 14.4708 60.3779 14.1335C60.0817 13.7917 59.8561 13.393 59.7012 12.9373C59.5462 12.477 59.4688 11.9779 59.4688 11.4402ZM61.2734 11.2966V11.4402C61.2734 11.7638 61.3053 12.0668 61.3691 12.3494C61.4329 12.6319 61.5309 12.8803 61.6631 13.0945C61.7952 13.3087 61.9661 13.4773 62.1758 13.6003C62.39 13.7188 62.6452 13.7781 62.9414 13.7781C63.2331 13.7781 63.4837 13.7188 63.6934 13.6003C63.903 13.4773 64.0739 13.3087 64.2061 13.0945C64.3428 12.8803 64.443 12.6319 64.5068 12.3494C64.5706 12.0668 64.6025 11.7638 64.6025 11.4402V11.2966C64.6025 10.9776 64.5706 10.6791 64.5068 10.4011C64.443 10.1186 64.3428 9.8702 64.2061 9.65601C64.0739 9.43726 63.9007 9.26636 63.6865 9.14331C63.4769 9.01571 63.224 8.9519 62.9277 8.9519C62.6361 8.9519 62.3854 9.01571 62.1758 9.14331C61.9661 9.26636 61.7952 9.43726 61.6631 9.65601C61.5309 9.8702 61.4329 10.1186 61.3691 10.4011C61.3053 10.6791 61.2734 10.9776 61.2734 11.2966ZM69.5176 9.18433V15.0632H67.7129V7.66675H69.415L69.5176 9.18433ZM69.251 11.0984H68.6973C68.6973 10.5834 68.7588 10.1095 68.8818 9.67651C69.0094 9.24357 69.1963 8.86759 69.4424 8.54858C69.6885 8.22502 69.9915 7.97437 70.3516 7.79663C70.7161 7.6189 71.1377 7.53003 71.6162 7.53003C71.9489 7.53003 72.2542 7.58016 72.5322 7.68042C72.8102 7.77612 73.0495 7.92879 73.25 8.13843C73.4551 8.34351 73.6123 8.61239 73.7217 8.94507C73.8311 9.27319 73.8857 9.6674 73.8857 10.1277V15.0632H72.0811V10.3123C72.0811 9.9659 72.0309 9.69474 71.9307 9.49878C71.835 9.30282 71.696 9.1661 71.5137 9.08862C71.3314 9.00659 71.1126 8.96558 70.8574 8.96558C70.5749 8.96558 70.3311 9.02254 70.126 9.13647C69.9255 9.24585 69.7591 9.39852 69.627 9.59448C69.4993 9.79045 69.4036 10.016 69.3398 10.2712C69.2806 10.5264 69.251 10.8022 69.251 11.0984ZM73.749 10.7634L73.0039 10.9001C73.0085 10.4353 73.0723 10.0001 73.1953 9.59448C73.3184 9.18433 73.4984 8.82658 73.7354 8.52124C73.9769 8.21134 74.2754 7.96981 74.6309 7.79663C74.9909 7.6189 75.4056 7.53003 75.875 7.53003C76.2396 7.53003 76.5677 7.58244 76.8594 7.68726C77.1556 7.78752 77.4085 7.9493 77.6182 8.17261C77.8278 8.39136 77.9873 8.67619 78.0967 9.0271C78.2106 9.37801 78.2676 9.8064 78.2676 10.3123V15.0632H76.4492V10.3054C76.4492 9.94539 76.3991 9.66968 76.2988 9.47827C76.2031 9.28687 76.0641 9.1547 75.8818 9.08179C75.6995 9.00431 75.4854 8.96558 75.2393 8.96558C74.9886 8.96558 74.7699 9.01343 74.583 9.10913C74.4007 9.20028 74.2458 9.32788 74.1182 9.49194C73.9951 9.65601 73.9017 9.84741 73.8379 10.0662C73.7786 10.2804 73.749 10.5128 73.749 10.7634ZM83.21 15.2C82.6494 15.2 82.1458 15.1088 81.6992 14.9265C81.2526 14.7442 80.8721 14.4913 80.5576 14.1677C80.2477 13.8396 80.0085 13.4591 79.8398 13.0261C79.6758 12.5886 79.5938 12.1192 79.5938 11.6179V11.3445C79.5938 10.7748 79.6758 10.2576 79.8398 9.79272C80.0039 9.32332 80.2363 8.92 80.5371 8.58276C80.8379 8.24552 81.1979 7.98576 81.6172 7.80347C82.0365 7.62118 82.499 7.53003 83.0049 7.53003C83.529 7.53003 83.9915 7.6189 84.3926 7.79663C84.7936 7.96981 85.1286 8.2159 85.3975 8.53491C85.6663 8.85392 85.8691 9.23674 86.0059 9.68335C86.1426 10.1254 86.2109 10.6153 86.2109 11.1531V11.9119L80.4141 11.9119V10.6677L84.4336 10.6677V10.531C84.4245 10.2439 84.3698 9.98185 84.2695 9.74487C84.1693 9.50334 84.0143 9.31193 83.8047 9.17065C83.5951 9.02482 83.3239 8.9519 82.9912 8.9519C82.7223 8.9519 82.4876 9.01115 82.2871 9.12964C82.0911 9.24357 81.9271 9.40763 81.7949 9.62183C81.6673 9.83146 81.5716 10.0821 81.5078 10.3738C81.444 10.6654 81.4121 10.989 81.4121 11.3445V11.6179C81.4121 11.9278 81.4531 12.2149 81.5352 12.4792C81.6217 12.7436 81.7471 12.9737 81.9111 13.1697C82.0798 13.3611 82.2803 13.5115 82.5127 13.6208C82.7497 13.7257 83.0186 13.7781 83.3193 13.7781C83.6976 13.7781 84.0394 13.7052 84.3447 13.5593C84.6546 13.4089 84.9235 13.1879 85.1514 12.8962L86.0605 13.8396C85.9056 14.0675 85.696 14.2862 85.4316 14.4958C85.1719 14.7055 84.8574 14.8764 84.4883 15.0085C84.1191 15.1361 83.693 15.2 83.21 15.2ZM89.1914 9.24585V15.0632H87.3867V7.66675H89.082L89.1914 9.24585ZM88.9043 11.0984H88.3711C88.3757 10.5606 88.4486 10.073 88.5898 9.6355C88.7311 9.198 88.9294 8.82202 89.1846 8.50757C89.4443 8.19312 89.752 7.95158 90.1074 7.78296C90.4629 7.61434 90.8594 7.53003 91.2969 7.53003C91.6523 7.53003 91.9736 7.58016 92.2607 7.68042C92.5479 7.78068 92.7939 7.94019 92.999 8.15894C93.2087 8.37769 93.3682 8.66479 93.4775 9.02026C93.5915 9.37118 93.6484 9.80412 93.6484 10.3191V15.0632H91.8301V10.3054C91.8301 9.96818 91.7799 9.70158 91.6797 9.50562C91.584 9.30965 91.4427 9.17065 91.2559 9.08862C91.0736 9.00659 90.848 8.96558 90.5791 8.96558C90.3011 8.96558 90.0573 9.02254 89.8477 9.13647C89.6426 9.24585 89.4694 9.39852 89.3281 9.59448C89.1914 9.79045 89.0866 10.016 89.0137 10.2712C88.9408 10.5264 88.9043 10.8022 88.9043 11.0984ZM99.6777 13.491V4.56323H101.496V15.0632H99.8555L99.6777 13.491ZM94.9268 11.4539V11.3103C94.9268 10.7452 94.9906 10.2325 95.1182 9.77222C95.2503 9.30737 95.4417 8.90861 95.6924 8.57593C95.943 8.24325 96.2461 7.98576 96.6016 7.80347C96.9616 7.62118 97.3695 7.53003 97.8252 7.53003C98.2673 7.53003 98.6523 7.6189 98.9805 7.79663C99.3132 7.97437 99.5957 8.22729 99.8281 8.55542C100.065 8.88354 100.254 9.27319 100.396 9.72437C100.537 10.171 100.639 10.6632 100.703 11.2009V11.5906C100.639 12.1147 100.537 12.5955 100.396 13.033C100.254 13.4705 100.065 13.8533 99.8281 14.1814C99.5957 14.505 99.3132 14.7556 98.9805 14.9333C98.6478 15.1111 98.2581 15.2 97.8115 15.2C97.3604 15.2 96.9548 15.1065 96.5947 14.9197C96.2393 14.7328 95.9362 14.4708 95.6855 14.1335C95.4395 13.7963 95.2503 13.3998 95.1182 12.9441C94.9906 12.4884 94.9268 11.9916 94.9268 11.4539ZM96.7383 11.3103V11.4539C96.7383 11.7729 96.7656 12.0714 96.8203 12.3494C96.875 12.6274 96.9639 12.8735 97.0869 13.0876C97.21 13.2973 97.3672 13.4613 97.5586 13.5798C97.7546 13.6983 97.9915 13.7576 98.2695 13.7576C98.625 13.7576 98.9167 13.6801 99.1445 13.5251C99.377 13.3656 99.557 13.1492 99.6846 12.8757C99.8122 12.5977 99.8942 12.2856 99.9307 11.9392V10.866C99.9124 10.5925 99.8646 10.3396 99.7871 10.1072C99.7142 9.87476 99.6094 9.67424 99.4727 9.50562C99.3405 9.337 99.1764 9.20483 98.9805 9.10913C98.7845 9.01343 98.5521 8.96558 98.2832 8.96558C98.0052 8.96558 97.7682 9.0271 97.5723 9.15015C97.3763 9.26864 97.2168 9.43498 97.0938 9.64917C96.9707 9.86336 96.8796 10.1117 96.8203 10.3943C96.7656 10.6768 96.7383 10.9822 96.7383 11.3103ZM106.452 15.2C105.892 15.2 105.388 15.1088 104.941 14.9265C104.495 14.7442 104.114 14.4913 103.8 14.1677C103.49 13.8396 103.251 13.4591 103.082 13.0261C102.918 12.5886 102.836 12.1192 102.836 11.6179V11.3445C102.836 10.7748 102.918 10.2576 103.082 9.79272C103.246 9.32332 103.479 8.92 103.779 8.58276C104.08 8.24552 104.44 7.98576 104.859 7.80347C105.279 7.62118 105.741 7.53003 106.247 7.53003C106.771 7.53003 107.234 7.6189 107.635 7.79663C108.036 7.96981 108.371 8.2159 108.64 8.53491C108.909 8.85392 109.111 9.23674 109.248 9.68335C109.385 10.1254 109.453 10.6153 109.453 11.1531V11.9119H103.656V10.6677H107.676V10.531C107.667 10.2439 107.612 9.98185 107.512 9.74487C107.411 9.50334 107.257 9.31193 107.047 9.17065C106.837 9.02482 106.566 8.9519 106.233 8.9519C105.965 8.9519 105.73 9.01115 105.529 9.12964C105.333 9.24357 105.169 9.40763 105.037 9.62183C104.91 9.83146 104.814 10.0821 104.75 10.3738C104.686 10.6654 104.654 10.989 104.654 11.3445V11.6179C104.654 11.9278 104.695 12.2149 104.777 12.4792C104.864 12.7436 104.989 12.9737 105.153 13.1697C105.322 13.3611 105.522 13.5115 105.755 13.6208C105.992 13.7257 106.261 13.7781 106.562 13.7781C106.94 13.7781 107.282 13.7052 107.587 13.5593C107.897 13.4089 108.166 13.1879 108.394 12.8962L109.303 13.8396C109.148 14.0675 108.938 14.2862 108.674 14.4958C108.414 14.7055 108.1 14.8764 107.73 15.0085C107.361 15.1361 106.935 15.2 106.452 15.2ZM115.1 13.491V4.56323H116.918V15.0632H115.277L115.1 13.491ZM110.349 11.4539V11.3103C110.349 10.7452 110.412 10.2325 110.54 9.77222C110.672 9.30737 110.864 8.90861 111.114 8.57593C111.365 8.24325 111.668 7.98576 112.023 7.80347C112.383 7.62118 112.791 7.53003 113.247 7.53003C113.689 7.53003 114.074 7.6189 114.402 7.79663C114.735 7.97437 115.018 8.22729 115.25 8.55542C115.487 8.88354 115.676 9.27319 115.817 9.72437C115.959 10.171 116.061 10.6632 116.125 11.2009V11.5906C116.061 12.1147 115.959 12.5955 115.817 13.033C115.676 13.4705 115.487 13.8533 115.25 14.1814C115.018 14.505 114.735 14.7556 114.402 14.9333C114.07 15.1111 113.68 15.2 113.233 15.2C112.782 15.2 112.377 15.1065 112.017 14.9197C111.661 14.7328 111.358 14.4708 111.107 14.1335C110.861 13.7963 110.672 13.3998 110.54 12.9441C110.412 12.4884 110.349 11.9916 110.349 11.4539ZM112.16 11.3103V11.4539C112.16 11.7729 112.188 12.0714 112.242 12.3494C112.297 12.6274 112.386 12.8735 112.509 13.0876C112.632 13.2973 112.789 13.4613 112.98 13.5798C113.176 13.6983 113.413 13.7576 113.691 13.7576C114.047 13.7576 114.339 13.6801 114.566 13.5251C114.799 13.3656 114.979 13.1492 115.106 12.8757C115.234 12.5977 115.316 12.2856 115.353 11.9392V10.866C115.334 10.5925 115.286 10.3396 115.209 10.1072C115.136 9.87476 115.031 9.67424 114.895 9.50562C114.762 9.337 114.598 9.20483 114.402 9.10913C114.206 9.01343 113.974 8.96558 113.705 8.96558C113.427 8.96558 113.19 9.0271 112.994 9.15015C112.798 9.26864 112.639 9.43498 112.516 9.64917C112.393 9.86336 112.301 10.1117 112.242 10.3943C112.188 10.6768 112.16 10.9822 112.16 11.3103Z" fill="white"/>
<path d="M11.3644 5.01971C10.337 2.38376 6.66549 1.01557 5.09766 0.878287C6.73132 -0.0177001 9.96428 -0.0641102 11.0692 0.0388219C11.0692 0.944934 11.3644 3.92139 11.3644 5.01971Z" fill="#FF0000"/>
<path d="M142.048 5.01967C143.037 2.38372 146.572 1.01553 148.082 0.878245C146.023 0.0545483 143.38 -0.0121735 142.316 0.0907587C142.316 0.996871 142.048 3.92134 142.048 5.01967Z" fill="#FF0000"/>
</svg>
