<svg xmlns="http://www.w3.org/2000/svg" width="25" height="42" viewBox="0 0 25 42" fill="none">
  <path d="M17.8187 32.7786C17.8287 32.7986 17.8487 32.8286 17.8587 32.8486C17.8787 32.8886 17.8887 32.9186 17.9187 32.9486L22.9787 38.6386C23.0787 38.7486 23.2087 38.8086 23.3487 38.8086C23.3987 38.8086 23.4587 38.7986 23.5087 38.7786C23.6987 38.7186 23.8287 38.5486 23.8487 38.3486L24.4887 30.7586C24.4887 30.7086 24.4787 30.6686 24.4687 30.6186C24.4687 30.5986 24.4687 30.5786 24.4587 30.5586L16.0787 5.4186L16.3287 5.3386C16.5187 5.2786 16.6687 5.3386 16.7487 5.3886C16.8787 5.4686 16.9587 5.5986 16.9887 5.7486C17.3587 8.5186 18.0887 10.3886 19.2187 11.4686C19.3187 11.5586 19.4387 11.6086 19.5687 11.6086C19.6987 11.6086 19.8287 11.5586 19.9287 11.4586C20.1187 11.2586 20.1087 10.9386 19.9087 10.7486C18.9687 9.8486 18.3187 8.1186 17.9787 5.6086C17.9187 5.1586 17.6687 4.7686 17.2787 4.5286C16.8987 4.2886 16.4387 4.2386 16.0187 4.3786L15.7687 4.4586L15.6087 3.9886C15.3387 3.2086 14.4887 2.7886 13.7087 3.0486L13.2387 3.2086L12.7587 1.7886C12.4987 0.998599 11.6487 0.578599 10.8587 0.838599C10.0787 1.0986 9.64874 1.9486 9.90874 2.7386L10.3787 4.1586L9.90874 4.3186C9.12874 4.5786 8.69874 5.4286 8.95874 6.2186L17.8187 32.7786ZM22.9587 37.0986L19.1787 32.8486L23.4287 31.4286L22.9587 37.0986ZM23.3587 30.3986L18.6187 31.9886L13.5587 16.8086L18.2987 15.2286L23.3587 30.3986ZM17.9787 14.2786L13.2387 15.8586L12.9187 14.9086L17.6587 13.3286L17.9787 14.2786ZM11.1787 1.7886C11.4387 1.7086 11.7287 1.8386 11.8087 2.1086L12.2787 3.5286L11.3287 3.8486L10.8587 2.4286C10.7687 2.1586 10.9087 1.8686 11.1787 1.7886ZM10.2287 5.2686L11.1787 4.9486L12.1287 4.6286L14.0287 3.9986C14.0787 3.9786 14.1387 3.9686 14.1887 3.9686C14.3987 3.9686 14.5987 4.0986 14.6587 4.3086L14.9787 5.2586L17.3487 12.3686L12.6087 13.9486L9.91874 5.8886C9.82874 5.6386 9.96874 5.3486 10.2287 5.2686Z" fill="#073763"/>
  <path d="M1.20878 40.1687C3.38878 39.0787 6.17878 36.3887 8.11878 34.3587C8.31878 35.0687 8.86878 35.7187 9.41878 36.2987C9.34878 36.4287 9.28878 36.5587 9.24878 36.6687C8.62878 38.1287 8.77878 39.8687 9.56878 40.4687C9.98878 40.7887 10.5388 40.7487 11.0288 40.3487C11.6588 39.8387 11.9988 39.2887 12.0288 38.6987C12.0888 37.7687 11.4188 36.9687 10.6888 36.1987C11.2488 35.5487 12.2188 34.9887 13.8688 35.2387C15.1588 35.4387 19.8388 38.8687 22.6788 41.1287C22.7688 41.1987 22.8788 41.2387 22.9888 41.2387C23.1388 41.2387 23.2788 41.1787 23.3788 41.0487C23.5488 40.8287 23.5188 40.5187 23.2988 40.3487C22.5588 39.7587 15.9888 34.5487 14.0188 34.2487C11.9588 33.9287 10.7188 34.6687 10.0088 35.4687C9.07878 34.4387 8.75878 33.8087 9.37878 33.0587L9.71878 32.6487C9.74878 32.6187 9.77878 32.5787 9.80878 32.5387L9.82878 32.5187C9.95878 32.3287 10.0888 32.0487 9.79878 31.7987C9.63878 31.6587 9.38878 31.5687 9.07878 31.8787L9.06878 31.8887C9.04878 31.9087 9.02878 31.9287 9.00878 31.9587C7.45878 33.7087 3.54878 37.9187 0.788781 39.2987C0.538781 39.4187 0.438781 39.7187 0.568781 39.9687C0.668781 40.1887 0.968781 40.2887 1.20878 40.1687ZM10.1588 37.0687C10.6588 37.6087 11.0688 38.1487 11.0388 38.6187C11.0188 38.9187 10.8088 39.2287 10.4088 39.5587C10.3588 39.5987 10.2288 39.6887 10.1688 39.6587C9.87878 39.4387 9.65878 38.2687 10.1588 37.0687Z" fill="#073763"/>
</svg>